<svg width="75" height="79" viewBox="0 0 75 79" fill="none" xmlns="http://www.w3.org/2000/svg">
<g id="autosource 1" clip-path="url(#clip0_650_956)">
<g id="Group">
<path id="Vector" d="M0.702548 78.1451C0.596598 78.0639 0.555848 77.9503 0.563998 77.6988C0.572148 77.5041 0.596597 77.3256 0.612897 77.2931C0.637347 77.2607 0.726998 76.855 0.824799 76.3843C0.914449 75.9218 1.06115 75.2484 1.1508 74.8914C1.2323 74.5343 1.43605 73.6256 1.59905 72.8628C1.76205 72.1082 1.9332 71.3536 1.97395 71.1995C2.0147 71.0453 2.10435 70.6396 2.16956 70.3069C2.42221 68.96 2.53631 68.5624 2.67486 68.465C2.76451 68.4001 3.09051 68.3596 3.60396 68.3596C4.45157 68.3596 4.61457 68.4245 4.69607 68.7896C4.72052 68.887 4.92427 69.8282 5.14432 70.8749C5.37252 71.9216 5.62517 73.09 5.70667 73.4714C5.78817 73.8528 5.97562 74.7859 6.12232 75.5405C6.26902 76.3032 6.43203 77.0903 6.49723 77.3012C6.65208 77.8286 6.64393 78.0721 6.45648 78.1775C6.25273 78.283 5.26657 78.283 5.07097 78.1775C4.89982 78.0883 4.65532 77.5446 4.65532 77.2607C4.65532 76.928 4.51677 76.8793 3.58766 76.8793C2.57706 76.8793 2.49556 76.9199 2.40591 77.5041C2.31626 78.0883 2.0962 78.2587 1.4116 78.2587C1.0693 78.2587 0.800349 78.2181 0.702548 78.1451ZM1.9006 77.6664C1.92505 77.6177 1.97395 77.4311 2.00655 77.2363C2.031 77.0497 2.12881 76.7982 2.21846 76.6846C2.38146 76.4736 2.39776 76.4736 3.54691 76.4736C4.34562 76.4736 4.74497 76.5061 4.84277 76.5791C4.92427 76.6278 5.04652 76.9118 5.12802 77.2039L5.26657 77.7313L5.69852 77.7556C6.20382 77.7881 6.19568 77.7962 5.96747 76.8306C5.77187 76.0192 5.41327 74.3721 4.89982 71.8892C4.67162 70.8181 4.44341 69.7389 4.39451 69.4955C4.26411 68.8951 4.10926 68.7653 3.56321 68.7653C3.02531 68.7653 2.91121 68.8626 2.78081 69.4306C2.60151 70.2177 2.47111 70.8262 2.29181 71.6457C2.19401 72.092 2.0636 72.6762 2.00655 72.944C1.94135 73.2118 1.79465 73.9096 1.68055 74.4857C1.5583 75.0699 1.35455 76.0273 1.2323 76.6196C1.01225 77.6907 1.01225 77.7069 1.1671 77.7637C1.37085 77.8368 1.82725 77.7799 1.9006 77.6664Z" fill="white"/>
<path id="Vector_2" d="M2.53613 75.0455C2.53613 74.794 2.58503 74.4045 2.65023 74.1773C2.71543 73.942 2.84583 73.374 2.94363 72.9034C3.04959 72.4328 3.17999 71.9135 3.24519 71.7512C3.35929 71.4672 3.40004 71.4429 3.67714 71.4429C3.97054 71.4429 3.98684 71.451 4.03574 71.7918C4.06834 71.9784 4.14169 72.3679 4.20689 72.66C4.48399 73.942 4.58179 74.5993 4.55734 75.0131L4.53289 75.4593L3.53859 75.4837L2.53613 75.508V75.0455ZM4.07649 75.1023C4.19059 75.0293 4.18244 74.9238 3.88904 73.2686C3.68529 72.1488 3.67714 72.1164 3.59564 72.2543C3.48969 72.4572 3.17999 73.6337 3.05773 74.3558C2.95993 74.9076 2.95993 75.0536 3.04144 75.1104C3.17999 75.1916 3.92979 75.1916 4.07649 75.1023Z" fill="white"/>
<path id="Vector_3" d="M8.11097 78.1045C7.73607 77.9341 7.47527 77.642 7.35302 77.2607C7.22262 76.8631 7.27152 71.7269 7.41007 71.589C7.56492 71.4348 8.49402 71.4023 8.68962 71.5484C8.84448 71.6701 8.85262 71.7837 8.87707 74.0719C8.90152 76.7982 8.85263 76.6278 9.62688 76.6034L10.0751 76.5953L10.1159 74.1205C10.1403 72.7574 10.1892 71.5971 10.2218 71.5484C10.3359 71.378 11.2813 71.4105 11.5095 71.5971L11.697 71.7431L11.6888 74.1287C11.6807 75.4431 11.6725 76.8469 11.6644 77.2444C11.6644 77.6501 11.6318 78.0315 11.591 78.0883C11.4688 78.2749 10.4989 78.3155 10.2463 78.1451C10.067 78.0315 10.0181 78.0315 9.75728 78.137C9.34978 78.3074 8.51847 78.2912 8.11097 78.1045ZM10.0344 77.6826C10.2381 77.6826 10.5886 77.6988 10.8086 77.7069L11.2161 77.7313L11.2732 77.285C11.2976 77.0416 11.3221 75.792 11.3302 74.51C11.3384 72.2705 11.3302 72.1651 11.1754 72.0109C11.0205 71.8567 10.7516 71.8486 10.5071 71.9866C10.4663 72.0028 10.4419 73.0901 10.4419 74.4045C10.4419 75.7109 10.4174 76.8387 10.393 76.9118C10.3196 77.0984 8.80373 77.0984 8.61627 76.9118C8.50217 76.8063 8.48587 76.4736 8.48587 74.5668C8.48587 73.3416 8.45327 72.2543 8.41252 72.1488C8.31472 71.9054 8.13542 71.8324 7.87462 71.9298L7.67087 72.0109V74.4451C7.67087 77.0578 7.67902 77.1308 8.09467 77.496C8.37177 77.7475 8.46142 77.7719 9.09713 77.7232C9.41498 77.7069 9.83063 77.6826 10.0344 77.6826Z" fill="white"/>
<path id="Vector_4" d="M14.1093 78.1288C13.767 77.9828 13.4899 77.7313 13.3106 77.4067C13.1965 77.2038 13.1639 76.8144 13.1313 75.1348L13.0906 73.1063L12.7483 73.0819C12.3 73.0495 12.1533 72.8466 12.1533 72.2705C12.1533 71.8161 12.2593 71.524 12.4223 71.524C12.4793 71.524 12.6505 71.4834 12.8216 71.4429L13.115 71.3617L13.1476 70.5909C13.1639 70.1203 13.2128 69.7876 13.278 69.7227C13.3269 69.674 13.6203 69.6091 13.9219 69.5929C14.6309 69.5442 14.6798 69.6091 14.6798 70.5666C14.6798 71.3699 14.7287 71.4429 15.3155 71.4429C15.5111 71.4429 15.7149 71.4997 15.829 71.597C16.0001 71.735 16.0246 71.808 16.0001 72.2624C15.9757 72.9277 15.8534 73.0657 15.2911 73.0657C15.0629 73.0657 14.8347 73.1063 14.7776 73.1631C14.7043 73.2361 14.6798 73.7229 14.6798 74.867V76.4736L14.8917 76.5547C15.0058 76.6034 15.2422 76.6359 15.4133 76.6359C15.8779 76.6359 15.9838 76.79 15.9838 77.4473C15.9838 77.9341 15.9594 78.0234 15.8045 78.1288C15.56 78.2992 14.5005 78.2992 14.1093 78.1288ZM15.5437 77.5527C15.6334 77.212 15.4948 77.0821 14.9977 77.0578C14.7613 77.0416 14.5168 76.9929 14.4598 76.9442C14.3294 76.8387 14.3049 72.8628 14.4353 72.7817C14.4761 72.7573 14.7043 72.7087 14.9406 72.6843C15.4378 72.6275 15.5763 72.5464 15.5763 72.303C15.5763 71.9784 15.4378 71.8891 14.908 71.8486L14.3946 71.808L14.3538 70.9641C14.3049 70.0148 14.2316 69.8769 13.8078 70.031C13.5877 70.1041 13.5796 70.1284 13.5307 70.8911C13.4981 71.3212 13.4573 71.7025 13.4247 71.7512C13.4003 71.7918 13.2291 71.8486 13.058 71.881C12.4141 71.9784 12.406 72.5951 13.0498 72.6843C13.2373 72.7087 13.4084 72.7492 13.441 72.7736C13.4655 72.806 13.5062 73.7635 13.5307 74.9157C13.5714 76.8063 13.5959 77.0253 13.7426 77.2363C14.0034 77.6258 14.3294 77.7718 14.9406 77.7718C15.4704 77.7718 15.4948 77.7637 15.5437 77.5527Z" fill="white"/>
<path id="Vector_5" d="M17.3695 78.0802C17.1658 77.9747 16.905 77.7475 16.7827 77.569L16.5545 77.2444L16.5464 74.8751C16.5464 72.2949 16.5464 72.2786 17.0272 71.8243C17.3451 71.524 17.7037 71.4429 18.8365 71.4429C19.8553 71.4429 20.2547 71.5565 20.6051 71.9379C20.9311 72.2949 20.9556 72.5058 20.9556 74.9319V77.2688L20.6866 77.6258C20.2791 78.1532 20.0998 78.2181 18.8365 78.2425C17.8259 78.2668 17.7037 78.2506 17.3695 78.0802ZM20.1406 77.4879C20.5236 77.1227 20.5644 76.8306 20.5318 74.6479C20.5073 72.4004 20.4992 72.3841 19.8064 72.0271C19.4804 71.8567 19.3663 71.8405 18.6246 71.8729C17.6955 71.9054 17.3695 72.0433 17.0843 72.514C16.9294 72.7655 16.9213 72.9278 16.9213 74.8508C16.9213 76.8144 16.9294 76.9361 17.0924 77.1876C17.4266 77.7232 17.6059 77.78 18.8121 77.7556C19.8798 77.7313 19.8879 77.7313 20.1406 77.4879Z" fill="white"/>
<path id="Vector_6" d="M17.8665 76.8874C17.7035 76.7251 17.6953 76.6359 17.6953 74.867C17.6953 73.3903 17.7198 72.9846 17.8094 72.8547C17.9154 72.7168 18.0213 72.7006 18.7548 72.7168C19.2031 72.7249 19.6106 72.7574 19.6513 72.7817C19.7573 72.8466 19.7573 76.717 19.6513 76.8793C19.5943 76.9686 19.3824 77.0091 18.8037 77.0254C18.111 77.0578 18.0213 77.0416 17.8665 76.8874ZM19.2846 76.4493C19.309 76.3519 19.3172 75.5567 19.309 74.6885L19.2846 73.1063L18.8037 73.0819C18.5429 73.0657 18.2903 73.09 18.2414 73.1387C18.1354 73.2442 18.1517 76.4817 18.2577 76.5466C18.2984 76.571 18.5348 76.6034 18.7874 76.6115C19.1949 76.6359 19.2438 76.6196 19.2846 76.4493Z" fill="white"/>
<path id="Vector_7" d="M25.7233 78.1045C25.3402 77.926 24.9979 77.5852 24.8757 77.2607C24.7453 76.928 24.7616 75.3782 24.892 75.2727C25.0061 75.1753 25.2261 75.151 25.8211 75.1672C26.3508 75.1753 26.4975 75.3133 26.4975 75.792C26.4975 76.4249 26.5709 76.4817 27.3207 76.4655C28.1031 76.4493 28.1683 76.3762 28.1031 75.6378L28.0623 75.1591L26.6361 73.7229C24.8512 71.9297 24.786 71.8161 24.786 70.5098C24.786 69.2521 24.949 68.8545 25.6173 68.5137C25.8781 68.3839 26.1063 68.3596 27.3207 68.3596C28.6736 68.3596 28.7388 68.3677 29.0729 68.5624C29.6842 68.9194 29.7902 69.1547 29.8309 70.1933C29.8635 71.4104 29.8472 71.4429 29.0566 71.4429C28.209 71.4429 28.1275 71.3861 28.1275 70.81C28.1275 70.5585 28.0949 70.2988 28.0542 70.242C27.9564 70.0878 26.7502 70.0635 26.6035 70.2096C26.4812 70.3313 26.4649 70.6964 26.5709 70.9723C26.6116 71.0778 27.2555 71.7756 28.0053 72.5302C29.8472 74.3883 29.7902 74.2909 29.8309 75.646C29.8635 77.1308 29.8228 77.3661 29.4315 77.7556C28.9996 78.1857 28.6817 78.2587 27.2636 78.2587C26.253 78.2587 25.9922 78.2262 25.7233 78.1045ZM28.7551 77.6339C28.9262 77.5528 29.1463 77.3499 29.2767 77.1308C29.4967 76.79 29.513 76.7089 29.513 75.9624C29.513 74.794 29.456 74.6966 27.6793 72.9034C26.416 71.6295 26.1797 71.3536 26.1308 71.0859C26.0737 70.7857 26.1308 69.9499 26.2204 69.812C26.2449 69.7714 26.7339 69.7389 27.3125 69.7389C28.478 69.7389 28.4535 69.7227 28.4535 70.3394C28.4535 70.7857 28.6328 71.0372 28.9507 71.0372C29.4152 71.0372 29.513 70.9236 29.513 70.38C29.513 69.6578 29.2441 69.2034 28.641 68.8951C28.2824 68.7166 26.4649 68.7085 26.033 68.887C25.3973 69.1547 25.112 69.6253 25.112 70.4205C25.112 71.4186 25.2506 71.6376 26.9458 73.3253L28.4535 74.8183V75.7514C28.4535 76.3681 28.4209 76.717 28.3557 76.7819C28.2905 76.8468 27.9401 76.8793 27.3044 76.8793C26.2041 76.8793 26.1715 76.8549 26.1063 76.2058C26.09 75.9705 26.033 75.7352 25.9922 75.6865C25.8863 75.5567 25.3402 75.5486 25.2098 75.6784C25.0387 75.8488 25.0876 76.644 25.2995 77.0416C25.5929 77.6258 25.7966 77.7232 26.848 77.78C27.9808 77.8449 28.3883 77.8124 28.7551 77.6339Z" fill="white"/>
<path id="Vector_8" d="M31.8685 78.1775C31.5262 78.0802 31.241 77.853 31.0454 77.5365C30.8579 77.2525 30.8579 77.1957 30.8579 74.8427V72.449L31.078 72.1164C31.4121 71.6133 31.7463 71.4916 32.8954 71.4591C34.3298 71.4104 34.827 71.5971 35.1448 72.2868C35.2834 72.587 35.2997 72.8547 35.2997 74.7778C35.2997 77.0091 35.2671 77.2607 34.9492 77.7232C34.6558 78.137 34.2483 78.2587 33.0992 78.2506C32.5368 78.2506 31.9826 78.2181 31.8685 78.1775ZM34.2728 77.6258C34.4113 77.5446 34.5906 77.358 34.6884 77.2039C34.8433 76.9361 34.8514 76.79 34.8433 74.794V72.6762L34.6232 72.3922C34.2972 71.9622 33.8408 71.8243 32.9199 71.8648C32.0641 71.9054 31.7463 72.0271 31.4529 72.4328C31.2736 72.6925 31.2654 72.7574 31.241 74.6885C31.2247 75.9137 31.2491 76.79 31.298 76.9686C31.404 77.3175 31.6811 77.5852 32.0967 77.7313C32.5287 77.8936 33.9386 77.8205 34.2728 77.6258Z" fill="white"/>
<path id="Vector_9" d="M32.1697 76.9118C32.0556 76.7982 32.0393 76.5223 32.0556 74.7859L32.0801 72.7817L32.9685 72.7574C33.5471 72.7411 33.8894 72.7655 33.9628 72.8304C34.0524 72.9034 34.0769 73.301 34.0769 74.8589C34.0769 76.7576 34.0769 76.79 33.8976 76.9118C33.6368 77.0984 32.349 77.0903 32.1697 76.9118ZM33.6042 76.4411C33.7183 76.2789 33.6775 73.3578 33.5634 73.1955C33.4819 73.0819 33.3597 73.0576 32.9766 73.0819L32.4876 73.1063L32.4631 74.8264C32.4387 76.7657 32.3898 76.6359 33.1396 76.571C33.3678 76.5466 33.5716 76.4898 33.6042 76.4411Z" fill="white"/>
<path id="Vector_10" d="M37.0924 78.0802C36.8886 77.9747 36.6441 77.7718 36.5463 77.6177C36.3589 77.3418 36.3589 77.3093 36.3589 74.5506C36.3589 72.7817 36.3915 71.7025 36.4404 71.5971C36.5137 71.4672 36.6197 71.4429 37.0516 71.4429C37.94 71.4429 37.9074 71.3374 37.9074 74.1205C37.9074 76.7982 37.8422 76.5953 38.6409 76.5953H39.0891L39.1299 74.1043C39.1544 72.7411 39.2032 71.589 39.2358 71.5565C39.2684 71.5159 39.5537 71.4754 39.8634 71.4591C40.7355 71.4104 40.6866 71.2157 40.6621 74.9644C40.6377 77.642 40.6214 78.1126 40.5154 78.1857C40.4421 78.2343 40.1568 78.2425 39.8227 78.2181C39.0891 78.1613 38.9832 78.1613 38.1519 78.2181C37.5325 78.2668 37.4184 78.2506 37.0924 78.0802ZM38.6735 77.6745C38.755 77.6339 38.9751 77.6177 39.1625 77.642C39.3418 77.6745 39.6678 77.715 39.8797 77.7394L40.2628 77.7881L40.3117 77.4311C40.3361 77.2444 40.3524 75.9381 40.3361 74.5425C40.3117 71.7593 40.3198 71.7999 39.8227 71.8973C39.6923 71.9297 39.5537 71.9622 39.5211 71.9865C39.4804 72.0028 39.4559 73.09 39.4559 74.4045C39.4559 75.7109 39.4315 76.8387 39.407 76.9118C39.3663 77.0172 39.2114 77.0416 38.5675 77.0416C38.1356 77.0416 37.7281 77.001 37.6629 76.9604C37.5569 76.8955 37.5325 76.4898 37.4917 74.4289C37.4673 73.0738 37.4428 71.9622 37.4347 71.9622C37.3287 71.8892 37.0353 71.8729 36.8805 71.9297L36.6849 72.0109V74.4451C36.6849 77.0578 36.693 77.1308 37.1087 77.496C37.2065 77.5933 37.4102 77.7069 37.5406 77.7556C37.8014 77.853 38.4208 77.8043 38.6735 77.6745Z" fill="white"/>
<path id="Vector_11" d="M41.8279 78.0477C41.6649 77.8368 41.6567 77.7475 41.6567 74.8183C41.6649 72.303 41.6812 71.7837 41.779 71.6539C41.9338 71.451 42.7896 71.3699 43.0911 71.524C43.246 71.6133 43.3764 71.6133 43.7024 71.5403C44.3788 71.3861 44.6397 71.4104 44.8353 71.6701C44.9901 71.8567 45.0064 71.9622 44.9738 72.376C44.9168 72.9927 44.819 73.0657 44.0447 73.0657C43.4905 73.0657 43.4416 73.0819 43.3682 73.2604C43.3275 73.3659 43.303 74.437 43.303 75.6297C43.3112 76.8306 43.2867 77.8936 43.2541 77.9828C43.1889 78.1938 42.9933 78.2587 42.4147 78.2587C42.0561 78.2587 41.9664 78.2262 41.8279 78.0477ZM42.6673 77.7718L42.8792 77.6907V75.3539C42.8792 73.4714 42.9037 72.9846 42.9933 72.8629C43.083 72.733 43.2297 72.7006 43.7431 72.6843C44.4196 72.66 44.5093 72.6113 44.5093 72.2381C44.5093 71.9135 44.2811 71.8243 43.8572 71.9703C43.4008 72.1326 42.9281 72.1245 42.7896 71.9622C42.6836 71.8324 42.3495 71.8648 42.1946 72.0109C42.1539 72.0515 42.1294 73.3254 42.1376 74.867C42.1457 77.3743 42.162 77.6583 42.2843 77.7556C42.4473 77.8692 42.4147 77.8692 42.6673 77.7718Z" fill="white"/>
<path id="Vector_12" d="M46.0818 78.0883C45.8944 77.999 45.6499 77.78 45.5113 77.5852L45.2831 77.2444L45.2587 75.1348C45.2261 72.6925 45.275 72.3354 45.6988 71.8973C46.0574 71.524 46.3915 71.4429 47.5244 71.4429C48.6083 71.4429 48.9262 71.5159 49.2603 71.8243C49.6516 72.1975 49.7249 72.4247 49.7249 73.2442C49.7249 74.0637 49.6923 74.1611 49.4152 74.2585C49.1789 74.3477 48.372 74.2666 48.2497 74.1449C48.2008 74.0962 48.1356 73.8365 48.103 73.5769L48.0541 73.1063L47.5733 73.0819C47.3043 73.0657 47.0517 73.0982 47.0028 73.1468C46.8968 73.2523 46.8479 76.2951 46.9457 76.4655C47.0272 76.5953 47.7363 76.6521 47.94 76.5466C48.0215 76.5061 48.0867 76.3276 48.1193 76.0598C48.1927 75.4756 48.2579 75.4188 48.9099 75.4188C49.6597 75.4188 49.7249 75.4999 49.7249 76.4168C49.7249 77.4229 49.5375 77.7962 48.8691 78.1045C48.372 78.3317 46.5627 78.3236 46.0818 78.0883ZM48.3801 77.7637C48.9669 77.6015 49.3174 77.1227 49.3174 76.4736C49.3174 76.0111 49.2033 75.8245 48.9099 75.8245C48.6165 75.8245 48.5024 76.0111 48.5024 76.5061C48.5024 76.9767 48.3883 77.0416 47.5081 77.0416C46.4078 77.0416 46.4649 77.1633 46.4649 74.8589C46.4649 73.301 46.4893 72.9034 46.579 72.8304C46.6523 72.7655 46.9946 72.7411 47.5733 72.7574L48.4616 72.7817L48.5024 73.228C48.5513 73.7797 48.6165 73.8771 48.9099 73.8771C49.2114 73.8771 49.3174 73.6905 49.3174 73.1631C49.3174 72.6519 49.0729 72.2786 48.5839 72.0271C48.2497 71.8567 48.1356 71.8405 47.3858 71.8729C46.6768 71.8973 46.5138 71.9297 46.2693 72.092C45.6988 72.4896 45.6906 72.5302 45.7151 74.8833C45.7314 76.4898 45.764 77.0335 45.8536 77.2039C45.9759 77.4392 46.2937 77.6745 46.6197 77.7718C46.9376 77.8692 48.0134 77.8611 48.3801 77.7637Z" fill="white"/>
<path id="Vector_13" d="M51.6078 78.1126C51.021 77.8205 50.7113 77.212 50.7031 76.3519C50.7031 75.8488 50.7765 75.581 50.9069 75.581C50.9721 75.581 51.021 75.7677 51.0454 76.1409C51.0943 76.8306 51.3714 77.4229 51.73 77.6258C51.9419 77.7475 52.1864 77.7799 53.0666 77.7799C54.0283 77.7881 54.1669 77.7718 54.2647 77.642C54.4195 77.431 54.3951 77.2201 54.2158 77.1227C54.1261 77.0821 53.6534 77.0416 53.1726 77.0416C52.0397 77.0416 51.9827 77.0091 51.9419 76.2545C51.893 75.4269 51.9093 75.4188 53.3356 75.4188C53.9713 75.4188 54.5499 75.3782 54.6151 75.3376C54.7129 75.2727 54.7374 75.0293 54.7374 73.9663C54.7374 72.4815 54.6966 72.3679 54.0365 72.0271C53.7186 71.8567 53.5882 71.8405 52.8629 71.8648C51.893 71.8973 51.5833 72.0352 51.2736 72.587C51.0862 72.9115 51.0699 73.0413 51.0454 74.1854C51.021 75.151 50.9884 75.4188 50.8987 75.4188C50.7357 75.4188 50.695 75.0049 50.7276 73.6742C50.7683 72.2949 50.8661 72.0109 51.4203 71.6701C51.6811 71.5078 51.8523 71.4834 52.8058 71.4591C54.1587 71.4185 54.4847 71.5159 54.8841 72.0758L55.1449 72.4571L55.1693 73.9988C55.2019 75.9543 55.316 75.8245 53.629 75.8245H52.4146V76.1896C52.4146 76.3924 52.4391 76.5547 52.4798 76.5628C52.5124 76.5628 52.9607 76.571 53.4823 76.5791C54.6803 76.6034 54.6966 76.6115 54.6966 77.4554C54.6966 77.999 54.6722 78.1045 54.5418 78.1775C54.4521 78.2181 53.8409 78.2587 53.1318 78.2587C52.1049 78.2587 51.836 78.2343 51.6078 78.1126Z" fill="white"/>
<path id="Vector_14" d="M59.0977 78.137C58.951 77.9585 58.9592 68.6517 59.0977 68.4813C59.1711 68.392 59.3748 68.3596 59.8394 68.3596C60.4017 68.3596 60.4914 68.3758 60.5973 68.5381C60.7114 68.7003 60.7277 69.2115 60.7277 72.4977C60.7277 75.3295 60.7522 76.3032 60.8255 76.3762C60.8907 76.4411 61.2738 76.4736 61.991 76.4736C62.5696 76.4736 63.0912 76.5061 63.1483 76.5385C63.1972 76.571 63.2787 76.7008 63.3276 76.8144C63.4417 77.1065 63.3194 78.0883 63.1646 78.1857C63.0994 78.2262 62.1866 78.2587 61.1271 78.2587C59.5052 78.2587 59.1792 78.2425 59.0977 78.137ZM62.7082 77.78C62.8956 77.7069 62.9282 77.6501 62.9282 77.3824C62.9282 77.212 62.8875 77.0335 62.8304 76.9767C62.7652 76.9117 62.3822 76.8793 61.6731 76.8793C61.0863 76.8793 60.5484 76.8387 60.4832 76.7982C60.3773 76.7332 60.3528 76.1734 60.3202 72.8223C60.2876 69.4712 60.2632 68.9113 60.1572 68.8464C59.9942 68.7409 59.6927 68.749 59.4971 68.8464C59.3504 68.9275 59.3422 69.0655 59.3422 73.2685C59.3422 77.4067 59.3504 77.6014 59.4971 77.7069C59.6927 77.8449 62.374 77.9098 62.7082 77.78Z" fill="white"/>
<path id="Vector_15" d="M64.1182 78.0802C64.0041 77.9179 63.9878 77.3256 63.9878 73.2523C63.9878 69.1466 64.0041 68.603 64.1182 68.4894C64.2812 68.3271 65.3488 68.3109 65.5607 68.465C65.6912 68.5543 65.7074 68.8545 65.7074 72.3679C65.6993 74.9238 65.7319 76.2139 65.7889 76.3275C65.8705 76.4817 65.9275 76.4898 66.661 76.4411C67.1011 76.4087 67.6146 76.4168 67.8183 76.4493C68.3073 76.5385 68.4948 76.8631 68.4133 77.5284C68.3318 78.283 68.4051 78.2587 66.1802 78.2587C64.273 78.2587 64.2404 78.2587 64.1182 78.0802ZM67.7613 77.78C67.9406 77.7069 67.9813 77.642 67.9813 77.4148C67.9813 76.8712 67.9976 76.8793 66.7833 76.8793C66.1802 76.8793 65.6178 76.8387 65.5282 76.7982C65.3815 76.717 65.3733 76.5872 65.3733 72.9602C65.3733 68.7815 65.3733 68.8221 64.868 68.7815C64.2893 68.7328 64.3056 68.603 64.3301 73.3822C64.3545 77.1633 64.3708 77.6339 64.4849 77.7151C64.6561 77.8449 67.4516 77.8936 67.7613 77.78Z" fill="white"/>
<path id="Vector_16" d="M70.0349 78.0883C69.8393 77.9909 69.5866 77.7881 69.4644 77.6258L69.2444 77.3418L69.2199 73.4146C69.2036 69.6903 69.2036 69.4793 69.3585 69.1953C69.7252 68.465 70.0268 68.3596 71.7301 68.3596C72.8548 68.3596 73.1727 68.3839 73.3846 68.4894C74.0855 68.8464 74.2566 69.2115 74.2566 70.38C74.2566 71.1832 74.2403 71.2806 74.1018 71.3618C73.8817 71.4753 72.7652 71.4672 72.6429 71.3455C72.5859 71.2887 72.5451 71.0128 72.5451 70.6964V70.1365L71.7546 70.1609L70.9559 70.1852L70.9396 73.2442C70.9314 75.4999 70.9559 76.3275 71.0211 76.3681C71.1759 76.4655 72.4147 76.4492 72.4799 76.36C72.5125 76.3113 72.5451 76.0841 72.5451 75.8569C72.5451 75.2321 72.6511 75.1429 73.3846 75.1429C74.2485 75.1429 74.2566 75.1591 74.2566 76.2707C74.2566 77.1389 74.2485 77.1957 74.0203 77.496C73.515 78.1857 73.2949 78.2587 71.6568 78.2587C70.5239 78.2587 70.3446 78.2425 70.0349 78.0883ZM73.2053 77.6258C73.6617 77.3499 73.7921 77.0903 73.8328 76.3925C73.8736 75.6946 73.7839 75.5486 73.352 75.5648C72.9689 75.5729 72.8711 75.7028 72.8711 76.2221C72.8711 76.4736 72.8385 76.7251 72.7978 76.7819C72.6918 76.9523 70.6951 76.8874 70.5891 76.717C70.4587 76.5223 70.4832 70.0473 70.6136 69.8769C70.7032 69.7552 70.8499 69.7389 71.7709 69.7552L72.8304 69.7795L72.8711 70.3881C72.9119 70.9885 72.9119 70.9885 73.1727 71.0453C73.3194 71.0696 73.515 71.0534 73.6209 71.0047C73.7839 70.9236 73.8084 70.8425 73.8328 70.3718C73.8654 69.6416 73.7187 69.3251 73.2216 69.0087L72.8304 68.7571L71.6405 68.7815C70.475 68.8058 70.4506 68.8139 70.149 69.0411C69.5052 69.528 69.5296 69.3576 69.5296 73.2523C69.5296 76.9848 69.5378 77.0416 69.9616 77.4311C70.3365 77.78 70.7032 77.853 71.8524 77.8368C72.7896 77.8124 72.9445 77.7881 73.2053 77.6258Z" fill="white"/>
<path id="Vector_17" d="M52.211 74.51C51.9584 74.364 51.9258 74.2828 51.9258 73.6499C51.9258 72.7493 51.9339 72.7411 52.9527 72.7411C53.6291 72.7411 53.8166 72.7655 53.8492 72.8629C53.8736 72.9278 53.9062 73.2929 53.9144 73.6824C53.9225 74.2828 53.8981 74.3883 53.7677 74.4938C53.5721 74.6317 52.4555 74.648 52.211 74.51ZM53.5069 73.9907C53.5802 73.8041 53.5639 73.2848 53.4824 73.1631C53.4417 73.0901 53.2705 73.0657 52.9364 73.0819L52.4555 73.1063L52.4311 73.5039C52.3903 74.0881 52.4229 74.1205 52.9771 74.1205C53.3357 74.1205 53.4661 74.0881 53.5069 73.9907Z" fill="white"/>
<path id="Vector_18" d="M28.0865 61.3815C27.6872 61.3572 27.19 61.2679 26.9944 61.1949C26.7988 61.1218 26.5543 61.0569 26.4402 61.0569C26.3343 61.0569 26.0409 60.9839 25.7882 60.8946C25.5274 60.8054 25.2422 60.7324 25.1444 60.7324C24.9895 60.7324 23.7018 60.3186 22.3 59.8155C18.9829 58.6146 15.1443 56.3021 12.308 53.7786C9.18657 51.0118 6.74971 47.8473 4.88335 44.1473C4.14985 42.6868 3.1963 40.0984 2.86214 38.6622C2.80509 38.4188 2.69914 37.9806 2.61764 37.6885C2.53614 37.3964 2.44649 36.9988 2.41389 36.796C2.38944 36.5931 2.29979 36.155 2.22644 35.8223C2.10419 35.2949 2.08789 34.6539 2.08789 30.8322C2.08789 26.8806 2.10419 26.41 2.23459 26.0124C2.30794 25.769 2.37314 25.4525 2.37314 25.3146C2.37314 24.6574 3.35115 21.3468 4.0765 19.5455C5.1523 16.8598 7.09201 13.6385 8.93392 11.4802C9.84673 10.401 12.2265 8.04794 13.0497 7.39882C13.4327 7.0986 13.9462 6.6929 14.1907 6.49816C16.5705 4.61571 20.6129 2.50606 23.604 1.58106C23.9218 1.48369 24.313 1.35386 24.4842 1.28895C24.6472 1.22404 24.8917 1.17536 25.0139 1.17536C25.1362 1.17536 25.4948 1.09422 25.8208 1.00496C26.3995 0.834567 26.4076 0.834567 26.6766 0.988733C27.0189 1.18347 27.3123 1.61351 27.3123 1.91373C27.3123 2.23018 27.0922 2.35189 26.0735 2.62777C24.2315 3.13084 21.1427 4.47777 19.6105 5.44334C19.1133 5.75979 18.6569 6.03566 18.5917 6.06001C18.4776 6.10058 18.0864 6.38457 16.9617 7.19597C16.0652 7.85321 14.3129 9.42733 13.4979 10.3118C11.4197 12.5675 10.2461 14.2714 8.96652 16.876C8.15967 18.5313 7.62992 19.9188 7.27947 21.3387C6.66821 23.7973 6.68451 23.6756 6.48076 25.5175C6.23626 27.6515 6.27701 28.7144 6.69266 31.8058C7.13276 35.0433 8.48567 38.6054 10.4091 41.5589C12.2184 44.3339 14.2314 46.5004 16.9617 48.6181C18.062 49.4701 20.2136 50.7927 21.7539 51.5554C23.6855 52.521 27.2145 53.6732 29.1623 53.9896C29.7165 54.0789 30.0588 54.2655 30.8249 54.9065C32.1697 56.0425 34.1338 57.4056 34.4191 57.4056C34.7695 57.4056 35.7068 56.7646 37.5895 55.2473C38.2252 54.7361 38.8446 54.2655 38.9587 54.2087C39.0728 54.1519 39.6677 54.0058 40.2708 53.8841C43.7998 53.1782 47.2473 51.7258 50.4176 49.6161C52.1862 48.4396 54.3459 46.5409 55.6744 44.9993C58.1928 42.0701 59.9695 38.8975 61.0942 35.3436C61.3142 34.6295 61.5995 33.4611 61.6647 32.9824C61.6973 32.739 61.7788 32.39 61.844 32.2115C62.1129 31.4732 62.2678 27.9273 62.1211 25.9637C62.064 25.2497 61.9581 24.3734 61.8929 24.0164C61.8195 23.6593 61.7217 23.1319 61.6647 22.8398C61.1757 20.3407 59.9776 17.233 58.6655 15.0747C57.5571 13.2572 57.0599 12.5756 55.5929 10.8716C53.9466 8.95672 51.2489 6.72536 48.9832 5.41088C46.6279 4.04772 45.3564 3.5122 41.7786 2.37623C41.3385 2.2383 41.2244 1.93808 41.4526 1.52426C41.7867 0.923822 42.1779 0.810225 43.1233 1.05365C43.4167 1.12667 43.8079 1.22404 44.0035 1.26461C44.411 1.35387 46.6442 2.15715 47.8096 2.63588C49.2766 3.24444 51.6646 4.54268 53.1071 5.54071C57.0518 8.2508 60.0591 11.4315 62.5204 15.4885C64.4194 18.6286 65.6419 21.996 66.4487 26.2883C66.6199 27.2133 66.6281 27.4486 66.6199 31.0756C66.6118 34.6376 66.6036 34.9379 66.4406 35.6357C66.3428 36.0495 66.2694 36.5201 66.2694 36.6743C66.2694 36.8365 66.2124 37.0881 66.1472 37.2422C66.0901 37.3964 65.9923 37.7534 65.9353 38.0374C65.7723 38.93 64.998 41.3479 64.4275 42.7273C64.0608 43.6361 62.8953 45.9567 62.6019 46.3624C62.5204 46.476 62.2515 46.9061 61.9988 47.3118C60.6378 49.535 58.1113 52.4479 56.0411 54.1762C53.8569 55.9938 51.9172 57.2839 49.6108 58.4604C47.7037 59.426 46.5219 59.8966 44.2236 60.5863C43.9139 60.6837 43.4412 60.8216 43.1804 60.9109C42.9277 60.992 42.6099 61.0569 42.4713 61.0569C42.3409 61.0569 42.0557 61.1218 41.8438 61.2111C41.3874 61.3815 39.3091 61.4951 38.8446 61.3734C38.6897 61.3247 38.323 61.0732 38.0133 60.7892C37.4591 60.278 35.5194 58.8175 34.9488 58.4686C34.5576 58.2332 34.1664 58.29 33.6448 58.6471C32.8054 59.2394 30.7597 60.8054 30.5723 61.0164C30.1485 61.4789 29.9121 61.5113 28.0865 61.3815ZM27.842 59.1258C27.842 57.9736 27.8665 57.714 27.9643 57.6409C28.0376 57.5922 28.5592 57.576 29.3498 57.6085C30.0425 57.6328 31.3139 57.6734 32.1615 57.6977L33.71 57.7464L32.8135 57.1216C31.7785 56.3914 31.1835 55.9451 30.3278 55.2473C29.5535 54.6225 29.3905 54.5414 28.494 54.371C22.8379 53.2837 17.1003 50.2004 13.0415 46.0703C11.982 44.9911 10.8655 43.701 10.3439 42.9464L9.99343 42.4352L9.94453 42.8815C9.92008 43.1249 9.81413 43.4819 9.71633 43.6767C9.54518 44.0093 9.52888 44.0175 9.14582 44.0175C8.77907 44.0175 8.73017 43.9931 8.58347 43.7578C8.50197 43.6118 8.28192 43.2547 8.10262 42.9626C6.72526 40.7313 5.51906 37.7534 5.03006 35.376C4.42695 32.4225 4.4677 32.8444 4.42695 29.8017C4.3862 26.2883 4.45955 25.5418 5.20121 22.4747C5.70651 20.3732 6.26071 18.8883 7.21426 17.0951C8.09447 15.4398 8.90132 14.2471 9.33327 13.9712C9.44738 13.89 9.68373 13.6385 9.85488 13.4032C11.0692 11.7885 13.8973 8.82689 15.3317 7.6747C16.9128 6.41702 17.6708 5.89772 19.7001 4.68062C20.9715 3.9179 23.9707 2.66834 25.6904 2.18961C26.5788 1.93808 26.7744 1.80825 26.4973 1.6622C26.3017 1.55672 25.6171 1.64597 24.8672 1.86505C23.4491 2.27887 22.8949 2.46549 21.8354 2.88742C17.793 4.47777 14.0929 6.93632 11.0122 10.0683C9.13767 11.9751 7.85812 13.6223 6.54596 15.8212C4.98116 18.4258 4.01945 20.7302 3.18815 23.8947C2.56059 26.264 2.51169 26.7346 2.47909 30.6699C2.44649 33.9155 2.46279 34.2319 2.61764 35.2543C3.07405 38.1023 4.13355 41.4291 5.38866 43.9444C6.39111 45.9486 8.16782 48.61 9.61853 50.2653C12.8541 53.9653 17.0514 57.0161 21.2812 58.7201C22.7645 59.3205 24.9569 60.0589 25.4785 60.1319C25.6578 60.1563 25.9268 60.2131 26.0735 60.2618C26.4239 60.3672 27.5568 60.562 27.7198 60.5376C27.8257 60.5295 27.842 60.3104 27.842 59.1258ZM43.8161 59.9615C43.9954 59.9047 44.2725 59.8236 44.4273 59.7993C44.5822 59.7668 45.3646 59.5072 46.1715 59.2232C52.5774 56.935 57.9972 52.594 61.6402 46.8168C63.7837 43.4251 65.2262 39.6278 65.9353 35.5383C66.4732 32.4387 66.3346 27.7569 65.6093 24.7061C64.9817 22.069 64.4683 20.576 63.3354 18.1743C61.6973 14.6852 58.7144 10.8148 55.6907 8.24268C53.5065 6.39268 50.6784 4.59137 48.4209 3.60957C48.0867 3.46351 47.6466 3.27689 47.4429 3.17952C45.8862 2.48983 42.3654 1.51615 42.0638 1.70277C41.909 1.80014 41.9823 1.88128 42.3328 1.97865C43.3923 2.28698 44.6311 2.69268 45.2016 2.91987C49.9775 4.83479 53.7673 7.57733 57.0762 11.5208C57.7527 12.324 58.9426 13.9387 59.1382 14.312C59.2034 14.4499 59.456 14.7826 59.6842 15.0585C60.597 16.1295 61.5587 17.4683 61.8195 18.012C62.6264 19.6835 63.5555 22.7019 63.8652 24.6655C64.2319 27.0267 64.2482 27.3431 64.1993 29.8017C64.1586 31.9357 64.126 32.3251 63.9059 33.5828C63.5636 35.5545 63.205 37.0718 62.822 38.1348C62.5612 38.8488 61.7869 40.6015 61.4854 41.137C61.1757 41.6968 61.1675 41.705 60.8171 41.7293C60.6215 41.7455 60.4259 41.7212 60.377 41.6725C60.3362 41.6319 60.2384 41.2911 60.1569 40.9179L60.0184 40.2444L59.3827 41.2181C58.2009 43.0357 57.7608 43.6523 57.1903 44.342C55.0305 46.9547 52.5285 49.1131 49.6352 50.8576C48.535 51.5229 46.1959 52.6427 45.1201 53.024C44.9 53.1052 44.411 53.2837 44.0361 53.4216C43.3352 53.6732 41.3303 54.2006 40.0834 54.444L39.3662 54.59L38.0866 55.5962C37.3857 56.1561 36.4648 56.8539 36.0328 57.146L35.2585 57.6896L36.1958 57.7139C37.0923 57.7383 39.5129 57.503 40.3034 57.3245C40.6783 57.2352 42.1698 57.219 42.455 57.292C42.6425 57.3488 42.6425 57.3569 42.5854 58.0872C42.5039 59.0122 42.5039 59.9453 42.5854 60.0751C42.6588 60.1887 43.3271 60.1319 43.8161 59.9615Z" fill="white"/>
<path id="Vector_19" d="M34.0769 50.1517C33.4575 49.9164 33.0337 49.7297 32.3654 49.4052C31.6075 49.04 29.8145 47.9852 29.5537 47.758C29.464 47.6769 29.1706 47.4659 28.9017 47.2874C28.2497 46.8655 26.8153 45.6971 25.9513 44.8775C24.4028 43.4251 22.675 41.21 21.2325 38.8488C20.2056 37.1773 18.9586 34.305 18.4615 32.4631C18.0051 30.7835 17.7932 29.9153 17.7443 29.4933C17.7117 29.2499 17.622 28.7955 17.5324 28.4791C17.4509 28.1707 17.3612 27.5865 17.3286 27.1808C17.3042 26.7832 17.2227 26.1017 17.1493 25.6797C16.9619 24.5843 16.9782 15.7725 17.1656 15.4804C17.296 15.2857 18.6408 14.5716 19.9774 13.9874C20.4501 13.7846 20.9065 13.5736 20.9961 13.5249C21.1754 13.4194 21.8926 13.1598 23.3596 12.6811C23.8975 12.5025 24.5088 12.2835 24.7207 12.2023C24.9326 12.1212 25.2015 12.0482 25.3156 12.0482C25.4297 12.0482 25.6987 11.9751 25.9106 11.8859C26.1225 11.7966 26.5137 11.6911 26.7827 11.6425C27.0516 11.6019 27.4754 11.5045 27.7199 11.4396C27.9644 11.3747 28.2904 11.3179 28.4534 11.3179C28.6083 11.3179 28.975 11.2449 29.2521 11.1556C29.5944 11.0501 30.0019 10.9933 30.4502 10.9933C30.8414 10.9933 31.3467 10.9365 31.6482 10.8554C32.398 10.6444 36.2204 10.6444 37.0354 10.8554C37.3451 10.9284 37.8586 10.9933 38.1764 10.9933C38.5024 11.0015 38.9262 11.0339 39.13 11.0826C39.3337 11.1232 39.7331 11.1962 40.0265 11.2449C42.1618 11.6019 44.5171 12.251 46.5709 13.0543C49.668 14.2714 51.1513 15.0098 51.3224 15.4236C51.4039 15.6102 51.4284 16.803 51.4447 20.576L51.461 25.4769L51.2572 25.9637C51.0779 26.4019 51.0616 26.5317 51.0942 27.2782C51.1268 28.0085 51.1105 28.1464 50.9557 28.4385C50.8334 28.6738 50.7845 28.9172 50.7845 29.2986C50.7845 29.6637 50.7356 29.9234 50.6215 30.1425C50.5237 30.3372 50.4585 30.6212 50.4585 30.8727C50.4585 31.0999 50.4096 31.3839 50.3444 31.5056C50.2792 31.6273 50.1733 31.9275 50.0999 32.171C50.0347 32.4144 49.8636 32.9256 49.725 33.3069C49.5865 33.6883 49.4072 34.2157 49.3257 34.4835C49.0241 35.4409 47.8342 37.9319 47.0518 39.2302C46.5058 40.1389 45.4136 41.7212 45.0306 42.1431C44.8513 42.346 44.5253 42.7517 44.3052 43.0438C43.7673 43.7497 42.6345 44.91 41.7217 45.6971C41.3142 46.046 40.7681 46.5166 40.5073 46.7519C40.2547 46.9791 39.9205 47.2306 39.7657 47.3118C39.619 47.3848 39.3663 47.5633 39.2033 47.7093C38.4209 48.4072 35.3239 50.103 34.623 50.2166C34.4844 50.2409 34.2318 50.2166 34.0769 50.1517ZM35.3646 49.178C35.984 48.8696 37.1984 48.0258 37.5326 47.6769C37.72 47.4821 37.7526 47.3767 37.7689 46.8898C37.7934 46.1596 38.0216 45.7701 39.187 44.5043C39.6597 43.9931 40.1487 43.417 40.2873 43.2223L40.5236 42.8815L40.434 40.3824C40.3769 39.0111 40.3525 37.2828 40.3606 36.5444C40.3932 35.2868 40.3851 35.1894 40.2302 35.0352C40.0428 34.8567 39.6271 34.7269 38.967 34.6457C38.1438 34.5484 37.5489 34.3536 36.4404 33.8425C35.8373 33.5585 35.2424 33.2826 35.1201 33.2339C34.9164 33.1609 34.8919 33.1041 34.8919 32.7795C34.8919 32.3819 34.9245 32.3089 35.6173 31.3352L36.0655 30.7023L36.4731 30.7267C36.8398 30.751 36.8806 30.7754 36.9539 30.9944C37.0762 31.3677 37.1903 31.465 38.046 31.8707C38.7143 32.1872 38.9344 32.2521 39.3908 32.2683C39.8635 32.2927 39.9531 32.2683 40.1406 32.0979C40.3199 31.9275 40.3525 31.8302 40.3525 31.4569C40.3525 30.8808 40.0835 30.5887 39.4886 30.5157C37.1006 30.2317 36.2774 29.9072 35.7477 29.0552C35.5113 28.6657 35.5032 28.6251 35.5032 27.6352C35.5032 26.6534 35.5113 26.5966 35.7477 26.1747C36.2937 25.1929 37.5407 24.4626 39.1707 24.1786C40.0998 24.0164 40.0835 24.0407 39.9939 22.4828C39.9287 21.2819 39.9368 21.1846 40.0835 20.9817C40.6948 20.1622 45.4381 17.6306 49.6272 15.9023C50.0918 15.7076 50.4748 15.521 50.483 15.4885C50.5074 15.3749 48.6329 14.4824 47.3045 13.9631C45.1854 13.1354 44.6638 12.965 43.0338 12.5512C40.491 11.9021 39.0566 11.6668 36.6442 11.5126C33.5227 11.3179 32.4469 11.5126 30.3768 12.6324C30.2383 12.7054 29.8715 12.8109 29.5537 12.8596C29.244 12.9082 28.7061 13.0381 28.3719 13.1436C28.0378 13.2572 26.8805 13.6142 25.8046 13.9387C23.6775 14.596 22.0312 15.2126 20.5071 15.9267C19.6269 16.3405 19.4721 16.3892 18.9994 16.3892C18.5919 16.3892 18.3718 16.3405 18.0377 16.1782C17.6302 15.9754 17.6057 15.9754 17.5324 16.1133C17.402 16.3567 17.4346 23.2861 17.5731 24.99C17.7117 26.6859 17.8258 27.5703 17.9806 28.1951C18.0377 28.4385 18.111 28.828 18.1436 29.0471C18.2088 29.542 18.6897 31.465 18.9994 32.455C19.9937 35.6681 21.7948 39.003 23.8812 41.5021C24.9326 42.7679 25.6172 43.5063 26.1143 43.9201L26.5382 44.269L26.7093 44.0499C26.8397 43.8957 26.9864 43.8227 27.2554 43.7984C27.6873 43.7497 28.0133 43.9039 29.0239 44.6747C30.1649 45.5348 31.6075 46.4192 33.05 47.1332C34.191 47.7012 34.517 47.896 34.5822 48.0664C34.6556 48.2368 34.6963 48.6262 34.7289 49.3971C34.7289 49.4863 34.7778 49.4701 35.3646 49.178ZM41.8602 33.8343C43.0909 33.4124 44.0281 32.7065 44.3623 31.96C44.5823 31.465 44.5742 30.8808 44.346 30.3047C44.1259 29.7368 43.9303 29.5339 43.3354 29.2337C42.716 28.9172 41.9825 28.7874 40.3932 28.6819C38.2824 28.544 37.5326 28.3168 37.2881 27.7326C37.1088 27.3188 37.1984 26.9536 37.5733 26.5804C38.0623 26.0936 38.6573 25.9069 39.8227 25.8664C41.3223 25.8096 42.4063 26.1341 42.9605 26.7995C43.0909 26.9536 43.2294 27.0591 43.2702 27.0267C43.3517 26.978 43.8651 26.0854 43.9548 25.8339C43.9955 25.7203 43.8488 25.6473 43.1398 25.412C41.5994 24.9008 41.2816 24.844 40.2302 24.8359C39.1137 24.8278 38.6247 24.9251 37.7445 25.3308C37.0762 25.6311 36.3753 26.2396 36.1063 26.7508C35.8862 27.1808 35.8944 28.0247 36.1226 28.5034C36.5138 29.2905 37.8341 29.7773 39.8635 29.8666C41.6646 29.9477 42.4144 30.1019 42.8219 30.467C43.0664 30.6861 43.0827 30.7267 43.0827 31.2703C43.0827 31.8221 43.0746 31.8464 42.7649 32.1629C42.1944 32.7471 41.4527 32.9743 40.108 32.9824C39.1137 32.9824 38.372 32.812 37.4348 32.3657C37.0028 32.1547 36.7746 31.9925 36.6198 31.7653C36.4975 31.5868 36.3752 31.4488 36.3426 31.4407C36.2693 31.4407 35.5439 32.5199 35.5439 32.6416C35.5439 32.6903 35.6417 32.7633 35.7721 32.7876C35.8944 32.8201 36.2122 32.9661 36.4812 33.1122C37.0843 33.4449 37.9482 33.7775 38.6002 33.9236C39.293 34.0778 41.306 34.0291 41.8602 33.8343ZM40.0183 27.8056C40.1406 27.5703 40.0265 26.9861 39.8064 26.767C39.6597 26.621 39.5212 26.5723 39.2685 26.5723C38.8366 26.5723 38.1275 26.8968 37.9401 27.1727C37.8097 27.3756 37.8097 27.3999 37.9482 27.546C38.1683 27.7894 38.6736 27.9192 39.4723 27.9436C39.8472 27.9517 39.9531 27.9192 40.0183 27.8056Z" fill="white"/>
<path id="Vector_20" d="M27.8828 34.4754C26.8233 34.3618 25.9676 34.1021 24.7532 33.5017C24.2642 33.2582 23.816 33.0635 23.7426 33.0635C23.6448 33.0635 23.6285 32.9905 23.6693 32.6903C23.6937 32.4144 23.8241 32.1466 24.1746 31.6354C24.631 30.962 24.6391 30.9539 24.9814 30.9539C25.2911 30.9539 25.34 30.9782 25.446 31.2216C25.6008 31.5705 26.3751 32.0736 27.1493 32.3332C27.6628 32.5036 27.9073 32.5361 28.6978 32.528C29.7899 32.528 30.3767 32.3495 30.9065 31.8707C31.2651 31.5462 31.3629 31.2946 31.2244 31.0431C30.988 30.605 30.3278 30.4183 28.5756 30.3047C26.8967 30.1911 26.155 30.0532 25.5112 29.7368C24.5413 29.258 24.2887 28.8604 24.2316 27.7813C24.1827 26.8806 24.3376 26.4019 24.8429 25.842C25.5927 25.0144 26.7744 24.5681 28.4207 24.487C29.5047 24.4383 30.1404 24.5357 31.3466 24.9332C31.7786 25.0793 32.1779 25.1523 32.5284 25.1523H33.0581L33.0826 25.5093C33.107 25.7933 33.05 25.9881 32.8136 26.4425C32.3083 27.3999 32.1698 27.546 31.7541 27.546C31.4444 27.546 31.3874 27.5135 31.2407 27.2701C30.9962 26.8563 30.2137 26.3613 29.6106 26.2477C29.0564 26.1341 27.8584 26.1747 27.3775 26.3207C26.9945 26.4425 26.4158 26.8725 26.2528 27.1646C26.1061 27.4243 26.1795 27.5784 26.5788 27.8462C27.0271 28.1545 27.3694 28.2113 29.0646 28.2762C30.8494 28.3411 31.5178 28.4547 32.2757 28.8442C32.8381 29.1201 33.0255 29.3229 33.2945 29.899C33.4738 30.2804 33.5064 30.4589 33.5064 31.1161C33.5064 31.7977 33.4819 31.9438 33.27 32.3738C32.8625 33.2339 31.7867 33.9966 30.5235 34.305C30.0426 34.4267 28.4289 34.524 27.8828 34.4754ZM30.173 33.8343C30.8331 33.6721 31.4444 33.38 32.0149 32.9499C32.9277 32.2602 33.2374 31.2865 32.8544 30.2885C32.4713 29.2905 31.2488 28.8442 28.5348 28.7144C27.728 28.6819 27.1901 28.6089 26.8233 28.5034C25.177 28.0003 25.3971 26.5236 27.2145 25.915C27.6709 25.7609 27.9236 25.7284 28.7467 25.7365C29.3743 25.7446 29.8877 25.7933 30.1567 25.8745C30.7272 26.0449 31.42 26.4425 31.6563 26.7508L31.8519 26.9942L32.1698 26.4425C32.3409 26.1341 32.4876 25.8501 32.4876 25.8096C32.4876 25.7365 32.1209 25.6229 30.4093 25.1523C29.4802 24.8927 28.111 24.8764 27.1982 25.1118C26.0654 25.3957 25.1526 26.0205 24.7695 26.767C24.5332 27.2295 24.5821 28.2032 24.8673 28.6332C25.3156 29.2986 26.9374 29.8098 28.5837 29.8179C30.2382 29.8179 31.4118 30.1343 31.6808 30.6455C31.8356 30.9457 31.8275 31.5868 31.6482 31.9194C31.4607 32.2927 30.8413 32.6984 30.1485 32.9093C29.6514 33.0635 29.4395 33.0797 28.543 33.0392C27.0923 32.9824 26.0654 32.6172 25.2748 31.8789C24.9162 31.5462 24.8836 31.53 24.7695 31.6679C24.5006 31.9925 24.2235 32.4955 24.2561 32.5929C24.3131 32.7308 25.6334 33.3556 26.4973 33.6477C27.5976 34.021 29.0809 34.094 30.173 33.8343Z" fill="white"/>
</g>
<g id="Group_2">
<path id="Vector_21" d="M0.930525 78.0155C0.653424 77.9019 0.628973 78.1129 1.42768 74.2425C1.59068 73.4879 1.75368 72.717 1.79443 72.5385C1.84333 72.36 1.94928 71.8488 2.04708 71.4025C2.21823 70.5993 2.34863 70.0232 2.53608 69.1874C2.67463 68.5707 2.75613 68.5221 3.56299 68.5221C4.37799 68.5221 4.49209 68.5951 4.63879 69.2523C4.68769 69.4957 4.91589 70.5749 5.1441 71.646C5.65755 74.1289 6.01615 75.776 6.21175 76.5874C6.29325 76.9444 6.3666 77.415 6.3666 77.626V78.0236L5.6983 77.9993L5.02184 77.9749L4.88329 77.4475C4.80179 77.1554 4.67954 76.8714 4.59804 76.8227C4.50839 76.7497 4.14979 76.7172 3.54669 76.7172C2.65833 76.7172 2.62573 76.7254 2.46273 76.9282C2.37308 77.0418 2.27528 77.2933 2.25083 77.48C2.21823 77.6747 2.16933 77.8694 2.13673 77.9181C2.06338 78.0398 1.15058 78.1129 0.930525 78.0155ZM1.77813 77.5124C1.82703 77.4718 1.90038 77.2365 1.93298 76.9931C2.01448 76.3359 2.07153 76.3115 3.59559 76.3115C4.28834 76.3115 4.89959 76.344 4.94849 76.3765C5.0789 76.4576 5.193 76.7091 5.2582 77.0337C5.33155 77.4475 5.519 77.6909 5.75535 77.6909C5.99985 77.6909 5.99985 77.7396 5.78795 76.7903C5.69015 76.3683 5.5679 75.7679 5.51085 75.4433C5.44565 75.1269 5.36415 74.7293 5.31525 74.5508C5.1767 74.064 4.82624 72.4493 4.68769 71.6865C4.61434 71.3133 4.54914 70.9806 4.53284 70.9563C4.51654 70.9238 4.41874 70.5262 4.32094 70.0556C4.09274 68.9197 4.09274 68.9278 3.54669 68.9278C3.16364 68.9278 3.09029 68.9521 3.02509 69.1144C2.95173 69.2848 2.84578 69.7797 2.03893 73.6745C1.86778 74.5264 1.60698 75.7436 1.46843 76.3846C1.26468 77.3096 1.23208 77.5611 1.31358 77.6098C1.42768 77.6747 1.60698 77.6422 1.77813 77.5124Z" fill="white"/>
<path id="Vector_22" d="M2.55241 75.6462C2.43016 75.5245 2.42201 74.3804 2.54426 74.064C2.59316 73.9422 2.68281 73.5447 2.74801 73.1876C3.07401 71.3295 3.19626 71.0374 3.68526 71.0374C3.85641 71.0374 4.01126 71.0618 4.03571 71.1023C4.10906 71.224 4.81812 74.8591 4.81812 75.135C4.81812 75.6543 4.63067 75.7436 3.57116 75.7436C2.95991 75.7436 2.61761 75.7111 2.55241 75.6462ZM4.30467 75.1188C4.35357 74.989 4.28837 74.5508 4.03571 73.2688C3.97866 72.9604 3.88086 72.4736 3.83196 72.1977C3.77491 71.9137 3.70971 71.6865 3.67711 71.6865C3.57116 71.6865 3.38371 72.2545 3.18811 73.1471C3.09031 73.6177 2.95991 74.1857 2.89471 74.421C2.82951 74.6482 2.78061 74.9322 2.78061 75.0457V75.2567H3.51411C4.13352 75.2567 4.26392 75.2324 4.30467 75.1188Z" fill="white"/>
<path id="Vector_23" d="M8.54283 78.0155C8.21682 77.9749 8.00492 77.8938 7.86637 77.764C7.42627 77.3583 7.42627 77.3339 7.42627 74.4453V71.7677L7.63817 71.6866C7.93972 71.573 8.34722 71.5892 8.53468 71.719C8.68138 71.8326 8.68953 71.9787 8.73028 74.2425C8.76288 76.2548 8.78733 76.6523 8.89328 76.7173C8.95848 76.7578 9.26003 76.7984 9.55343 76.7984C9.97723 76.7984 10.1076 76.7659 10.1484 76.6686C10.1728 76.5956 10.1973 75.4677 10.1973 74.1613C10.1973 72.6197 10.2299 71.7596 10.2788 71.7271C10.3277 71.6947 10.564 71.6541 10.8004 71.6298C11.1753 71.5892 11.2649 71.6135 11.4198 71.7677L11.5991 71.9462L11.5665 74.8916C11.5502 77.0418 11.5176 77.8695 11.4442 77.9425C11.322 78.0642 10.4255 78.0561 10.1973 77.9344C10.0913 77.8776 9.98538 77.8776 9.89573 77.9263C9.66753 78.048 9.05628 78.0885 8.54283 78.0155ZM9.69198 77.4556C9.93648 77.3258 10.3358 77.342 10.564 77.4962C10.8656 77.6909 11.0449 77.6179 11.1101 77.2447C11.1753 76.8552 11.1753 74.2749 11.1019 73.0254C11.053 72.1409 11.053 72.1328 10.8493 72.1328H10.6455L10.6048 74.5346C10.5722 76.4738 10.5396 76.9607 10.4418 77.0743C10.344 77.2041 10.2054 77.2203 9.40673 77.1879C8.90143 77.1717 8.45317 77.123 8.40427 77.0743C8.32277 76.9931 8.24942 75.1837 8.24127 72.9686C8.24127 72.1491 8.23312 72.0923 8.07827 72.0923C7.76857 72.0923 7.74412 72.3276 7.76857 74.632C7.79302 76.7903 7.80117 76.8471 7.98047 77.1067C8.37167 77.6423 9.07258 77.7883 9.69198 77.4556Z" fill="white"/>
<path id="Vector_24" d="M17.6135 78.0155C17.2712 77.9181 17.043 77.7477 16.8556 77.4475C16.6844 77.1716 16.6763 77.0905 16.6763 74.851C16.6763 72.6846 16.6844 72.5223 16.8393 72.2707C17.149 71.7596 17.4424 71.6541 18.6323 71.6216C19.6103 71.5973 19.7162 71.6054 20.0504 71.7839C20.7513 72.1409 20.7513 72.1409 20.7757 74.5508C20.792 75.7192 20.7839 76.8308 20.7513 77.0174C20.6942 77.4069 20.3845 77.8207 20.0667 77.9506C19.814 78.0479 17.9069 78.1047 17.6135 78.0155ZM19.8466 77.5043C19.9689 77.4232 20.14 77.2446 20.2215 77.0986C20.3682 76.8633 20.3845 76.6767 20.3845 74.8023C20.3845 72.855 20.3764 72.7495 20.2134 72.5466C19.8792 72.1247 19.2272 71.9543 18.29 72.0598C17.8336 72.1085 17.7032 72.1571 17.4587 72.3843L17.1653 72.644L17.1408 74.7049C17.1245 75.8328 17.1327 76.8308 17.1571 76.9282C17.2223 77.1716 17.5891 77.5205 17.8906 77.6098C18.3144 77.7396 19.594 77.6666 19.8466 77.5043Z" fill="white"/>
<path id="Vector_25" d="M17.7442 77.0256C17.6301 76.8714 17.6138 76.5225 17.6138 74.8105C17.6138 73.6745 17.6464 72.7252 17.6953 72.6602C17.8012 72.4899 19.5616 72.4817 19.7572 72.6521C19.8795 72.7495 19.8958 73.0091 19.8958 74.8591C19.8958 77.3745 19.9854 77.2041 18.6977 77.2041C17.9316 77.2041 17.8583 77.1879 17.7442 77.0256ZM19.4149 76.628C19.5046 76.482 19.5127 73.0903 19.4149 73.0335C19.3742 73.0091 19.0808 72.9767 18.7548 72.9686C17.9235 72.9523 17.9398 72.9037 17.9398 74.8673C17.9398 76.3927 17.9479 76.482 18.1109 76.6442C18.2576 76.7903 18.3554 76.8146 18.8118 76.7822C19.1541 76.7578 19.366 76.7092 19.4149 76.628Z" fill="white"/>
<path id="Vector_26" d="M25.9267 78.0074C25.5436 77.9262 25.2584 77.6909 25.0546 77.2852C24.8998 76.9931 24.8672 76.7903 24.8672 76.2223C24.8672 75.3784 24.9079 75.3297 25.6007 75.3135C26.0408 75.2973 26.1223 75.3216 26.2608 75.4839C26.3668 75.6137 26.4075 75.7841 26.3994 76.0276C26.3749 76.5631 26.4809 76.6361 27.3041 76.6361C27.7442 76.6361 28.0539 76.5955 28.1109 76.5387C28.168 76.4819 28.2087 76.1817 28.2087 75.7517V75.062L26.7009 73.569C24.9324 71.8083 24.8672 71.7028 24.8672 70.4208C24.8672 69.3659 25.0872 68.9359 25.7881 68.6438C26.2282 68.4653 28.5184 68.4653 28.8852 68.6519C29.5535 68.9927 29.7572 69.3903 29.7572 70.3802C29.7572 71.2159 29.7409 71.2322 29.04 71.3295C28.6651 71.3782 28.6081 71.362 28.4206 71.1754C28.2495 71.005 28.2087 70.8833 28.2087 70.5749C28.2087 69.9826 28.1843 69.9745 27.2714 69.9988L26.4646 70.0232L26.3994 70.3072C26.2527 70.9401 26.326 71.0536 27.9235 72.6602C29.7491 74.5102 29.7572 74.5183 29.7572 75.9626C29.7572 76.9769 29.7491 77.0256 29.5209 77.3745C29.146 77.9749 28.8852 78.0561 27.4181 78.0561C26.7417 78.0561 26.0652 78.0317 25.9267 78.0074ZM28.6733 77.5043C28.8118 77.4313 29.0156 77.2365 29.1215 77.0662C29.2845 76.7903 29.309 76.6686 29.3008 75.9464C29.2927 75.419 29.2438 75.0295 29.1623 74.8348C29.0808 74.6482 28.494 74.0072 27.5648 73.0903C26.758 72.2951 26.0571 71.5405 26.0163 71.4188C25.9674 71.289 25.9267 70.9157 25.9267 70.583C25.9267 69.9988 26.0082 69.6824 26.2038 69.5607C26.2527 69.5282 26.7417 69.4958 27.2796 69.4958C28.5347 69.4958 28.6325 69.5526 28.6977 70.3234C28.7385 70.8102 28.7466 70.8346 28.9585 70.8589C29.1378 70.8833 29.203 70.8427 29.2601 70.6804C29.3742 70.4045 29.2519 69.7311 29.04 69.439C28.7222 68.9927 28.4125 68.9115 27.1899 68.944C26.1141 68.9683 26.0978 68.9683 25.7881 69.2199C25.4214 69.512 25.2828 69.8528 25.2828 70.4694C25.2747 71.3458 25.3236 71.435 26.9454 73.0659C27.7605 73.8936 28.494 74.6887 28.5755 74.8429C28.6896 75.0701 28.7059 75.2811 28.6814 75.9708C28.6407 77.1067 28.6244 77.1229 27.2959 77.1229C26.3749 77.1229 26.3179 77.1148 26.1304 76.9201C25.9674 76.7659 25.9267 76.6361 25.9267 76.3359C25.9267 75.8653 25.8452 75.7192 25.6007 75.7598C25.3154 75.8004 25.2421 75.987 25.3073 76.5063C25.3806 77.058 25.6333 77.3907 26.1304 77.5692C26.595 77.7396 28.3147 77.699 28.6733 77.5043Z" fill="white"/>
<path id="Vector_27" d="M31.8519 77.983C31.4526 77.837 31.2325 77.6422 31.0858 77.2933C30.8984 76.8552 30.9147 72.7738 31.1021 72.3843C31.3955 71.7758 31.8112 71.6135 33.0989 71.6135C34.1828 71.6054 34.574 71.7352 34.9 72.1815L35.0956 72.4574V74.8104C35.0956 77.0337 35.0875 77.1797 34.9326 77.4475C34.6392 77.9425 34.3458 78.0479 33.1804 78.0723C32.4632 78.0885 32.072 78.0642 31.8519 77.983ZM34.1502 77.4881C34.6881 77.1716 34.7289 76.9931 34.7289 74.851C34.7289 72.7089 34.6881 72.5223 34.1584 72.214C33.7427 71.9786 32.3735 71.9786 31.966 72.214C31.4281 72.5304 31.3874 72.7089 31.3874 74.8348C31.3874 76.5793 31.4037 76.7497 31.5585 77.0499C31.8112 77.5449 32.2105 77.7072 33.1396 77.6666C33.6938 77.6504 33.9465 77.6017 34.1502 77.4881Z" fill="white"/>
<path id="Vector_28" d="M32.1042 77.1148C31.9738 77.0418 31.9575 76.8471 31.9575 74.851C31.9575 72.7738 31.9657 72.6602 32.1124 72.5791C32.202 72.5385 32.6421 72.4979 33.0904 72.4979C34.3129 72.4979 34.2395 72.3519 34.2395 74.851C34.2395 77.3501 34.3129 77.2041 33.0822 77.2041C32.6177 77.2041 32.1776 77.1635 32.1042 77.1148ZM33.6527 76.6686C33.832 76.5468 33.832 76.5063 33.832 74.8591C33.832 73.5041 33.8076 73.1471 33.7179 73.074C33.6446 73.0091 33.3675 72.9848 32.96 73.001L32.3243 73.0253L32.2998 74.7861C32.2835 76.3034 32.2998 76.555 32.4139 76.6686C32.5851 76.8471 33.4001 76.8471 33.6527 76.6686Z" fill="white"/>
<path id="Vector_29" d="M37.2962 78.0074C37.1658 77.9506 36.962 77.837 36.8642 77.7396C36.4486 77.3664 36.4404 77.3177 36.4404 74.4453V71.7677L36.6686 71.6784C36.8887 71.5892 37.5407 71.6216 37.6466 71.7271C37.6792 71.7515 37.72 72.8712 37.7444 74.21C37.777 76.2548 37.8015 76.6523 37.9074 76.7173C37.9726 76.7578 38.2742 76.7984 38.5676 76.7984C38.9914 76.7984 39.1218 76.7659 39.1625 76.6686C39.187 76.5956 39.2114 75.4677 39.2114 74.1613C39.2114 72.5548 39.2359 71.7596 39.3011 71.7271C39.4559 71.6298 40.3117 71.5973 40.4339 71.6784C40.5399 71.7515 40.5562 72.1977 40.5562 74.8429C40.5562 76.5388 40.5317 77.9425 40.4991 77.9749C40.4095 78.0642 39.407 78.0399 39.2196 77.9344C39.0973 77.8695 38.9995 77.8695 38.8773 77.9344C38.6328 78.0642 37.5896 78.1129 37.2962 78.0074ZM38.6735 77.48C38.8854 77.3339 39.3744 77.342 39.57 77.4881C39.8227 77.6747 40.0998 77.6423 40.1894 77.4151C40.2791 77.1798 40.2465 72.3357 40.1568 72.1896C40.0672 72.0517 39.7249 72.0679 39.6678 72.2221C39.6434 72.2951 39.6189 73.3581 39.6189 74.5995C39.6189 77.4151 39.7004 77.2285 38.4616 77.1879C37.6874 77.1635 37.5488 77.1392 37.451 77.0094C37.3614 76.8795 37.3369 76.417 37.3369 74.6563C37.3369 73.4473 37.3125 72.3763 37.288 72.2789C37.231 72.0598 36.8968 72.0192 36.8153 72.2221C36.7909 72.2951 36.7664 73.3175 36.7664 74.494C36.7664 76.4414 36.7827 76.6686 36.9213 76.9445C37.0028 77.1067 37.1413 77.3015 37.2228 77.3826C37.5651 77.6828 38.3068 77.7396 38.6735 77.48Z" fill="white"/>
<path id="Vector_30" d="M42.0314 77.9911C41.901 77.8938 41.8928 77.6422 41.8765 74.8672C41.8684 72.6683 41.8928 71.8245 41.958 71.7596C42.0151 71.7028 42.2433 71.646 42.4715 71.6216C42.7893 71.5973 42.9197 71.6135 43.042 71.7271C43.1887 71.8569 43.2213 71.8569 43.5799 71.7352C44.2563 71.508 44.729 71.5973 44.7616 71.9705C44.7942 72.2788 44.7535 72.7008 44.6801 72.8144C44.6312 72.8874 44.3949 72.9361 43.9711 72.9523C43.4821 72.9685 43.3109 73.0091 43.2294 73.1146C43.1479 73.2282 43.1235 73.8286 43.1235 75.5975V77.9343L42.9116 78.0155C42.6263 78.1291 42.2025 78.1128 42.0314 77.9911ZM42.7486 77.4799C42.773 77.4069 42.7975 76.3196 42.7975 75.0538C42.7975 72.36 42.7486 72.4979 43.7021 72.4979C44.2971 72.4979 44.5416 72.3681 44.3052 72.1734C44.1993 72.0841 44.1015 72.0922 43.7429 72.1977C43.205 72.3681 42.9116 72.3762 42.8138 72.2058C42.773 72.1328 42.6671 72.0922 42.5448 72.1085L42.3492 72.1328L42.3248 74.7699C42.3166 76.2223 42.3248 77.4475 42.3492 77.5043C42.3981 77.6503 42.6915 77.6341 42.7486 77.4799Z" fill="white"/>
<path id="Vector_31" d="M46.3751 78.0155C46.041 77.9181 45.7313 77.6828 45.6009 77.4313C45.4949 77.2284 45.4705 76.7659 45.4623 74.8672C45.446 72.2626 45.446 72.2464 46.0328 71.8488C46.3018 71.6703 46.424 71.646 47.3939 71.6216C48.38 71.5973 48.486 71.6054 48.8283 71.7839C49.3907 72.076 49.5618 72.3925 49.5618 73.1633C49.5618 74.0477 49.5129 74.1207 48.9098 74.1207C48.6164 74.1207 48.4045 74.0802 48.3637 74.0234C48.3311 73.9666 48.2822 73.715 48.2578 73.4716L48.217 73.0253L47.5813 73.001C47.1738 72.9848 46.8967 73.0091 46.8234 73.074C46.7337 73.1471 46.7093 73.5041 46.7093 74.8591C46.7093 76.5063 46.7093 76.5468 46.8886 76.6686C47.1005 76.8146 47.8584 76.8471 48.1029 76.7172C48.217 76.6523 48.2578 76.5468 48.2578 76.2629C48.2578 75.6705 48.3474 75.5813 48.9098 75.5813C49.5048 75.5813 49.5618 75.6624 49.5618 76.4738C49.5618 77.3745 49.2847 77.8289 48.6245 78.0074C48.2578 78.1047 46.693 78.1128 46.3751 78.0155ZM48.4778 77.5286C48.9179 77.3339 49.1543 76.9607 49.1543 76.4576C49.1543 76.0438 49.0809 75.9464 48.8283 76.0275C48.6979 76.0681 48.6653 76.1493 48.6653 76.4657C48.6653 77.0905 48.5675 77.1554 47.6302 77.1879C47.1901 77.2041 46.7337 77.1797 46.6115 77.131L46.3833 77.0418V74.851V72.6602L46.5952 72.5791C46.7093 72.5304 47.1494 72.4979 47.5732 72.4979C48.5023 72.4979 48.6653 72.6034 48.6653 73.1795C48.6653 73.5609 48.8201 73.7637 49.0402 73.6826C49.1543 73.642 49.1706 73.5528 49.1298 73.1795C49.0402 72.2951 48.6897 72.0517 47.4835 72.0517C46.7826 72.0517 46.6278 72.076 46.3751 72.2302C45.9106 72.5142 45.878 72.6683 45.8372 74.6482C45.7802 76.9688 45.8698 77.3177 46.587 77.5692C47.076 77.7396 48.0622 77.7234 48.4778 77.5286Z" fill="white"/>
<path id="Vector_32" d="M51.8521 78.0074C51.4527 77.9263 51.1919 77.7072 51.0045 77.3015C50.8333 76.9444 50.8252 76.7984 50.8252 74.8105C50.8252 72.7089 50.8252 72.7008 51.0289 72.3438C51.3631 71.7515 51.6239 71.6541 52.8627 71.6216C53.8407 71.5973 53.9548 71.6135 54.2808 71.7839C54.9573 72.1328 54.9817 72.214 54.9817 73.9666C54.9817 75.2486 54.9573 75.5164 54.8595 75.5813C54.7943 75.6219 54.2156 75.6624 53.5799 75.6624C52.227 75.6624 52.1211 75.7111 52.1944 76.2629C52.2596 76.7416 52.39 76.7984 53.4169 76.7984C54.5172 76.7984 54.615 76.8471 54.615 77.3502C54.615 78.0236 54.5579 78.0561 53.2458 78.0561C52.6182 78.0561 51.9906 78.0317 51.8521 78.0074ZM54.0445 77.5692C54.2808 77.2852 54.0934 77.2203 53.0339 77.1879C52.4145 77.1717 51.9744 77.1311 51.9255 77.0743C51.8684 77.0175 51.8113 76.6848 51.7869 76.3278C51.7461 75.7923 51.7625 75.63 51.8766 75.4596C52.007 75.2567 52.0151 75.2567 53.2132 75.2567C54.0445 75.2567 54.452 75.2243 54.5172 75.1594C54.5824 75.0945 54.615 74.6969 54.615 73.9098C54.615 72.8712 54.5987 72.7414 54.4438 72.5466C54.1341 72.1491 53.8326 72.0517 52.9442 72.0517C52.0151 72.0517 51.6972 72.1734 51.4364 72.6034C51.2897 72.8388 51.2734 73.0254 51.2734 74.8348C51.2734 77.196 51.306 77.3015 52.064 77.5773C52.5041 77.7315 53.9141 77.7315 54.0445 77.5692Z" fill="white"/>
<path id="Vector_33" d="M51.9988 74.6157C51.8195 74.4697 51.8032 74.4047 51.8032 73.6015C51.8032 73.0091 51.8358 72.717 51.9092 72.644C51.9744 72.5791 52.3085 72.5304 52.8464 72.5142C53.5962 72.4898 53.7022 72.4979 53.9059 72.6602C54.1178 72.8306 54.126 72.855 54.126 73.6339C54.126 74.7212 54.0771 74.7699 52.9768 74.7699C52.3248 74.7699 52.1537 74.7455 51.9988 74.6157ZM53.5229 74.2425C53.6533 74.1532 53.6777 74.0396 53.6533 73.6339C53.6451 73.358 53.6125 73.0984 53.5881 73.0578C53.5636 73.0172 53.2702 72.9848 52.9442 72.9848C52.4308 72.9848 52.3248 73.0091 52.2515 73.139C52.1537 73.3175 52.1455 73.9585 52.2352 74.0883C52.4145 74.3561 53.2376 74.4534 53.5229 74.2425Z" fill="white"/>
<path id="Vector_34" d="M59.2683 77.9668C59.0972 77.8451 59.0972 77.8208 59.0972 73.2688C59.0972 68.8223 59.1053 68.6844 59.252 68.6032C59.4476 68.4977 60.2382 68.4977 60.4012 68.6032C60.5071 68.6681 60.5316 69.228 60.5642 72.5791C60.5968 75.9302 60.6212 76.4901 60.7272 76.555C60.7924 76.5955 61.3384 76.6361 61.9252 76.6361C62.9766 76.6361 63.0092 76.6442 63.1396 76.8309C63.2374 76.985 63.2537 77.1311 63.2129 77.4881C63.164 77.8776 63.1233 77.9587 62.944 78.0236C62.838 78.0642 61.9986 78.0966 61.0939 78.0885C59.7818 78.0804 59.4069 78.0561 59.2683 77.9668ZM62.7239 77.5611C62.7973 77.4881 62.8462 77.3664 62.8299 77.2934C62.8054 77.1798 62.6261 77.1554 61.5992 77.123C60.5234 77.0905 60.3767 77.0662 60.2708 76.9282C60.173 76.7903 60.1567 76.1168 60.1567 72.9361C60.1567 68.8061 60.1648 68.8791 59.7329 68.944L59.5454 68.9684L59.521 73.2039C59.5047 76.9688 59.521 77.4475 59.6351 77.5611C59.8225 77.7559 62.5283 77.7559 62.7239 77.5611Z" fill="white"/>
<path id="Vector_35" d="M64.2645 77.9749C64.1178 77.8694 64.1096 77.6504 64.0852 73.3824C64.0607 68.1326 64.0037 68.4977 64.8676 68.5383C65.3484 68.5626 65.4218 68.587 65.5114 68.7655C65.5929 68.9197 65.6174 69.8609 65.6174 72.717C65.6174 76.344 65.6255 76.4738 65.7722 76.555C65.8619 76.5955 66.4242 76.6361 67.0273 76.6361C68.2906 76.6361 68.2254 76.5955 68.2254 77.4151C68.2254 77.9019 68.2091 77.9425 68.0135 78.0155C67.6712 78.1453 64.4438 78.1129 64.2645 77.9749ZM67.769 77.6422C67.8423 77.6098 67.8994 77.4962 67.8994 77.3664V77.1311L66.6769 77.1067C65.7315 77.0905 65.4299 77.058 65.3403 76.9607C65.2425 76.8552 65.2099 76.2304 65.1773 73.0254C65.1528 70.9319 65.1365 69.1469 65.1284 69.0657C65.1284 68.944 65.0713 68.9197 64.8676 68.944L64.5986 68.9683L64.5742 73.2282C64.566 75.5732 64.5742 77.5368 64.5986 77.5936C64.6231 77.6666 65.0061 77.6909 66.139 77.6909C66.9621 77.6909 67.6956 77.6666 67.769 77.6422Z" fill="white"/>
<path id="Vector_36" d="M70.2383 77.983C70.059 77.9181 69.8308 77.7802 69.7167 77.6747C69.2848 77.2852 69.2848 77.2528 69.2848 73.2525C69.2848 69.0819 69.2603 69.2848 69.9042 68.7979L70.2057 68.5626L71.6402 68.5383L73.0746 68.5139L73.4658 68.7655C74.0037 69.0982 74.1015 69.374 74.077 70.3721C74.0526 71.151 74.0526 71.1591 73.8162 71.2727C73.6369 71.3539 73.4658 71.3701 73.1235 71.3133L72.6671 71.2403L72.6263 70.6317L72.5856 70.0232L71.7706 69.9988C71.0778 69.9826 70.9393 69.9988 70.8578 70.1205C70.7274 70.2909 70.7029 76.2791 70.8333 76.4738C70.9392 76.6442 72.447 76.701 72.553 76.5468C72.5937 76.4819 72.6263 76.2304 72.6263 75.9789C72.6263 75.4028 72.7323 75.3054 73.3598 75.2973C74.077 75.2973 74.1178 75.3622 74.077 76.3927C74.0444 77.3501 73.9548 77.5611 73.4495 77.8694C73.1805 78.0398 73.042 78.056 71.8521 78.0723C70.8903 78.0885 70.4665 78.0642 70.2383 77.983ZM73.1235 77.4637C73.5065 77.2284 73.6858 76.8552 73.6858 76.2791C73.6858 75.8653 73.6695 75.8247 73.4821 75.776C73.1235 75.6868 73.0338 75.7841 73.0338 76.2304C73.0338 76.6442 72.936 76.9444 72.7567 77.058C72.6508 77.131 71.1185 77.1392 70.7681 77.0743C70.6214 77.0418 70.491 76.9525 70.4339 76.8308C70.3769 76.6929 70.3443 75.5569 70.3443 73.2363C70.3443 70.4451 70.3606 69.8203 70.4584 69.6905C70.5643 69.5525 70.6947 69.5363 71.5261 69.512C72.9197 69.4714 72.936 69.4795 73.0257 70.299C73.0827 70.794 73.2539 70.9806 73.5065 70.8264C73.7184 70.6885 73.7021 69.7473 73.4821 69.4471C73.1561 69.017 72.8545 68.9278 71.7053 68.9278C70.9637 68.9278 70.5969 68.9602 70.4421 69.0414C70.1079 69.2118 69.7819 69.5931 69.6923 69.9096C69.5782 70.2909 69.5863 76.2629 69.7004 76.6604C69.7412 76.8308 69.8797 77.0824 70.002 77.2122C70.3524 77.6017 70.7355 77.6909 71.8521 77.6747C72.7078 77.6504 72.8708 77.626 73.1235 77.4637Z" fill="white"/>
<path id="Vector_37" d="M13.9052 77.8613C13.3591 77.5368 13.3428 77.4637 13.2858 75.1594C13.2613 74.0072 13.2206 73.0497 13.1961 73.0254C13.1717 73.001 13.0087 72.9605 12.8375 72.928C12.4382 72.8712 12.3159 72.717 12.3159 72.2951C12.3159 71.8651 12.4382 71.7028 12.8457 71.6216C13.1228 71.5648 13.1717 71.5243 13.2287 71.2808C13.2613 71.1267 13.2858 70.7615 13.2776 70.4776C13.2776 70.0637 13.3021 69.9339 13.4243 69.8447C13.6118 69.7067 14.386 69.7067 14.5001 69.8447C14.549 69.9015 14.6061 70.3153 14.6142 70.7615L14.6387 71.5648L15.1521 71.6054C15.4781 71.6298 15.69 71.6866 15.7389 71.7677C15.8856 72.003 15.9182 72.4006 15.8041 72.6359C15.7145 72.8306 15.633 72.8712 15.2662 72.9118C14.5409 73.001 14.5979 72.8469 14.5979 74.8348C14.5979 76.1655 14.6224 76.6361 14.7039 76.6929C14.7528 76.7335 14.9891 76.7822 15.2092 76.7903C15.4374 76.8065 15.6656 76.8471 15.7226 76.8958C15.8204 76.985 15.8612 77.6585 15.7715 77.8857C15.69 78.0885 14.2393 78.0723 13.9052 77.8613ZM15.3722 77.4475C15.3722 77.2609 15.3396 77.2447 14.9239 77.2203C14.6224 77.2041 14.4431 77.1554 14.3779 77.0662C14.2964 76.9607 14.2719 76.3765 14.2719 74.7942C14.2719 72.3681 14.2312 72.498 14.9973 72.498C15.3803 72.498 15.4129 72.4817 15.4129 72.3032C15.4129 72.1247 15.3722 72.1085 14.8832 72.0517C14.2638 71.9868 14.2801 72.0192 14.2556 70.9563L14.2312 70.2666H13.9867H13.7422L13.6933 71.0131C13.6688 71.4269 13.6036 71.8083 13.5466 71.8732C13.4977 71.9381 13.3347 72.0111 13.1961 72.0436C13.0576 72.0679 12.8946 72.1328 12.8294 72.1815C12.6745 72.3113 12.8457 72.498 13.1228 72.498C13.245 72.498 13.4162 72.5466 13.5058 72.6116C13.6525 72.717 13.6607 72.8712 13.7014 74.8835L13.7422 77.0418L13.9948 77.2933C14.2719 77.5611 14.6305 77.6828 15.0869 77.6666C15.3314 77.6504 15.3722 77.626 15.3722 77.4475Z" fill="white"/>
<path id="Vector_38" d="M27.353 60.8056C26.7499 60.6758 25.723 60.4729 25.3155 60.3999C24.6634 60.2863 22.5281 59.5723 21.0367 58.9637C16.8068 57.2598 12.6095 54.2089 9.37397 50.5089C7.92327 48.8536 6.14656 46.1922 5.1441 44.1881C3.889 41.6727 2.82949 38.346 2.37309 35.4979C2.21009 34.4756 2.20194 34.1591 2.23454 30.6701C2.26714 26.4589 2.30789 26.0532 2.94359 23.6515C3.7749 20.487 4.7366 18.1826 6.30141 15.578C7.61357 13.3791 8.89312 11.7319 10.7676 9.82514C12.6992 7.86155 14.3781 6.53896 17.1247 4.8269C18.6732 3.86133 21.7131 2.49005 23.5224 1.94641C24.7857 1.56505 24.9732 1.52448 25.6985 1.37843C26.3831 1.24049 26.4157 1.24049 26.6684 1.38655C26.8069 1.4758 26.9618 1.62185 26.9944 1.71922C27.1003 2.00321 26.8477 2.17361 25.9675 2.41703C24.2478 2.90387 21.2241 4.16155 19.9446 4.92426C17.9152 6.14137 17.1573 6.66067 15.5762 7.91834C14.1417 9.07054 11.3137 12.0322 10.0993 13.6469C9.92818 13.8822 9.69183 14.1337 9.57772 14.2148C9.14577 14.4907 8.33892 15.6835 7.45871 17.3387C6.50516 19.1319 5.95096 20.6168 5.44566 22.7183C4.71215 25.753 4.6225 26.5644 4.6714 29.8019C4.7203 32.5607 4.67955 32.2199 5.27451 35.1328C5.76351 37.5102 6.96971 40.4881 8.34707 42.7194C8.52637 43.0115 8.74642 43.3686 8.82792 43.5146C9.06427 43.9041 9.25987 43.8554 9.51253 43.3442C9.69183 42.9791 9.70813 42.8574 9.64293 42.6221C9.57773 42.3949 9.59403 42.3137 9.71628 42.1596C9.86298 41.9811 9.87928 41.9811 10.0749 42.1028C10.1808 42.1758 10.4253 42.4517 10.6046 42.7194C11.1018 43.4497 12.2265 44.7479 13.286 45.8271C16.9372 49.5433 21.7457 52.3102 26.9455 53.6977C27.5323 53.8519 28.3147 54.0385 28.6977 54.1197C29.6676 54.3063 29.7328 54.3387 30.8004 55.1907C31.322 55.6126 32.2104 56.2699 32.7646 56.6593C33.3188 57.0488 33.873 57.4464 33.9871 57.5438C34.1908 57.7142 34.1908 57.7304 34.0523 57.8683C33.9219 57.9982 33.767 58.0063 32.4223 57.9901C31.6073 57.9738 30.6863 57.9333 30.3685 57.8927C29.6187 57.7953 28.3636 57.7953 28.2087 57.8927C28.0865 57.9657 28.0783 58.0955 28.1272 59.8969C28.1598 60.903 28.1028 60.9679 27.353 60.8056ZM32.1044 56.9109C31.7377 56.635 31.0286 56.0914 30.5315 55.71C29.3823 54.8012 29.3171 54.7688 28.7385 54.6471C25.7963 54.0629 22.7319 52.9999 19.4882 51.4339C19.0399 51.2148 18.9584 51.1986 18.934 51.3122C18.9177 51.3852 18.8688 51.5475 18.8199 51.6692C18.7547 51.8396 18.7547 51.9208 18.828 51.9938C18.8769 52.0425 18.9177 52.2534 18.9177 52.4725C18.9177 53.0243 19.0399 53.2271 19.6023 53.5841C20.2461 53.9898 21.9332 54.9067 22.5526 55.1826C25.0628 56.2942 29.6513 57.3247 32.4304 57.3977L32.789 57.4058L32.1044 56.9109ZM16.5134 55.1826C16.489 54.9554 16.4564 54.3712 16.4401 53.8843L16.4075 52.9918L16.0733 52.6104C15.894 52.3995 15.348 51.9289 14.8671 51.5556C13.775 50.7199 11.6315 48.6021 10.5313 47.2714C8.53452 44.8534 7.13271 42.476 5.93466 39.4738C5.38861 38.1107 5.25005 37.6725 4.8181 35.9442C4.46765 34.5243 4.3291 33.8346 4.2476 32.9988C4.1987 32.585 4.1335 31.9115 4.0846 31.5058C3.9542 30.2644 3.9868 27.9762 4.1661 26.2885C4.4432 23.6596 5.03 21.2335 5.92651 18.994C7.32017 15.5374 8.90127 12.9815 11.3707 10.2227L12.0227 9.49247L11.1018 10.385C8.99907 12.4297 6.65186 15.724 5.40491 18.3773C4.15795 21.055 3.13104 24.333 2.86209 26.5319C2.81319 26.9376 2.73984 27.4569 2.69094 27.7004C2.65019 27.9438 2.61759 29.3637 2.61759 30.8648C2.61759 33.1286 2.65019 33.794 2.78059 34.8001C3.19624 37.8835 4.0846 40.7396 5.55161 43.7337C7.40166 47.4986 9.92818 50.6387 13.5386 53.6734C14.484 54.4604 16.3097 55.6938 16.4482 55.6451C16.5216 55.6126 16.5379 55.4828 16.5134 55.1826Z" fill="white"/>
<path id="Vector_39" d="M42.4143 60.3918C42.2106 60.1322 42.1698 59.548 42.2839 58.3795C42.3247 57.9576 42.3491 57.5925 42.3247 57.5681C42.2595 57.4789 40.9962 57.4789 40.605 57.56C39.7493 57.7385 37.4102 57.9657 36.2122 57.9901C35.1771 57.9982 34.9489 57.982 34.843 57.8765C34.7289 57.7629 34.7289 57.7304 34.9082 57.5681C35.006 57.4708 35.4298 57.1624 35.8291 56.8784C36.2366 56.5945 37.1413 55.9129 37.8422 55.353L39.1217 54.3469L39.8389 54.2008C41.0859 53.9574 43.0908 53.43 43.7917 53.1784C44.1666 53.0405 44.6556 52.862 44.8757 52.7809C45.9515 52.3995 48.2905 51.2798 49.3908 50.6144C52.9279 48.4804 56.2042 45.4295 58.1602 42.4517C59.9451 39.7335 60.1814 39.4414 60.2711 39.8958C60.2874 40.0013 60.3526 40.342 60.4015 40.6504C60.4585 40.9668 60.5319 41.2752 60.5726 41.3563C60.7845 41.7539 61.2165 41.1291 62.007 39.271C62.8628 37.2668 63.1725 36.1471 63.6615 33.3477C63.8734 32.1388 63.906 31.6763 63.9549 29.81C64.0038 27.603 63.9712 27.1892 63.6207 24.9091C63.311 22.9455 62.3819 19.9271 61.5751 18.2556C61.3143 17.712 60.3526 16.3732 59.4398 15.3021C59.2116 15.0263 58.9589 14.6936 58.8937 14.5556C58.6981 14.1824 57.5082 12.5677 56.8318 11.7644C53.5228 7.82099 49.7331 5.07844 44.9572 3.16353C44.3867 2.93634 43.1478 2.53064 42.0802 2.2223C41.6482 2.10059 41.5097 1.88963 41.689 1.62186C41.8601 1.36222 42.1943 1.31353 42.7566 1.45958C43.0256 1.5245 43.319 1.58129 43.4249 1.58129C43.808 1.58129 46.742 2.51441 47.6874 2.94445C47.8912 3.03371 48.3313 3.22033 48.6654 3.36638C50.923 4.34818 53.751 6.1495 55.9353 7.9995C58.9589 10.5716 61.9418 14.442 63.58 17.9311C65.0633 21.0956 65.8457 23.6839 66.3103 27.0107C66.4814 28.244 66.5548 31.8223 66.4407 33.4695C66.1962 37.1127 65.0389 41.1778 63.2458 44.6668C60.5645 49.9004 56.6606 54.0385 51.5179 57.0975C49.6679 58.1929 46.3671 59.621 44.6719 60.0429C42.7566 60.5298 42.5447 60.5622 42.4143 60.3918ZM37.6466 57.2841C40.8251 56.9677 44.1014 56.0265 47.1984 54.5416C48.698 53.8276 48.9914 53.4624 48.9914 52.2778C48.9914 51.9045 48.967 51.8072 48.861 51.8072C48.7877 51.8072 48.2661 52.0263 47.6956 52.294C45.5929 53.2677 42.7159 54.1927 40.4828 54.6065C39.4966 54.785 39.3336 54.8662 38.5023 55.564C38.1111 55.8966 37.4021 56.4403 36.9375 56.7811C36.3915 57.1787 36.147 57.4059 36.2529 57.4059C36.3426 57.4059 36.9701 57.3491 37.6466 57.2841ZM53.1805 55.1988C56.2287 53.3002 59.236 50.16 61.5751 46.4519C63.0339 44.1394 64.5091 40.6504 65.1937 37.8754C65.7968 35.4655 65.9435 34.078 65.9435 30.946C65.9435 27.0431 65.6664 25.2418 64.5743 21.907C64.1179 20.5276 63.6533 19.4241 62.8954 17.8986C61.5262 15.148 59.6924 12.5839 57.4675 10.312C56.2694 9.08678 55.1936 8.11309 55.6337 8.65673C55.7723 8.81901 56.1309 9.18414 56.4406 9.46814C57.7527 10.6771 59.5294 12.9328 60.7519 14.937C61.2246 15.7241 62.2026 17.6795 62.6427 18.7425C63.5555 20.9414 64.3379 24.0977 64.4765 26.1587C64.5173 26.8565 64.5987 27.8302 64.6476 28.3252C64.7128 28.9743 64.7128 29.5098 64.6476 30.2725C64.5987 30.8486 64.5173 31.798 64.4765 32.3741C64.1912 36.0741 62.7813 40.2528 60.5808 43.9447C60.0347 44.8534 59.0078 46.2734 58.2254 47.2065C57.2556 48.3587 54.6639 50.939 53.7673 51.653C53.3272 52.01 52.8464 52.4482 52.6997 52.6429L52.4389 52.9837L52.5448 54.0791C52.6019 54.6795 52.6508 55.2394 52.6508 55.3205C52.6589 55.5072 52.6997 55.4991 53.1805 55.1988Z" fill="white"/>
<path id="Vector_40" d="M34.484 49.665C34.4433 49.5514 34.4107 49.2512 34.4188 48.9916C34.4351 48.1883 34.4188 48.1802 32.8051 47.3769C31.3626 46.6629 29.92 45.7784 28.779 44.9183C27.8988 44.2449 27.4506 44.0014 27.255 44.0745C27.1653 44.115 26.986 44.2611 26.8638 44.4072C26.7415 44.5451 26.6111 44.6668 26.5622 44.6668C26.4236 44.6668 25.5108 43.8716 24.9485 43.255C21.5336 39.5468 19.4798 35.7495 18.241 30.8324C18.078 30.2076 17.9232 29.5179 17.8987 29.2907C17.8661 29.0716 17.7928 28.6821 17.7357 28.4387C17.5809 27.8139 17.4668 26.9295 17.3282 25.2337C17.1652 23.2863 17.1571 16.0486 17.3119 15.8295C17.4586 15.6267 17.6787 15.6429 18.2247 15.9025C18.4937 16.0324 18.8441 16.1379 18.999 16.1379C19.1783 16.1379 19.651 15.9675 20.2622 15.6835C21.8107 14.9613 23.4489 14.3447 25.5597 13.6955C26.6355 13.371 27.7929 13.0139 28.127 12.9004C28.4612 12.7949 28.9991 12.665 29.3088 12.6164C29.6266 12.5677 29.9934 12.4622 30.1319 12.3892C32.1694 11.2857 33.3756 11.0666 36.44 11.237C39.8875 11.4236 43.0986 12.0808 46.3423 13.2493C48.1761 13.9146 50.4337 14.9289 50.7597 15.2291C51.1183 15.5699 51.0205 15.6672 49.8713 16.146C45.7718 17.8418 41.0122 20.3653 40.3602 21.1848C40.2054 21.3876 40.1891 21.4688 40.238 22.3451C40.2624 22.8644 40.3195 23.3593 40.3684 23.4567C40.4743 23.692 40.2543 24.1951 40.0016 24.2925C39.8957 24.333 39.6267 24.3898 39.4067 24.4223C37.9641 24.617 36.5215 25.4609 35.9918 26.4183C35.7717 26.8159 35.7473 26.9214 35.7473 27.6273C35.7473 28.3251 35.7717 28.4387 35.9755 28.7795C36.4482 29.5909 37.467 30.0372 39.2681 30.2157C40.4499 30.3374 40.6455 30.524 40.6047 31.5139C40.5884 32.0414 40.5558 32.155 40.3847 32.3335C40.1972 32.5201 40.1402 32.5363 39.4067 32.5201C38.6569 32.512 38.5917 32.4957 37.8174 32.1225C36.9454 31.7087 36.8312 31.6113 36.709 31.2381C36.5704 30.7999 36.3585 30.8811 35.8614 31.5789C35.0382 32.7311 34.9812 32.9258 35.4376 33.0313C35.5598 33.0637 36.057 33.2828 36.5297 33.5181C37.5892 34.0374 38.1923 34.2484 38.9747 34.362C39.8957 34.4918 40.295 34.6135 40.4825 34.8082C40.6536 34.9786 40.6618 35.0354 40.621 36.3986C40.5966 37.1775 40.621 38.8328 40.6862 40.0824C40.7433 41.3319 40.7922 42.5166 40.7922 42.7194C40.7922 43.1819 40.5884 43.4903 39.4311 44.7479C38.2657 46.0137 38.0456 46.3789 38.0375 47.101C38.0293 47.6041 38.0049 47.6852 37.793 47.9043C37.2469 48.4723 35.4539 49.6001 34.753 49.8111C34.5981 49.8598 34.5492 49.8273 34.484 49.665ZM25.2745 39.3602C25.2745 39.0194 25.3071 38.8247 25.3723 38.8085C25.4945 38.7679 25.4782 36.7232 25.356 36.1876C25.2582 35.7657 25.2582 34.5973 25.3478 34.4512C25.4049 34.362 25.3397 34.2727 25.1278 34.0942C24.7203 33.7697 24.1009 33.4694 23.8482 33.4694C23.3429 33.4694 23.1392 32.7473 23.4896 32.1712C23.7586 31.733 24.3861 30.9297 24.5736 30.7756C24.6714 30.7025 24.9077 30.5971 25.1115 30.5403C25.8287 30.3455 25.8531 30.1751 25.2337 29.8181C24.3943 29.3394 24.052 28.6903 24.052 27.5786C24.052 26.7267 24.2802 26.1668 24.867 25.5907C25.3804 25.0714 25.8531 24.8118 26.7415 24.5278C27.2794 24.3655 27.5076 24.3411 28.6975 24.3411C30.0912 24.3493 30.2134 24.3655 31.5582 24.8036L32.0961 24.9822L32.6992 24.5927C33.0333 24.3817 33.7831 23.903 34.3618 23.5297C35.5598 22.7589 38.8036 20.8278 39.6593 20.3653C39.9772 20.1949 40.6373 19.8297 41.1263 19.5539C41.6235 19.2699 42.6096 18.7506 43.3268 18.3936C44.9242 17.6065 48.3717 16.0243 49.4312 15.5942C49.692 15.4887 49.8795 15.3751 49.8387 15.3589C49.6594 15.2453 48.1598 14.6449 47.6056 14.4582C46.4972 14.085 46.1793 14.0282 45.7881 14.1499C45.0383 14.3852 43.5876 14.3122 42.1451 13.9552C41.4442 13.7848 39.0399 13.371 37.7848 13.2087C36.0733 12.9896 33.0089 13.0058 31.2648 13.2493C28.6731 13.6144 26.6518 14.085 24.2557 14.8964C23.7178 15.0749 23.0414 15.3346 22.748 15.4563C22.4546 15.5861 21.8678 15.8376 21.444 16.0161C21.0202 16.1947 20.3519 16.4868 19.9688 16.6653C19.1131 17.071 18.8034 17.0872 18.2084 16.7545C17.9721 16.6247 17.7602 16.5111 17.7357 16.5111C17.7113 16.5111 17.695 18.0528 17.695 19.9433C17.695 23.5054 17.8254 26.1506 18.0617 27.2784C18.1269 27.603 18.184 27.9843 18.184 28.1304C18.184 28.3576 18.2655 28.7633 18.5833 30.0615C18.6159 30.2157 18.7545 30.6782 18.8767 31.0758C18.999 31.4815 19.162 32.0332 19.2435 32.3091C19.325 32.585 19.6021 33.3234 19.8629 33.9563L20.3274 35.1003L20.4986 34.792C20.6697 34.4999 20.6942 34.4837 21.1343 34.4593C21.6722 34.435 21.6966 34.4593 22.259 35.571C22.911 36.8692 23.8156 38.2486 24.6958 39.271C24.924 39.5306 25.1115 39.7822 25.1115 39.8146C25.1115 39.8471 25.1522 39.8795 25.193 39.8795C25.2419 39.8795 25.2745 39.6523 25.2745 39.3602ZM30.2786 34.0618C32.5688 33.4938 33.7994 31.7493 33.0496 30.1427C32.7807 29.5666 32.5932 29.3637 32.0146 29.0797C31.2648 28.6984 30.246 28.5199 28.779 28.5199C26.766 28.5199 25.9183 28.1872 25.8939 27.392C25.8857 26.8078 26.5541 26.2074 27.4261 26.0126C28.0374 25.8747 29.2599 25.8747 29.8793 26.0045C30.4661 26.1262 31.2485 26.6293 31.4848 27.0269C31.6886 27.3677 31.8108 27.3758 32.0635 27.0431C32.3813 26.6131 32.8785 25.615 32.8296 25.4933C32.797 25.4041 32.6829 25.3879 32.3813 25.4203C32.0716 25.4446 31.7945 25.396 31.2159 25.2093C29.9363 24.7955 29.2517 24.6738 28.4204 24.7306C25.9835 24.901 24.3372 26.1749 24.4839 27.7896C24.5247 28.2927 24.7447 28.7876 25.0463 29.0554C25.3804 29.3637 26.2606 29.7451 26.8964 29.8587C27.2387 29.9236 28.1026 30.0129 28.8198 30.0615C30.7269 30.1832 31.2811 30.3699 31.5256 30.9379C31.7782 31.5383 31.3055 32.2118 30.3601 32.585C29.9363 32.7473 29.7407 32.7716 28.6975 32.7797C27.6462 32.7797 27.4506 32.7554 26.9045 32.5769C26.1302 32.3172 25.356 31.8142 25.2011 31.4653C25.1359 31.3192 25.0381 31.1975 24.9811 31.1975C24.8751 31.1975 24.1009 32.2848 23.9705 32.6093C23.9134 32.7716 23.9216 32.8203 24.0031 32.8203C24.0601 32.8203 24.5084 33.015 24.9974 33.2585C26.2199 33.8589 27.1653 34.151 28.127 34.2159C28.7057 34.2646 29.8141 34.1835 30.2786 34.0618ZM28.2493 27.8221C28.4204 27.7085 28.7627 27.4488 29.0072 27.246C29.2599 27.0512 29.5614 26.8322 29.6918 26.7672C29.8141 26.7023 29.92 26.6212 29.92 26.5806C29.92 26.4914 29.0969 26.3291 28.6486 26.3291C27.5484 26.3291 26.2199 26.9863 26.3747 27.4488C26.4155 27.5949 26.7986 27.8302 27.2305 27.9762C27.5402 28.0898 27.9559 28.0249 28.2493 27.8221Z" fill="white"/>
<path id="Vector_41" d="M38.4044 28.106C36.8559 27.8058 37.5405 26.3534 39.2602 26.3047C39.7899 26.2885 39.8388 26.3047 40.0996 26.5563C40.3115 26.7591 40.3604 26.8565 40.3197 27.0107C40.2952 27.1242 40.3034 27.2297 40.3441 27.2541C40.4501 27.3271 40.4256 27.7247 40.3034 27.9762C40.1893 28.1872 40.173 28.1953 39.4721 28.1872C39.0809 28.1791 38.6 28.1466 38.4044 28.106Z" fill="white"/>
</g>
<g id="Group_3">
<path id="Vector_42" d="M1.03653 77.8289C0.873532 77.7153 0.881682 77.691 1.17508 76.344C1.34623 75.5894 1.62334 74.2831 1.79449 73.4311C2.60134 69.5283 2.70729 69.0414 2.78064 68.871C2.85399 68.7006 2.91104 68.6844 3.54674 68.6844C4.3699 68.6844 4.321 68.6276 4.5655 69.8122C4.6633 70.2829 4.7611 70.6804 4.7774 70.7129C4.7937 70.7372 4.8589 71.0699 4.93225 71.4432C5.0708 72.2059 5.42125 73.8206 5.55981 74.3074C5.60871 74.4859 5.69021 74.8835 5.75541 75.2C5.81246 75.5245 5.94286 76.1493 6.04881 76.5956C6.14661 77.0419 6.23626 77.5206 6.23626 77.6504C6.24441 77.8857 6.23626 77.8938 5.81246 77.9182C5.56796 77.9344 5.32345 77.9019 5.2664 77.8533C5.1523 77.764 5.04635 77.48 4.94855 77.0256C4.85075 76.5956 4.73665 76.555 3.61194 76.555C2.34869 76.555 2.25089 76.5956 2.17754 77.2366C2.14494 77.48 2.06344 77.7234 1.99824 77.7802C1.81079 77.9344 1.21583 77.9668 1.03653 77.8289ZM4.28025 75.4515C4.58995 75.3298 4.5818 75.1513 4.19875 73.2526C3.8157 71.3539 3.7994 71.2809 3.6853 71.2809C3.46525 71.2809 3.24519 71.9544 2.99254 73.4311C2.92734 73.7881 2.83769 74.1857 2.78879 74.3074C2.66654 74.6158 2.67469 75.2811 2.79694 75.4028C2.90289 75.5083 4.0439 75.5408 4.28025 75.4515Z" fill="white"/>
<path id="Vector_43" d="M8.56717 77.8614C8.15967 77.7721 7.95592 77.6504 7.73586 77.3502C7.54841 77.0824 7.54842 77.05 7.52397 74.6076C7.49951 71.8164 7.49136 71.857 8.06187 71.8326C8.24932 71.8245 8.42047 71.8407 8.44492 71.857C8.46122 71.8813 8.50197 72.9929 8.52642 74.3317C8.55087 75.6625 8.60792 76.7903 8.64867 76.8309C8.68942 76.8714 9.03172 76.9282 9.40662 76.9445C9.97712 76.9769 10.0994 76.9607 10.1972 76.839C10.295 76.7173 10.3276 76.2385 10.3602 74.2912L10.4009 71.8894L10.6943 71.8407C11.2241 71.7596 11.3056 71.8407 11.3626 72.5142C11.3871 72.8388 11.4034 74.137 11.3952 75.4028C11.3789 77.5774 11.3708 77.7072 11.2159 77.8208C11.0366 77.9506 10.5965 77.9019 10.295 77.7234C10.1401 77.6179 10.0831 77.626 9.86302 77.7315C9.56962 77.8857 8.95837 77.9506 8.56717 77.8614Z" fill="white"/>
<path id="Vector_44" d="M14.2802 77.8532C14.1335 77.8208 13.889 77.6747 13.7504 77.5368L13.4978 77.2853L13.457 75.1269C13.4163 73.1147 13.4081 72.9605 13.2614 72.855C13.1718 72.7901 13.0006 72.7414 12.8865 72.7414C12.6013 72.7414 12.479 72.6035 12.479 72.287C12.479 71.9868 12.5931 71.8732 12.9517 71.8002C13.3348 71.719 13.4081 71.5811 13.4407 70.7778C13.4733 70.1043 13.4896 70.0475 13.6689 69.9745C13.783 69.934 14.0031 69.9339 14.1742 69.9664L14.4758 70.0313L14.5002 70.7129C14.5247 71.7758 14.5084 71.7434 15.1278 71.8083L15.6575 71.8651V72.3032V72.7414H15.2419C14.4839 72.7414 14.5165 72.644 14.5165 74.7943C14.5165 76.1818 14.541 76.7254 14.6225 76.8228C14.6877 76.912 14.867 76.9607 15.1685 76.9769L15.6168 77.0013V77.4475V77.8938L15.087 77.91C14.7936 77.9182 14.435 77.8938 14.2802 77.8532Z" fill="white"/>
<path id="Vector_45" d="M17.6465 77.8532C17.3205 77.7559 16.9782 77.407 16.8967 77.1149C16.8641 76.985 16.856 75.8734 16.8804 74.6401L16.9212 72.4006L17.2146 72.1328C17.4835 71.8975 17.5813 71.857 18.1437 71.8083C18.8935 71.7353 19.7492 71.8083 20.0589 71.9706C20.1893 72.0355 20.3686 72.1896 20.4583 72.3032C20.6213 72.5142 20.6294 72.6116 20.6294 74.8024C20.6294 76.9201 20.6213 77.0986 20.4664 77.342C20.1812 77.8208 19.9693 77.8938 18.8772 77.91C18.3393 77.9181 17.7851 77.8938 17.6465 77.8532ZM19.4721 76.8309C19.6514 76.7092 19.6514 76.6767 19.6514 74.8592C19.6514 73.2363 19.6351 72.9929 19.5129 72.8956C19.3173 72.7333 18.0459 72.7414 17.9399 72.9037C17.8992 72.9686 17.8584 73.8287 17.8584 74.8105C17.8584 77.0094 17.8421 76.9607 18.6979 76.9607C19.1054 76.9607 19.3499 76.9201 19.4721 76.8309Z" fill="white"/>
<path id="Vector_46" d="M25.8942 77.8208C25.2503 77.5855 25.0384 77.1717 25.0303 76.1899C25.0303 75.9059 25.071 75.6544 25.1281 75.5976C25.1851 75.5408 25.4133 75.5002 25.6497 75.5002C26.1305 75.5002 26.1713 75.5489 26.1713 76.1169C26.1713 76.3927 26.2202 76.5307 26.375 76.6767C26.5543 76.8633 26.6358 76.8796 27.296 76.8796C28.2821 76.8796 28.3799 76.7984 28.437 75.9789C28.4614 75.5002 28.4451 75.3055 28.331 75.0864C28.2495 74.9322 27.516 74.137 26.701 73.3094C25.0303 71.6217 25.0303 71.6217 25.0384 70.4695C25.0384 69.6094 25.1525 69.2929 25.5437 68.9765L25.8616 68.725L27.19 68.7006C28.7141 68.6682 28.9749 68.7331 29.309 69.2443C29.5372 69.5932 29.6595 70.5425 29.5209 70.8995C29.4394 71.1024 29.3987 71.1186 28.983 71.1186C28.5918 71.1186 28.5185 71.0943 28.4614 70.9401C28.4288 70.8346 28.4125 70.6155 28.4288 70.4533C28.4614 70.2098 28.4288 70.1125 28.2577 69.9502C28.0702 69.7554 27.9969 69.7392 27.296 69.7392C26.8803 69.7392 26.4973 69.7717 26.4484 69.8041C26.1794 69.9826 26.0816 70.7048 26.2609 71.1754C26.3017 71.2971 27.0189 72.0679 27.8339 72.8712C28.9504 73.9666 29.3579 74.4291 29.4394 74.6563C29.4965 74.8429 29.5454 75.3866 29.5454 75.987C29.5535 76.912 29.5372 77.0256 29.3661 77.3096C29.0401 77.8208 28.82 77.8857 27.4345 77.9101C26.5299 77.9263 26.1305 77.9019 25.8942 77.8208Z" fill="white"/>
<path id="Vector_47" d="M31.819 77.7802C31.5827 77.6666 31.4278 77.5206 31.3137 77.2934C31.1507 76.985 31.1426 76.8309 31.1426 74.8348C31.1426 72.9037 31.1589 72.6684 31.2974 72.4168C31.5664 71.9057 31.8516 71.8083 33.0578 71.8083C33.9788 71.8083 34.1581 71.8326 34.4026 71.9706C34.9405 72.287 34.9731 72.4412 34.9731 74.8511C34.9731 77.2609 34.9405 77.407 34.3944 77.7315C33.9788 77.975 32.308 78.0074 31.819 77.7802ZM33.8321 76.7984C33.9869 76.6443 33.9951 76.5307 33.9951 74.8511C33.9951 72.7008 34.0114 72.7414 33.0904 72.7414C32.145 72.7414 32.2021 72.6035 32.2021 74.8511C32.2021 77.0986 32.145 76.9526 33.0823 76.9607C33.5631 76.9607 33.7017 76.9282 33.8321 76.7984Z" fill="white"/>
<path id="Vector_48" d="M37.4185 77.8451C37.0599 77.7396 36.8724 77.5693 36.6768 77.1879C36.5383 76.912 36.522 76.6848 36.522 74.4697C36.522 73.139 36.5546 72.003 36.5953 71.9462C36.6605 71.8326 37.3859 71.7921 37.4837 71.8894C37.5163 71.9219 37.557 73.0173 37.5815 74.3236C37.6141 76.125 37.6467 76.7335 37.7282 76.8146C37.7934 76.8796 38.0949 76.9282 38.4698 76.9445C39.4152 76.9932 39.3745 77.1067 39.3745 74.3236C39.3745 73.0335 39.4071 72.003 39.456 71.93C39.5538 71.7758 40.2221 71.7677 40.3688 71.9138C40.4503 71.9949 40.4747 72.6359 40.4747 74.8592C40.4747 77.5774 40.4666 77.7072 40.3199 77.8208C40.0998 77.9749 39.7901 77.9668 39.4152 77.7721C39.1218 77.626 39.0892 77.6179 38.8936 77.7396C38.6491 77.9019 37.8097 77.9587 37.4185 77.8451Z" fill="white"/>
<path id="Vector_49" d="M42.1942 77.8289C42.0638 77.7315 42.0557 77.5043 42.0557 74.851C42.0638 73.1471 42.0964 71.9462 42.1453 71.8975C42.1861 71.8569 42.3898 71.8245 42.5936 71.8164C42.8707 71.8083 42.9929 71.8488 43.05 71.9462C43.1233 72.076 43.1559 72.076 43.4738 71.9624C43.922 71.8002 44.3784 71.7839 44.5414 71.9219C44.6963 72.0517 44.7126 72.5061 44.574 72.644C44.517 72.7008 44.248 72.7414 43.9383 72.7414C42.9929 72.7414 43.0418 72.5953 43.0418 75.3379C43.0418 77.3583 43.0255 77.6991 42.9114 77.8045C42.7566 77.9587 42.3898 77.9749 42.1942 77.8289Z" fill="white"/>
<path id="Vector_50" d="M46.3427 77.8127C45.6173 77.553 45.5358 77.2366 45.5847 74.6482C45.6336 72.4087 45.6581 72.2789 46.1308 71.9868C46.3916 71.8245 46.5301 71.8083 47.4837 71.8083C49.0811 71.8083 49.35 72.0111 49.3582 73.2201V73.9179L49.0077 73.9423C48.5513 73.9747 48.4209 73.8611 48.4209 73.423C48.4209 72.8956 48.2335 72.7414 47.5733 72.7414C47.2799 72.7414 46.9539 72.7739 46.8398 72.8225L46.6279 72.9037V74.8511V76.7984L46.8561 76.8877C46.9784 76.9364 47.3288 76.9607 47.6385 76.9445C48.2987 76.912 48.4209 76.7984 48.4209 76.2142C48.4209 75.8734 48.4454 75.8247 48.6165 75.7761C48.7225 75.7517 48.9262 75.7436 49.0811 75.7598L49.3582 75.7842L49.3826 76.4333C49.4071 77.2203 49.2522 77.5368 48.7225 77.7721C48.2905 77.9668 46.8561 77.9912 46.3427 77.8127Z" fill="white"/>
<path id="Vector_51" d="M51.8194 77.8208C51.0451 77.5449 51.0288 77.4638 51.0288 74.8348C51.0288 72.782 51.037 72.6035 51.1918 72.36C51.4689 71.8975 51.7542 71.8083 52.9441 71.8083C54.1014 71.8083 54.354 71.8813 54.6882 72.3032C54.843 72.5061 54.8593 72.6197 54.8593 73.9098C54.8593 74.8916 54.8267 75.3379 54.7615 75.4028C54.6963 75.4677 54.2888 75.5002 53.4575 75.5002C52.2676 75.5002 52.2513 75.5002 52.1209 75.703C52.015 75.8572 51.9987 76.0032 52.0476 76.3521C52.072 76.5956 52.1454 76.8228 52.1943 76.8552C52.2513 76.8958 52.7485 76.9364 53.3108 76.9607L54.3296 77.0013L54.4029 77.2285C54.4681 77.3989 54.46 77.5125 54.3622 77.6747C54.2399 77.8938 54.2399 77.8938 53.1886 77.91C52.4632 77.9263 52.0313 77.8938 51.8194 77.8208ZM53.702 74.3642C53.8569 74.2182 53.8813 74.1046 53.8813 73.6339C53.8813 73.1228 53.865 73.066 53.6613 72.9037C53.4657 72.7495 53.3516 72.7333 52.8463 72.7576C52.5121 72.7739 52.2106 72.8307 52.1535 72.8875C52.0883 72.9524 52.0476 73.212 52.0476 73.6015C52.0476 74.1532 52.072 74.2344 52.2432 74.3723C52.5203 74.5995 53.4494 74.5914 53.702 74.3642Z" fill="white"/>
<path id="Vector_52" d="M59.3909 77.8045C59.2768 77.6909 59.2605 77.1879 59.2768 73.2039L59.3013 68.7249L59.7332 68.7006C59.9859 68.6844 60.2222 68.7168 60.2874 68.7736C60.3852 68.8548 60.4015 69.4876 60.4015 72.7089C60.4015 76.4657 60.4015 76.555 60.5645 76.7173C60.7194 76.8714 60.8253 76.8877 61.8278 76.8714C62.4309 76.8714 62.9607 76.8876 63.0014 76.9201C63.14 77.0012 63.1074 77.6585 62.9607 77.8045C62.7732 77.9993 59.5784 77.9993 59.3909 77.8045Z" fill="white"/>
<path id="Vector_53" d="M64.3542 77.837C64.3297 77.7802 64.3216 75.703 64.3297 73.2282L64.3542 68.7249L64.8676 68.7006C65.1447 68.6844 65.3729 68.6844 65.3811 68.7006C65.3811 68.7168 65.4055 70.4938 65.4218 72.6602C65.4544 76.0032 65.4789 76.6118 65.5848 76.7173C65.6745 76.8146 65.976 76.8471 66.9214 76.8633L68.1439 76.8876V77.3664C68.1439 77.7234 68.1113 77.8451 68.0135 77.8857C67.9402 77.91 67.1007 77.9344 66.139 77.9344C64.8106 77.9344 64.3786 77.91 64.3542 77.837Z" fill="white"/>
<path id="Vector_54" d="M70.3036 77.8127C69.9042 77.6666 69.5701 77.3096 69.456 76.9039C69.3419 76.5063 69.3337 70.0475 69.4478 69.6662C69.4886 69.512 69.6271 69.2767 69.7494 69.1469C70.165 68.7168 70.3199 68.6844 71.6972 68.6763C72.7812 68.6763 73.0012 68.6925 73.262 68.8304C73.7673 69.0901 73.8896 69.3254 73.9222 70.153C73.9548 71.0293 73.8977 71.1186 73.368 71.1186C72.8953 71.1186 72.7893 71.0212 72.7893 70.575C72.7893 70.1368 72.6508 69.8285 72.4063 69.7717C72.3085 69.7473 71.9091 69.7392 71.5179 69.7473C70.9393 69.7717 70.8007 69.8041 70.7029 69.9339C70.6133 70.0638 70.5888 70.648 70.5888 73.2364C70.5888 75.3785 70.6214 76.4495 70.6785 76.5875C70.7844 76.8228 71.0289 76.8796 71.8602 76.8796C72.6589 76.8796 72.7567 76.7741 72.8056 75.9059L72.8301 75.5407L73.1887 75.5164C73.9059 75.4677 73.9303 75.4921 73.9303 76.2791C73.9303 77.1067 73.7999 77.4475 73.368 77.7072C73.099 77.8776 72.9605 77.8938 71.8521 77.9182C70.9393 77.9263 70.5481 77.9019 70.3036 77.8127Z" fill="white"/>
<path id="Vector_55" d="M32.5692 57.6736C29.2847 57.3896 28.4616 57.2679 26.2529 56.7162C24.8511 56.3673 23.2537 55.848 22.3083 55.426C21.6889 55.1502 20.0018 54.2333 19.358 53.8276C18.7956 53.4706 18.6734 53.2677 18.6734 52.716C18.6734 52.4969 18.6326 52.2859 18.5837 52.2372C18.4859 52.1399 18.5185 51.6693 18.6489 51.1581C18.7467 50.7767 18.8934 50.7929 19.9774 51.3041C23.4411 52.9188 26.0736 53.8276 28.9832 54.4037C29.5374 54.5173 29.8308 54.7039 31.2652 55.8318C31.8031 56.2537 32.5447 56.8054 32.9196 57.057C33.2864 57.3085 33.5879 57.5682 33.5879 57.625C33.5879 57.7304 33.3516 57.7386 32.5692 57.6736Z" fill="white"/>
<path id="Vector_56" d="M35.2993 57.6574C35.2993 57.6087 35.8046 57.1949 36.424 56.7405C37.0353 56.2861 37.8666 55.6451 38.2578 55.3206C39.0891 54.6228 39.2521 54.5416 40.2382 54.3631C42.4713 53.9493 45.3483 53.0243 47.4429 52.0506C48.6328 51.4989 49.0973 51.3853 49.2196 51.6125C49.35 51.8721 49.1951 53.4949 49.0158 53.6978C48.6491 54.1359 48.3149 54.3631 47.4429 54.785C44.3866 56.2618 41.0206 57.2274 37.8829 57.5195C35.6824 57.7304 35.2993 57.7467 35.2993 57.6574Z" fill="white"/>
<path id="Vector_57" d="M15.9429 55.8155C15.6739 55.6532 15.2338 55.3611 14.9649 55.1583C14.6959 54.9635 14.264 54.6471 14.0113 54.4605C11.9004 52.9107 9.27613 50.2006 7.54017 47.7907C5.81236 45.3728 4.0438 41.5997 3.28585 38.703C2.4953 35.6927 2.37305 34.6379 2.37305 30.8649C2.37305 29.2339 2.40565 27.7004 2.4464 27.457C2.4953 27.2135 2.56865 26.6942 2.61755 26.2885C2.8865 24.0896 3.91341 20.8116 5.16036 18.1339C6.82297 14.5881 9.85478 10.7502 13.1963 7.97516C13.9135 7.37473 15.5191 6.28745 15.6821 6.28745C15.6984 6.28745 15.7147 6.34424 15.7147 6.41727C15.7147 6.57144 15.5191 6.77429 14.6796 7.50455C11.3381 10.385 8.95828 13.3791 7.23862 16.8357C5.65751 20.0164 4.76916 23.0592 4.41056 26.532C4.23126 28.2035 4.20681 30.0697 4.32906 31.2624C4.37796 31.6681 4.44316 32.3416 4.49206 32.7554C4.57356 33.5912 4.71211 34.2809 5.06256 35.7008C5.49451 37.4291 5.63306 37.8673 6.17912 39.2304C7.37717 42.2326 8.77898 44.61 10.7757 47.028C11.8189 48.2938 14.0032 50.4684 14.9649 51.1986C15.8369 51.8559 16.1548 52.148 16.4971 52.5699L16.7497 52.8782L16.7579 54.3712C16.766 55.1907 16.7416 55.8642 16.7008 55.8642C16.6682 55.8642 16.6356 55.921 16.6356 55.9859C16.6356 56.1725 16.4726 56.132 15.9429 55.8155Z" fill="white"/>
<path id="Vector_58" d="M52.3245 55.8074C52.3245 55.7668 52.3082 55.28 52.2919 54.712C52.2675 53.6491 52.2023 53.1866 52.0882 53.1866C51.9578 53.1866 52.1208 52.8133 52.4305 52.432C52.6017 52.2129 53.0988 51.7504 53.5308 51.4015C54.4273 50.6956 57.0108 48.1072 57.9807 46.9631C59.6759 44.959 61.0777 42.6627 62.1616 40.123C63.433 37.137 64.0525 34.6136 64.2725 31.5465C64.3377 30.662 64.4111 29.7938 64.4355 29.6234C64.46 29.4449 64.4437 28.9581 64.4029 28.528C64.354 28.098 64.2807 27.1649 64.2318 26.4427C64.1666 25.4366 64.0769 24.8118 63.8161 23.684C63.1886 20.8846 62.724 19.5539 61.5422 17.1278C59.8878 13.728 57.8747 11.164 54.3376 7.95084C53.4411 7.13132 52.9521 6.57145 53.0336 6.44163C53.1069 6.31992 53.1884 6.35237 53.9301 6.83922C55.6009 7.9265 58.0214 10.2065 59.5944 12.1701C60.4257 13.2006 61.6971 15.0263 62.2676 16.0081C63.213 17.6309 64.2236 19.8785 64.8186 21.6636C65.9188 25.0147 66.1796 26.7186 66.1959 30.8486C66.2041 34.2079 66.0574 35.6278 65.438 38.1188C64.7534 40.8938 63.2782 44.3829 61.8193 46.6954C59.4477 50.4522 56.3588 53.6572 53.3596 55.4747C52.7728 55.8236 52.349 55.9616 52.3245 55.8074Z" fill="white"/>
<path id="Vector_59" d="M25.1851 40.3096C25.0302 40.1879 24.8754 40.0418 24.8428 39.985C24.8102 39.9282 24.5657 39.6361 24.313 39.3278C24.0522 39.0276 23.7507 38.6543 23.6366 38.5002C23.2535 37.989 22.3652 36.5122 22.0147 35.8144C21.5176 34.8407 21.3872 34.6703 21.1264 34.7028C20.9634 34.719 20.8656 34.8245 20.6862 35.1572C20.3113 35.855 20.2461 35.7901 19.5045 33.9157C19.2763 33.3396 19.0155 32.6256 18.934 32.3335C18.2331 29.9804 17.9397 28.8039 17.9397 28.3657C17.9397 28.2278 17.8826 27.8464 17.8174 27.5219C17.5729 26.3535 17.4507 23.757 17.4507 19.8622C17.4507 16.4868 17.467 16.1054 17.5811 16.1054C17.6544 16.1054 17.9886 16.2596 18.339 16.4462L18.9666 16.7789L19.6919 16.4381C20.0994 16.2515 20.7759 15.9513 21.1997 15.7728C21.6235 15.5942 22.2103 15.3427 22.5037 15.2129C23.9055 14.6043 26.6439 13.7929 28.6977 13.3872C30.996 12.941 32.1615 12.8274 34.6065 12.8192C36.3506 12.8192 37.1575 12.8517 38.0295 12.9653C39.1624 13.1113 42.2839 13.6469 42.3898 13.7118C42.4876 13.7767 44.4925 14.0769 44.7941 14.0769C44.9571 14.0769 45.1608 14.0363 45.2505 13.9877C45.6172 13.801 46.3181 13.7524 46.7908 13.8903C47.6547 14.1418 48.4697 14.4258 49.2358 14.7423C50.1568 15.1317 50.4583 15.294 50.4583 15.4238C50.4583 15.4725 50.2138 15.6105 49.9123 15.7403C47.5651 16.6978 43.0255 18.848 41.4037 19.773C40.9798 20.0164 40.3115 20.3896 39.904 20.6087C38.5267 21.3471 35.7149 23.0429 33.6856 24.3655C32.9847 24.828 32.3245 25.2175 32.2267 25.2418C32.1289 25.2743 31.8111 25.2094 31.5339 25.112C30.2544 24.6738 29.8306 24.6008 28.6977 24.5927C27.7605 24.5846 27.5078 24.617 26.9862 24.7712C26.0979 25.0552 25.6252 25.3149 25.1117 25.8342C24.3782 26.5644 24.1419 27.4002 24.419 28.3252C24.582 28.8607 24.9243 29.2502 25.56 29.6234C25.8534 29.7938 26.0897 29.9804 26.0897 30.0291C26.0897 30.0859 26.0082 30.2725 25.9186 30.451C25.7719 30.7107 25.6985 30.7756 25.5274 30.7756C25.1036 30.7594 24.7531 31.019 24.2397 31.7087C23.7425 32.3822 23.5632 32.6743 23.5632 32.796C23.5632 32.9745 23.7914 33.153 24.0522 33.1936C24.419 33.2504 25.1606 33.648 25.5029 33.9644C25.7067 34.151 25.7637 34.2727 25.7637 34.5081C25.7637 34.719 25.7393 34.7758 25.6904 34.6947C25.5681 34.5081 25.4948 34.9219 25.5518 35.4331C25.6659 36.5447 25.7474 38.6787 25.6904 39.1493C25.6333 39.5956 25.617 39.628 25.6007 39.3521C25.5926 39.1736 25.5681 39.0925 25.5437 39.1817C25.5192 39.2629 25.5274 39.4982 25.5681 39.7092C25.617 40.0418 25.6333 40.0662 25.6904 39.8795C25.7474 39.7254 25.7556 39.7497 25.723 39.9931C25.7067 40.1717 25.6333 40.3664 25.5763 40.4232C25.4785 40.5206 25.4214 40.5043 25.1851 40.3096Z" fill="white"/>
<path id="Vector_60" d="M26.9864 28.2197C26.0491 27.8951 25.7802 27.4245 26.2203 26.8971C26.7011 26.3291 27.728 26.037 28.9668 26.11C29.8307 26.1587 30.3116 26.2804 30.3849 26.4671C30.442 26.605 30.279 26.7592 29.4314 27.3839C28.1437 28.3252 28.2415 28.2765 27.6465 28.2684C27.3531 28.2684 27.0516 28.244 26.9864 28.2197Z" fill="white"/>
<path id="Vector_61" d="M20.2217 4.26705C20.2217 4.16157 20.8003 3.69096 20.9307 3.69096C20.9878 3.69096 21.1915 3.6017 21.379 3.48811C22.4629 2.85521 25.2177 1.88153 26.2446 1.76793C26.9618 1.68679 26.7173 1.88964 25.6822 2.23043C24.1744 2.72539 22.3325 3.43942 20.5721 4.22648C20.2706 4.35631 20.2217 4.36442 20.2217 4.26705Z" fill="white"/>
</g>
</g>
<defs>
<clipPath id="clip0_650_956">
<rect width="75" height="78.9474" fill="white"/>
</clipPath>
</defs>
</svg>
