<svg width="100" height="100" viewBox="0 0 100 100" fill="none" xmlns="http://www.w3.org/2000/svg">
<rect x="1" y="1" width="98" height="98" rx="29" fill="#F5F9FC"/>
<rect x="1" y="1" width="98" height="98" rx="29" stroke="#111417" stroke-width="2"/>
<circle cx="61" cy="37" r="2" fill="#A58D62"/>
<circle cx="63" cy="44" r="2" fill="#3167FF"/>
<circle cx="63" cy="56" r="2" fill="#E33C21"/>
<circle cx="66" cy="50" r="2" fill="#A58D62"/>
<circle cx="50" cy="50" r="3" fill="#A58D62"/>
<path fill-rule="evenodd" clip-rule="evenodd" d="M47.5119 32C46.5454 32 45.7619 32.7835 45.7619 33.75V36.2978C44.8598 36.5876 43.9967 36.9642 43.1827 37.4178L41.6135 35.8486C40.9301 35.1652 39.822 35.1652 39.1386 35.8486L35.5244 39.4628C34.8409 40.1462 34.8409 41.2543 35.5244 41.9377L37.259 43.6724C36.9348 44.3373 36.6605 45.0311 36.4409 45.7488H33.75C32.7835 45.7488 32 46.5323 32 47.4988V52.6102C32 53.5767 32.7835 54.3602 33.75 54.3602H36.509C36.6908 54.9225 36.9064 55.4696 37.1534 55.999L35.2001 57.9523C34.5167 58.6357 34.5167 59.7437 35.2001 60.4272L38.8144 64.0414C39.4978 64.7248 40.6058 64.7248 41.2893 64.0414L42.9742 62.3565C43.849 62.8632 44.7825 63.2803 45.762 63.5949V65.7643C45.762 66.7308 46.5455 67.5143 47.512 67.5143H50.5732V55.1374L49.8639 55.0989C47.1467 54.9515 44.9883 52.7008 44.9883 49.9464C44.9883 47.192 47.1467 44.9412 49.8639 44.7938L50.5732 44.7554V32H47.5119ZM47.2619 33.75C47.2619 33.6119 47.3738 33.5 47.5119 33.5H49.0732V43.3726C45.9059 43.8868 43.4883 46.6341 43.4883 49.9464C43.4883 53.2587 45.9059 56.0059 49.0732 56.5202V66.0143H47.512C47.374 66.0143 47.262 65.9024 47.262 65.7643V62.4662L46.7124 62.3138C45.4782 61.9716 44.3185 61.4495 43.2633 60.7772L42.7556 60.4538L40.2286 62.9808C40.131 63.0784 39.9727 63.0784 39.8751 62.9808L36.2608 59.3665C36.1632 59.2689 36.1632 59.1106 36.2608 59.0129L38.9799 56.2938L38.7297 55.8073C38.3393 55.0484 38.0225 54.2456 37.7885 53.4083L37.6353 52.8602H33.75C33.6119 52.8602 33.5 52.7482 33.5 52.6102V47.4988C33.5 47.3608 33.6119 47.2488 33.75 47.2488H37.5867L37.7332 46.6887C37.9913 45.7022 38.3639 44.762 38.8361 43.883L39.0999 43.3919L36.585 40.877C36.4874 40.7794 36.4874 40.6211 36.585 40.5235L40.1993 36.9092C40.2969 36.8116 40.4552 36.8116 40.5528 36.9092L42.9492 39.3056L43.4534 38.9967C44.4572 38.3815 45.5518 37.9007 46.7123 37.5789L47.2619 37.4266V33.75Z" fill="#071119"/>
<path fill-rule="evenodd" clip-rule="evenodd" d="M50.5083 53.7912C50.3898 53.8022 50.2698 53.8078 50.1485 53.8078C48.0159 53.8078 46.2871 52.079 46.2871 49.9464C46.2871 47.8138 48.0159 46.085 50.1485 46.085C50.2698 46.085 50.3898 46.0906 50.5082 46.1015L54.5084 36.9373C54.6277 36.664 54.8976 36.4873 55.1958 36.4873H58.2722C58.5032 35.2022 59.6271 34.2271 60.9788 34.2271C62.4975 34.2271 63.7288 35.4583 63.7288 36.9771C63.7288 38.4958 62.4975 39.7271 60.9788 39.7271C59.8167 39.7271 58.8229 39.0062 58.4203 37.9873H55.6868L51.9564 46.5334C52.3245 46.7288 52.6572 46.982 52.9425 47.281L56.7007 43.0035C56.8431 42.8414 57.0484 42.7485 57.2641 42.7485H60.5534C60.8339 41.5274 61.9274 40.6167 63.2336 40.6167C64.7524 40.6167 65.9836 41.8479 65.9836 43.3667C65.9836 44.8855 64.7524 46.1167 63.2336 46.1167C62.0233 46.1167 60.9956 45.3348 60.6281 44.2485H57.6035L53.9196 48.4415C53.872 48.4956 53.8184 48.5413 53.7606 48.5783C53.8359 48.777 53.8952 48.9835 53.9371 49.1963H63.0945C63.3534 47.9463 64.4607 47.0068 65.7874 47.0068C67.3061 47.0068 68.5374 48.2381 68.5374 49.7568C68.5374 51.2756 67.3061 52.5068 65.7874 52.5068C64.5985 52.5068 63.5859 51.7525 63.202 50.6963H53.9372C53.909 50.8394 53.8729 50.9798 53.8294 51.1168C53.8612 51.1427 53.8913 51.1717 53.9193 51.2036L57.6033 55.3965H60.5872C60.9136 54.2422 61.9749 53.3965 63.2336 53.3965C64.7524 53.3965 65.9836 54.6277 65.9836 56.1465C65.9836 57.6653 64.7524 58.8965 63.2336 58.8965C61.9749 58.8965 60.9136 58.0507 60.5872 56.8965H57.2639C57.0482 56.8965 56.8429 56.8036 56.7005 56.6415L53.0534 52.4905C52.7448 52.8425 52.3733 53.138 51.9564 53.3593L55.6868 61.9053H58.3016C58.5869 60.6908 59.6772 59.7866 60.9788 59.7866C62.4975 59.7866 63.7288 61.0178 63.7288 62.5366C63.7288 64.0554 62.4975 65.2866 60.9788 65.2866C59.7635 65.2866 58.7324 64.4984 58.3688 63.4053H55.1958C54.8976 63.4053 54.6277 63.2286 54.5084 62.9553L50.5083 53.7912ZM52.5099 49.9464C52.5099 51.2505 51.4527 52.3078 50.1485 52.3078C48.8443 52.3078 47.7871 51.2505 47.7871 49.9464C47.7871 48.6422 48.8443 47.585 50.1485 47.585C51.4527 47.585 52.5099 48.6422 52.5099 49.9464ZM67.0374 49.7568C67.0374 50.4472 66.4777 51.0068 65.7874 51.0068C65.097 51.0068 64.5374 50.4472 64.5374 49.7568C64.5374 49.0665 65.097 48.5068 65.7874 48.5068C66.4777 48.5068 67.0374 49.0665 67.0374 49.7568ZM63.2336 44.6167C63.924 44.6167 64.4836 44.0571 64.4836 43.3667C64.4836 42.6763 63.924 42.1167 63.2336 42.1167C62.5433 42.1167 61.9836 42.6763 61.9836 43.3667C61.9836 44.0571 62.5433 44.6167 63.2336 44.6167ZM62.2288 36.9771C62.2288 37.6674 61.6691 38.2271 60.9788 38.2271C60.2884 38.2271 59.7288 37.6674 59.7288 36.9771C59.7288 36.2867 60.2884 35.7271 60.9788 35.7271C61.6691 35.7271 62.2288 36.2867 62.2288 36.9771ZM60.9788 63.7866C61.6691 63.7866 62.2288 63.227 62.2288 62.5366C62.2288 61.8463 61.6691 61.2866 60.9788 61.2866C60.2884 61.2866 59.7288 61.8463 59.7288 62.5366C59.7288 63.227 60.2884 63.7866 60.9788 63.7866ZM64.4836 56.1465C64.4836 56.8368 63.924 57.3965 63.2336 57.3965C62.5433 57.3965 61.9836 56.8368 61.9836 56.1465C61.9836 55.4561 62.5433 54.8965 63.2336 54.8965C63.924 54.8965 64.4836 55.4561 64.4836 56.1465Z" fill="#071119"/>
</svg>
