<svg width="100" height="100" viewBox="0 0 100 100" fill="none" xmlns="http://www.w3.org/2000/svg">
<rect x="1" y="1" width="98" height="98" rx="29" fill="#F5F9FC"/>
<rect x="1" y="1" width="98" height="98" rx="29" stroke="#111417" stroke-width="2"/>
<circle cx="57" cy="42.5" r="2.5" fill="#A58D62"/>
<path fill-rule="evenodd" clip-rule="evenodd" d="M57.2208 38.7581C55.2761 38.7581 53.6997 40.3345 53.6997 42.2792C53.6997 44.2239 55.2761 45.8003 57.2208 45.8003C59.1655 45.8003 60.7419 44.2239 60.7419 42.2792C60.7419 40.3345 59.1655 38.7581 57.2208 38.7581ZM55.2811 42.2792C55.2811 41.2079 56.1495 40.3395 57.2208 40.3395C58.2921 40.3395 59.1605 41.2079 59.1605 42.2792C59.1605 43.3505 58.2921 44.2189 57.2208 44.2189C56.1495 44.2189 55.2811 43.3505 55.2811 42.2792Z" fill="#111417"/>
<path fill-rule="evenodd" clip-rule="evenodd" d="M55.5264 32C55.1116 32 54.7673 32.3206 54.7377 32.7344L54.5887 34.821C54.2066 34.9559 53.8381 35.1192 53.4856 35.3084L51.9838 33.9734C51.6709 33.6953 51.1954 33.7092 50.8993 34.0053L48.9467 35.9579C48.6507 36.2539 48.6367 36.7294 48.9149 37.0423L50.2499 38.5442C50.0607 38.8966 49.8974 39.2651 49.7626 39.6471L47.676 39.7961C47.2622 39.8257 46.9416 40.17 46.9416 40.5848V43.9736C46.9416 44.3884 47.2622 44.7327 47.676 44.7623L49.7626 44.9113C49.8815 45.2483 50.0226 45.5747 50.1841 45.8889L48.915 47.3165C48.6369 47.6295 48.6508 48.1049 48.9469 48.401L50.8995 50.3536C51.1955 50.6496 51.671 50.6636 51.9839 50.3854L53.347 49.1738C53.7411 49.3956 54.1562 49.5847 54.5887 49.7374L54.7377 51.824C54.7673 52.2378 55.1116 52.5584 55.5264 52.5584H58.9152C59.33 52.5584 59.6743 52.2378 59.7039 51.824L59.8529 49.7374C60.2406 49.6006 60.6143 49.4345 60.9713 49.2417L62.2582 50.3856C62.5711 50.6638 63.0466 50.6498 63.3426 50.3538L65.2952 48.4012C65.5913 48.1051 65.6053 47.6296 65.3271 47.3167L64.1833 46.0299C64.376 45.6728 64.5422 45.299 64.679 44.9113L66.7656 44.7623C67.1794 44.7327 67.5 44.3884 67.5 43.9736V40.5848C67.5 40.17 67.1794 39.8257 66.7656 39.7961L64.679 39.6471C64.5264 39.2146 64.3372 38.7995 64.1154 38.4054L65.3272 37.0421C65.6054 36.7292 65.5914 36.2537 65.2954 35.9577L63.3428 34.0051C63.0467 33.709 62.5713 33.6951 62.2583 33.9732L60.8305 35.2424C60.5163 35.081 60.1899 34.9399 59.8529 34.821L59.7039 32.7344C59.6743 32.3206 59.33 32 58.9152 32H55.5264ZM56.1277 35.4706L56.2627 33.5814H58.1789L58.3139 35.4706C58.3378 35.8053 58.5703 36.0885 58.894 36.177C59.4737 36.3355 60.0205 36.5746 60.5215 36.8818C60.8185 37.0639 61.1997 37.0301 61.4601 36.7986L62.7517 35.6505L63.65 36.5487L62.5433 37.7936C62.3039 38.063 62.2769 38.4603 62.4777 38.7595C62.853 39.3188 63.1411 39.9407 63.323 40.606C63.4115 40.9297 63.6947 41.1622 64.0294 41.1861L65.9186 41.3211V43.2373L64.0294 43.3723C63.6947 43.3962 63.4115 43.6287 63.323 43.9524C63.152 44.5776 62.8874 45.1644 62.5447 45.6969C62.3528 45.9953 62.383 46.3849 62.6187 46.6501L63.6498 47.8101L62.7516 48.7083L61.5915 47.6772C61.3264 47.4415 60.9367 47.4113 60.6384 47.6032C60.1059 47.9458 59.5191 48.2104 58.894 48.3814C58.5703 48.4699 58.3378 48.7531 58.3139 49.0878L58.1789 50.977H56.2627L56.1277 49.0878C56.1038 48.7531 55.8713 48.4699 55.5476 48.3814C54.8823 48.1995 54.2604 47.9114 53.7011 47.5361C53.4019 47.3353 53.0046 47.3623 52.7352 47.6017L51.4905 48.7082L50.5923 47.8099L51.7403 46.5185C51.9717 46.2581 52.0055 45.8769 51.8234 45.5799C51.5163 45.0789 51.2771 44.5321 51.1186 43.9524C51.0301 43.6287 50.7469 43.3962 50.4122 43.3723L48.523 43.2373V41.3211L50.4122 41.1861C50.7469 41.1622 51.0301 40.9297 51.1186 40.606C51.2882 39.9859 51.5499 39.4035 51.8885 38.8745C52.0794 38.5763 52.0487 38.1876 51.8135 37.9229L50.5922 36.5489L51.4904 35.6507L52.8644 36.872C53.129 37.1072 53.5177 37.1379 53.816 36.947C54.345 36.6084 54.9275 36.3466 55.5476 36.177C55.8713 36.0885 56.1038 35.8053 56.1277 35.4706Z" fill="#111417"/>
<path d="M39.4963 35.1595C41.3941 33.519 43.5703 32.6768 45.2866 32.3585L45.2852 32.3597C45.3335 32.3505 45.3832 32.3457 45.4342 32.3457C45.8709 32.3457 46.2249 32.6997 46.2249 33.1364C46.2249 33.5437 45.9168 33.8791 45.521 33.9224L45.5213 33.9234C44.0597 34.2034 42.1735 34.9356 40.5304 36.3559C38.6361 37.9933 37.0326 40.5712 36.7918 44.5307C36.7646 44.9777 36.6447 45.4344 36.4111 45.8477L33.1158 51.6771C33.0451 51.8022 33.0876 51.9609 33.2114 52.0339L36.723 54.1046L37.4801 61.2485C37.608 62.4551 38.6258 63.3706 39.8391 63.3706H44.2136V67.582C44.2136 68.0187 43.8596 68.3727 43.4229 68.3727C42.9862 68.3727 42.6322 68.0187 42.6322 67.582V64.9521H39.8391C37.8169 64.9521 36.1207 63.4261 35.9075 61.4152L35.2342 55.0626L32.4081 53.3961C31.5417 52.8852 31.2442 51.7745 31.7391 50.8989L35.0344 45.0695C35.1369 44.8881 35.199 44.6696 35.2133 44.4347C35.4802 40.0461 37.2827 37.0729 39.4963 35.1595Z" fill="#111417"/>
<path d="M57.5207 65.6743C57.5207 62.4503 57.835 59.2302 58.5697 56.0932L58.5799 56.095C58.6128 55.6885 58.9531 55.3688 59.3681 55.3688C59.8048 55.3688 60.1588 55.7229 60.1588 56.1596C60.1588 56.2406 60.1466 56.3188 60.1239 56.3925C59.4108 59.4122 59.1021 62.5299 59.1021 65.6743V67.582C59.1021 68.0187 58.7481 68.3727 58.3114 68.3727C57.8747 68.3727 57.5207 68.0187 57.5207 67.582V65.6743Z" fill="#111417"/>
</svg>
