<svg width="100" height="100" viewBox="0 0 100 100" fill="none" xmlns="http://www.w3.org/2000/svg">
<rect x="1" y="1" width="98" height="98" rx="29" fill="#F5F9FC"/>
<rect x="1" y="1" width="98" height="98" rx="29" stroke="#111417" stroke-width="2"/>
<rect x="62.1826" y="62.0908" width="2.51317" height="5.03647" transform="rotate(-45.1543 62.1826 62.0908)" fill="#A58D62"/>
<path fill-rule="evenodd" clip-rule="evenodd" d="M32.5 53.8397V40.0806H60.0185V44.911C60.0185 45.3252 60.3543 45.661 60.7685 45.661C61.1827 45.661 61.5185 45.3252 61.5185 44.911V35.9822C61.5185 34.3352 60.1833 33 58.5363 33H33.9822C32.3352 33 31 34.3352 31 35.9822V53.8397C31 55.4867 32.3352 56.8219 33.9822 56.8219H46.2592C46.6735 56.8219 47.0092 56.4861 47.0092 56.0719C47.0092 55.6577 46.6735 55.3219 46.2592 55.3219H33.9822C33.1636 55.3219 32.5 54.6583 32.5 53.8397ZM33.9822 34.5C33.1636 34.5 32.5 35.1636 32.5 35.9822V38.5806H60.0185V35.9822C60.0185 35.1636 59.3549 34.5 58.5363 34.5H33.9822Z" fill="#111417"/>
<path d="M49.7996 49.5411V43.4287C49.7996 43.0145 49.4638 42.6787 49.0496 42.6787C48.6353 42.6787 48.2996 43.0145 48.2996 43.4287V49.5411C48.2996 49.9554 48.6353 50.2911 49.0496 50.2911C49.4638 50.2911 49.7996 49.9554 49.7996 49.5411Z" fill="#111417"/>
<path d="M44.219 45.6609V51.9736C44.219 52.3878 43.8832 52.7236 43.469 52.7236C43.0548 52.7236 42.719 52.3878 42.719 51.9736V45.6609C42.719 45.2467 43.0548 44.9109 43.469 44.9109C43.8832 44.9109 44.219 45.2467 44.219 45.6609Z" fill="#111417"/>
<path d="M38.6387 47.8933V51.9738C38.6387 52.388 38.3029 52.7238 37.8887 52.7238C37.4745 52.7238 37.1387 52.388 37.1387 51.9738V47.8933C37.1387 47.4791 37.4745 47.1433 37.8887 47.1433C38.3029 47.1433 38.6387 47.4791 38.6387 47.8933Z" fill="#111417"/>
<path d="M55.3799 44.9997V46.3046C55.3799 46.7188 55.0441 47.0546 54.6299 47.0546C54.2157 47.0546 53.8799 46.7188 53.8799 46.3046V44.9997C53.8799 44.5855 54.2157 44.2497 54.6299 44.2497C55.0441 44.2497 55.3799 44.5855 55.3799 44.9997Z" fill="#111417"/>
<path fill-rule="evenodd" clip-rule="evenodd" d="M56.0474 48.6252C52.693 48.6252 49.9736 51.3446 49.9736 54.699C49.9736 58.0535 52.693 60.7728 56.0474 60.7728C57.5723 60.7728 58.9659 60.2109 60.0325 59.2829L61.6488 60.8993L61.3278 61.2203C61.0349 61.5132 61.0349 61.988 61.3278 62.2809L65.0923 66.0454C65.3852 66.3383 65.8601 66.3383 66.153 66.0454L68.003 64.1954C68.2959 63.9025 68.2959 63.4276 68.003 63.1347L64.2385 59.3703C63.9456 59.0774 63.4707 59.0774 63.1779 59.3703L62.7095 59.8386L61.0359 58.165C61.7201 57.1821 62.1212 55.9874 62.1212 54.699C62.1212 51.3446 59.4019 48.6252 56.0474 48.6252ZM51.4736 54.699C51.4736 52.173 53.5214 50.1252 56.0474 50.1252C58.5735 50.1252 60.6212 52.173 60.6212 54.699C60.6212 57.2251 58.5735 59.2728 56.0474 59.2728C53.5214 59.2728 51.4736 57.2251 51.4736 54.699ZM65.6227 64.4544L62.9188 61.7506L63.7082 60.9612L66.412 63.6651L65.6227 64.4544Z" fill="#111417"/>
<path d="M37.8999 47.8999V52.8999" stroke="#0086C3" stroke-width="1.5" stroke-linecap="round"/>
<path d="M49 43.5V49.5" stroke="#EF3937" stroke-width="1.5" stroke-linecap="round"/>
</svg>
