<svg width="100" height="100" viewBox="0 0 100 100" fill="none" xmlns="http://www.w3.org/2000/svg">
<rect x="1" y="1" width="98" height="98" rx="29" fill="#F5F9FC"/>
<rect x="1" y="1" width="98" height="98" rx="29" stroke="#111417" stroke-width="2"/>
<circle cx="62.5" cy="42.5" r="2.5" fill="#3167FF"/>
<circle cx="36.5" cy="42.5" r="2.5" fill="#A58D62"/>
<circle cx="49.5" cy="64.5" r="2.5" fill="#E33C21"/>
<path fill-rule="evenodd" clip-rule="evenodd" d="M45.5601 50.1926C45.5601 47.8389 47.4682 45.9308 49.8219 45.9308C52.1756 45.9308 54.0837 47.8389 54.0837 50.1926C54.0837 52.5463 52.1756 54.4544 49.8219 54.4544C47.4682 54.4544 45.5601 52.5463 45.5601 50.1926ZM49.8219 47.4308C48.2966 47.4308 47.0601 48.6673 47.0601 50.1926C47.0601 51.7179 48.2966 52.9544 49.8219 52.9544C51.3472 52.9544 52.5837 51.7179 52.5837 50.1926C52.5837 48.6673 51.3472 47.4308 49.8219 47.4308Z" fill="#111417"/>
<path fill-rule="evenodd" clip-rule="evenodd" d="M47.2179 42.4255C47.2179 41.459 48.0014 40.6755 48.9679 40.6755H50.5934C51.5599 40.6755 52.3434 41.459 52.3434 42.4255V42.9417C52.6751 43.057 52.9963 43.1943 53.3053 43.352L53.5655 43.0918C54.2489 42.4084 55.3569 42.4084 56.0404 43.0918L57.1898 44.2412C57.8732 44.9247 57.8732 46.0327 57.1898 46.7161L56.8353 47.0706C56.9247 47.271 57.0057 47.476 57.0779 47.6851H57.3609C58.3274 47.6851 59.1109 48.4686 59.1109 49.4351V51.0606C59.1109 52.0271 58.3274 52.8106 57.3609 52.8106H57.0388C56.9626 53.0206 56.8775 53.2263 56.7839 53.4273L57.024 53.6673C57.7075 54.3508 57.7075 55.4588 57.024 56.1422L55.8746 57.2917C55.1912 57.9751 54.0831 57.9751 53.3997 57.2917L53.1959 57.0878C52.9206 57.2228 52.6359 57.3418 52.3431 57.4435V57.7671C52.3431 58.7336 51.5596 59.5171 50.5931 59.5171H48.9676C48.0011 59.5171 47.2176 58.7336 47.2176 57.7671V57.4138C46.8758 57.2905 46.5454 57.1437 46.2282 56.9753L45.9118 57.2917C45.2284 57.9751 44.1204 57.9751 43.437 57.2917L42.2875 56.1422C41.6041 55.4588 41.6041 54.3508 42.2875 53.6673L42.7581 53.1968C42.704 53.0698 42.6532 52.941 42.6059 52.8106H41.9519C40.9854 52.8106 40.2019 52.0271 40.2019 51.0606V49.4351C40.2019 48.4686 40.9854 47.6851 41.9519 47.6851H42.5667C42.6389 47.4763 42.7198 47.2716 42.8089 47.0715L42.4535 46.7161C41.7701 46.0327 41.7701 44.9247 42.4535 44.2412L43.603 43.0918C44.2864 42.4084 45.3944 42.4084 46.0778 43.0918L46.3385 43.3524C46.6218 43.2078 46.9154 43.0803 47.2179 42.9712V42.4255ZM48.9679 42.1755C48.8298 42.1755 48.7179 42.2875 48.7179 42.4255V44.0892L48.1683 44.2416C47.6104 44.3963 47.084 44.6275 46.6012 44.9234L46.097 45.2323L45.0172 44.1525C44.9195 44.0548 44.7612 44.0548 44.6636 44.1525L43.5142 45.3019C43.4165 45.3995 43.4165 45.5578 43.5142 45.6554L44.6426 46.7839L44.3788 47.275C44.1515 47.698 43.9723 48.1503 43.8481 48.6249L43.7016 49.1851H41.9519C41.8138 49.1851 41.7019 49.297 41.7019 49.4351V51.0606C41.7019 51.1987 41.8138 51.3106 41.9519 51.3106H43.7216L43.8748 51.8587C43.9873 52.2612 44.1396 52.6472 44.3273 53.0122L44.5775 53.4987L43.3482 54.728C43.2506 54.8256 43.2506 54.9839 43.3482 55.0816L44.4976 56.231C44.5953 56.3286 44.7536 56.3286 44.8512 56.231L46.0015 55.0807L46.5092 55.4042C47.0168 55.7277 47.5746 55.9788 48.168 56.1434L48.7176 56.2958V57.7671C48.7176 57.9052 48.8295 58.0171 48.9676 58.0171H50.5931C50.7312 58.0171 50.8431 57.9052 50.8431 57.7671V56.311L51.4019 56.1636C51.952 56.0185 52.4722 55.7993 52.9513 55.5171L53.4517 55.2223L54.4604 56.231C54.558 56.3286 54.7163 56.3286 54.8139 56.231L55.9634 55.0816C56.061 54.9839 56.061 54.8256 55.9634 54.728L54.9361 53.7007L55.2136 53.2054C55.4495 52.7843 55.6373 52.333 55.7699 51.8587L55.9231 51.3106H57.3609C57.499 51.3106 57.6109 51.1987 57.6109 51.0606V49.4351C57.6109 49.297 57.499 49.1851 57.3609 49.1851H55.9431L55.7965 48.6249C55.6723 48.15 55.4929 47.6974 55.2655 47.2742L55.0015 46.7831L56.1291 45.6554C56.2268 45.5578 56.2268 45.3995 56.1291 45.3019L54.9797 44.1525C54.8821 44.0548 54.7238 44.0548 54.6261 44.1525L53.5469 45.2317L53.0428 44.9229C52.5387 44.6142 51.9873 44.3759 51.4021 44.2215L50.8434 44.0742V42.4255C50.8434 42.2875 50.7315 42.1755 50.5934 42.1755H48.9679Z" fill="#111417"/>
<path fill-rule="evenodd" clip-rule="evenodd" d="M63.1986 46.1844V54.2847C63.5753 54.3539 63.9468 54.4876 64.2975 54.6901C65.9439 55.6407 66.5081 57.746 65.5575 59.3925C64.6069 61.0389 62.5016 61.603 60.8551 60.6525C60.4737 60.4322 60.1504 60.1501 59.8905 59.826L52.9706 63.8212C53.2118 64.6822 53.1194 65.6358 52.6371 66.4713C51.6865 68.1178 49.5812 68.6819 47.9347 67.7313C46.5435 66.9281 45.9251 65.3006 46.3401 63.822L39.2171 59.7095C38.1924 61.1075 36.2575 61.5386 34.7218 60.652C33.0753 59.7014 32.5112 57.5961 33.4618 55.9496C34.0393 54.9494 35.0429 54.3486 36.1108 54.2442V46.2259C35.6356 46.1801 35.1623 46.0342 34.7218 45.7799C33.0753 44.8293 32.5112 42.724 33.4618 41.0775C34.4124 39.4311 36.5177 38.8669 38.1642 39.8175C38.5162 40.0208 38.8188 40.2768 39.0676 40.5699L46.3409 36.3707C46.1001 35.51 46.1926 34.5569 46.6747 33.7218C47.6253 32.0753 49.7306 31.5112 51.3771 32.4618C52.7686 33.2652 53.387 34.8933 52.9713 36.3722L60.0501 40.4592C61.1177 39.3043 62.8781 38.9981 64.2975 39.8175C65.9439 40.7681 66.5081 42.8734 65.5575 44.5199C65.0327 45.4289 64.1558 46.008 63.1986 46.1844ZM51.338 36.4142C50.8017 37.3432 49.6137 37.6615 48.6847 37.1251C47.7557 36.5888 47.4374 35.4008 47.9737 34.4718C48.5101 33.5428 49.698 33.2245 50.6271 33.7609C51.5561 34.2972 51.8744 35.4852 51.338 36.4142ZM47.9347 38.4242C49.3896 39.2642 51.2029 38.9214 52.261 37.6942L59.2951 41.7553C58.8138 43.2638 59.4277 44.9558 60.8551 45.7799C61.1262 45.9364 61.4098 46.0519 61.6986 46.1282V54.3427C60.8423 54.5685 60.0729 55.1226 59.5951 55.9501C59.1359 56.7455 59.0302 57.6481 59.2292 58.4757L52.2612 62.4987C52.0161 62.2151 51.7201 61.967 51.3771 61.7689C49.9218 60.9288 48.1081 61.2719 47.0501 62.4998L39.8231 58.3273C40.0956 56.9251 39.4706 55.4439 38.1642 54.6896C37.9845 54.5859 37.7994 54.5002 37.6108 54.4319V46.037C38.3492 45.7711 39.0011 45.2527 39.4242 44.5199C39.9011 43.6938 39.9968 42.7522 39.7657 41.8989L47.0497 37.6934C47.295 37.9775 47.5913 38.2259 47.9347 38.4242ZM35.4718 44.4809C36.4008 45.0172 37.5888 44.6989 38.1251 43.7699C38.6615 42.8409 38.3432 41.6529 37.4142 41.1166C36.4852 40.5802 35.2972 40.8985 34.7608 41.8275C34.2245 42.7565 34.5428 43.9445 35.4718 44.4809ZM38.1251 58.642C37.5888 59.571 36.4008 59.8893 35.4718 59.3529C34.5428 58.8166 34.2245 57.6286 34.7608 56.6996C35.2972 55.7706 36.4852 55.4523 37.4142 55.9886C38.3432 56.525 38.6615 57.7129 38.1251 58.642ZM48.6847 66.4323C49.6137 66.9686 50.8017 66.6503 51.338 65.7213C51.8744 64.7923 51.5561 63.6044 50.6271 63.068C49.698 62.5316 48.5101 62.8499 47.9737 63.7789C47.4374 64.708 47.7557 65.8959 48.6847 66.4323ZM64.2584 58.6425C63.7221 59.5715 62.5341 59.8898 61.6051 59.3534C60.6761 58.817 60.3578 57.6291 60.8941 56.7001C61.4305 55.7711 62.6185 55.4528 63.5475 55.9891C64.4765 56.5255 64.7948 57.7134 64.2584 58.6425ZM61.6051 44.4809C62.5341 45.0172 63.7221 44.6989 64.2584 43.7699C64.7948 42.8409 64.4765 41.6529 63.5475 41.1166C62.6185 40.5802 61.4305 40.8985 60.8941 41.8275C60.3578 42.7565 60.6761 43.9445 61.6051 44.4809Z" fill="#111417"/>
</svg>
