<svg width="100" height="100" viewBox="0 0 100 100" fill="none" xmlns="http://www.w3.org/2000/svg">
<rect x="1" y="1" width="98" height="98" rx="29" fill="#F5F9FC"/>
<rect x="1" y="1" width="98" height="98" rx="29" stroke="#111417" stroke-width="2"/>
<circle cx="37" cy="64" r="4" transform="rotate(-2.8621 37 64)" fill="#E33C21"/>
<path fill-rule="evenodd" clip-rule="evenodd" d="M40.5119 38.0956C40.1102 37.9946 39.8665 37.587 39.9675 37.1853L40.0673 36.7882C40.0466 36.8009 40.0258 36.8136 40.0051 36.8263C35.1567 39.8058 31.9261 45.1566 31.9261 51.2613C31.9261 53.2509 32.269 55.1587 32.8983 56.93C33.0369 57.3203 32.8329 57.7491 32.4426 57.8878C32.0523 58.0264 31.6234 57.8224 31.4848 57.4321C30.7991 55.5019 30.4261 53.4243 30.4261 51.2613C30.4261 44.6139 33.9459 38.7893 39.2198 35.5483C39.2484 35.5307 39.277 35.5132 39.3058 35.4958L38.895 35.3926C38.4933 35.2916 38.2495 34.884 38.3505 34.4823C38.4515 34.0806 38.859 33.8368 39.2607 33.9378L41.4209 34.4809C41.6138 34.5294 41.7795 34.6525 41.8816 34.8232C41.9838 34.994 42.0139 35.1982 41.9654 35.3912L41.4222 37.5511C41.3212 37.9528 40.9137 38.1966 40.5119 38.0956ZM46.1732 42.4704C46.1732 42.0562 46.509 41.7204 46.9232 41.7204H49.9889C50.4031 41.7204 50.7389 42.0562 50.7389 42.4704V44.2088C51.3735 44.4212 51.9697 44.7195 52.5149 45.0898L54.1855 43.9657C54.354 43.8523 54.5613 43.8121 54.76 43.8543C54.9587 43.8966 55.1318 44.0176 55.2397 44.1897L56.9094 46.8537C57.1243 47.1967 57.0284 47.6483 56.6926 47.8743L55.3706 48.7638C55.5765 49.3242 55.7202 49.9159 55.7934 50.5295L57.7645 50.7686C58.1733 50.8182 58.4656 51.1882 58.4194 51.5974L58.0629 54.7523C58.0404 54.951 57.9395 55.1326 57.7826 55.2565C57.6257 55.3805 57.4258 55.4367 57.2273 55.4127L54.9425 55.1355C54.8541 55.3019 54.7598 55.4646 54.66 55.6233L55.8967 56.9716C56.1697 57.2693 56.158 57.7296 55.8703 58.013L53.6481 60.2013C53.5031 60.3441 53.3063 60.4218 53.1028 60.4166C52.8993 60.4115 52.7067 60.3238 52.5692 60.1738L51.119 58.5928C50.9939 58.6426 50.8672 58.6891 50.7389 58.732V60.4703C50.7389 60.8845 50.4031 61.2203 49.9889 61.2203H46.9232C46.509 61.2203 46.1732 60.8845 46.1732 60.4703V58.7315C46.1068 58.7093 46.0408 58.6861 45.9753 58.662L44.5886 60.1738C44.451 60.3238 44.2584 60.4115 44.0549 60.4166C43.8514 60.4218 43.6546 60.3441 43.5096 60.2013L41.2874 58.013C40.9997 57.7296 40.988 57.2693 41.261 56.9716L42.3545 55.7794C42.201 55.5481 42.0596 55.3077 41.9312 55.0592L40.2757 55.3311C40.078 55.3636 39.8756 55.3156 39.7135 55.1979C39.5514 55.0802 39.4431 54.9025 39.4128 54.7044L38.9328 51.5671C38.8706 51.1609 39.147 50.7802 39.5526 50.7136L41.1296 50.4546C41.2091 49.8378 41.36 49.2437 41.5737 48.6818L40.3734 47.8742C40.0376 47.6482 39.9416 47.1966 40.1566 46.8536L41.8262 44.1896C41.9341 44.0175 42.1072 43.8965 42.3059 43.8543C42.5046 43.812 42.7119 43.8522 42.8804 43.9656L44.4751 45.0387C44.999 44.6923 45.5687 44.4118 46.1732 44.2093V42.4704ZM47.6732 43.2204V44.7723C47.6732 45.1178 47.4372 45.4186 47.1016 45.5008C46.3115 45.6943 45.581 46.054 44.9467 46.5445C44.691 46.7423 44.3373 46.7539 44.0691 46.5735L42.6858 45.6426L41.8131 47.035L42.9262 47.784C43.2354 47.992 43.3449 48.3954 43.1835 48.7312C42.8325 49.4615 42.6171 50.2756 42.573 51.1388C42.555 51.4912 42.2938 51.7834 41.9456 51.8406L40.5277 52.0735L40.7808 53.728L42.2473 53.4871C42.5892 53.431 42.925 53.6163 43.0598 53.9354C43.2794 54.4553 43.5663 54.9373 43.9088 55.3694C44.1377 55.6582 44.1228 56.0706 43.8737 56.3422L42.8557 57.4521L44.0084 58.5872L45.2236 57.2624C45.4434 57.0228 45.7926 56.9521 46.0883 57.0874C46.4121 57.2355 46.7509 57.3541 47.1016 57.44C47.4372 57.5222 47.6732 57.823 47.6732 58.1685V59.7203H49.2389V58.1689C49.2389 57.8233 49.475 57.5224 49.8107 57.4403C50.2165 57.341 50.6065 57.198 50.9757 57.0159C51.2746 56.8686 51.6348 56.9361 51.8601 57.1816L53.1493 58.5872L54.302 57.4521L53.1514 56.1976C52.9074 55.9316 52.8875 55.5294 53.1042 55.2406C53.3842 54.8674 53.6237 54.4595 53.8156 54.024C53.9489 53.7217 54.2642 53.5422 54.5922 53.582L56.6573 53.8325L56.8453 52.1681L55.0037 51.9447C54.6377 51.9003 54.3583 51.5965 54.3446 51.2281C54.3122 50.359 54.1063 49.5381 53.763 48.8006C53.6072 48.466 53.718 48.0678 54.0242 47.8618L55.2528 47.0351L54.3801 45.6427L52.9149 46.6287C52.6436 46.8112 52.2854 46.797 52.0295 46.5935C51.3804 46.0776 50.6274 45.7003 49.8107 45.5005C49.475 45.4184 49.2389 45.1175 49.2389 44.772V43.2204H47.6732ZM44.4241 51.4704C44.4241 49.1232 46.3269 47.2204 48.6741 47.2204C51.0213 47.2204 52.9241 49.1232 52.9241 51.4704C52.9241 53.8176 51.0213 55.7204 48.6741 55.7204C46.3269 55.7204 44.4241 53.8176 44.4241 51.4704ZM48.6741 48.7204C47.1553 48.7204 45.9241 49.9516 45.9241 51.4704C45.9241 52.9892 47.1553 54.2204 48.6741 54.2204C50.1929 54.2204 51.4241 52.9892 51.4241 51.4704C51.4241 49.9516 50.1929 48.7204 48.6741 48.7204ZM37.0615 67.114C38.9945 67.114 40.5615 65.547 40.5615 63.614C40.5615 61.681 38.9945 60.114 37.0615 60.114C35.1285 60.114 33.5615 61.681 33.5615 63.614C33.5615 65.547 35.1285 67.114 37.0615 67.114ZM37.0615 68.614C39.8229 68.614 42.0615 66.3754 42.0615 63.614C42.0615 60.8525 39.8229 58.614 37.0615 58.614C34.3 58.614 32.0615 60.8525 32.0615 63.614C32.0615 66.3754 34.3 68.614 37.0615 68.614ZM62.0739 57.0102L65.0739 55.3436L68.0739 57.0102V60.245L65.0739 61.9117L62.0739 60.245V57.0102ZM64.6167 53.8816C64.901 53.7237 65.2467 53.7237 65.531 53.8816L69.0897 55.8587C69.3885 56.0247 69.5739 56.3396 69.5739 56.6815V60.5738C69.5739 60.9156 69.3885 61.2306 69.0897 61.3966L65.531 63.3737C65.2467 63.5316 64.901 63.5316 64.6167 63.3737L61.058 61.3966C60.7592 61.2306 60.5739 60.9156 60.5739 60.5738V56.6815C60.5739 56.3396 60.7592 56.0247 61.058 55.8587L64.6167 53.8816ZM65.2462 49.7205C64.9239 49.4603 64.4517 49.5106 64.1915 49.8329C63.9312 50.1552 63.9816 50.6274 64.3038 50.8876L66.0367 52.2868C66.1914 52.4117 66.3895 52.4701 66.5873 52.449C66.7851 52.4279 66.9664 52.3291 67.0914 52.1744L68.4906 50.4413C68.7508 50.1191 68.7004 49.6469 68.3781 49.3867C68.0559 49.1265 67.5837 49.1768 67.3235 49.4991L67.2153 49.6331C66.6932 43.67 63.3312 38.5218 58.4926 35.5483C58.2018 35.3696 57.9056 35.1987 57.6043 35.036C57.2399 34.8391 56.7849 34.9749 56.588 35.3393C56.3911 35.7038 56.5269 36.1588 56.8913 36.3557C57.168 36.5052 57.4401 36.6621 57.7073 36.8263C62.2528 39.6197 65.3763 44.4973 65.7488 50.1264L65.2462 49.7205ZM45.5917 66.1612C45.8384 66.4939 45.7687 66.9636 45.436 67.2103L44.801 67.6812C44.8674 67.7049 44.9308 67.7273 44.9904 67.7482C46.2313 68.0379 47.5254 68.1914 48.8562 68.1914C52.102 68.1914 55.1324 67.2787 57.7073 65.6963C58.6676 65.1062 59.5647 64.4228 60.3858 63.6587C60.6891 63.3766 61.1636 63.3937 61.4458 63.6969C61.728 64.0002 61.7109 64.4748 61.4076 64.7569C60.5142 65.5882 59.538 66.3319 58.4926 66.9743C55.6883 68.6977 52.3871 69.6914 48.8562 69.6914C47.5907 69.6914 46.3544 69.5637 45.1595 69.3204C45.3698 69.6494 45.2923 70.0898 44.9739 70.326C44.6412 70.5727 44.1714 70.5031 43.9247 70.1704L42.5978 68.3814C42.4793 68.2216 42.4292 68.0213 42.4584 67.8245C42.4876 67.6277 42.5937 67.4506 42.7535 67.3321L44.5425 66.0055C44.8752 65.7588 45.3449 65.8285 45.5917 66.1612Z" fill="#111417"/>
<rect x="44.6787" y="30.2764" width="9.5" height="7.5" rx="1.13259" fill="#3670F2" stroke="black" stroke-width="1.5"/>
</svg>
