<svg width="100" height="100" viewBox="0 0 100 100" fill="none" xmlns="http://www.w3.org/2000/svg">
<rect x="1" y="1" width="98" height="98" rx="29" fill="#F5F9FC"/>
<rect x="1" y="1" width="98" height="98" rx="29" stroke="#111417" stroke-width="2"/>
<circle cx="62" cy="38" r="2" fill="#3167FF"/>
<circle cx="46" cy="42" r="2" fill="#A58D62"/>
<circle cx="38" cy="45" r="2" fill="#E33C21"/>
<path fill-rule="evenodd" clip-rule="evenodd" d="M55.6647 42.9033L59.1997 39.761C59.0344 39.4063 58.942 39.0107 58.942 38.5936C58.942 37.0656 60.1807 35.8269 61.7087 35.8269C63.2366 35.8269 64.4753 37.0656 64.4753 38.5936C64.4753 40.1215 63.2366 41.3602 61.7087 41.3602C61.1957 41.3602 60.7153 41.2205 60.3035 40.9772L56.5691 44.2967C56.6343 44.5321 56.6691 44.7801 56.6691 45.0362C56.6691 46.5642 55.4304 47.8029 53.9025 47.8029C52.3745 47.8029 51.1359 46.5642 51.1359 45.0362C51.1359 44.9163 51.1435 44.7981 51.1583 44.6822L48.1205 43.2466C47.6154 43.7884 46.8954 44.1272 46.0963 44.1272C45.2089 44.1272 44.4191 43.7094 43.9128 43.0598L40.984 44.7203C40.8542 44.1659 40.5577 43.6756 40.1502 43.3052L43.3332 41.5006C43.3308 41.4542 43.3297 41.4076 43.3297 41.3606C43.3297 39.8327 44.5683 38.594 46.0963 38.594C47.6242 38.594 48.8629 39.8327 48.8629 41.3606C48.8629 41.4987 48.8528 41.6343 48.8333 41.767L51.8427 43.1892C52.3492 42.6247 53.0844 42.2696 53.9025 42.2696C54.572 42.2696 55.1861 42.5075 55.6647 42.9033ZM47.2206 41.3606C47.2206 41.9816 46.7172 42.485 46.0963 42.485C45.4753 42.485 44.972 41.9816 44.972 41.3606C44.972 40.7397 45.4753 40.2363 46.0963 40.2363C46.7172 40.2363 47.2206 40.7397 47.2206 41.3606ZM53.9025 46.1606C54.5234 46.1606 55.0268 45.6572 55.0268 45.0362C55.0268 44.4153 54.5234 43.9119 53.9025 43.9119C53.2815 43.9119 52.7781 44.4153 52.7781 45.0362C52.7781 45.6572 53.2815 46.1606 53.9025 46.1606ZM62.833 38.5936C62.833 39.2145 62.3296 39.7179 61.7087 39.7179C61.0877 39.7179 60.5843 39.2145 60.5843 38.5936C60.5843 37.9726 61.0877 37.4692 61.7087 37.4692C62.3296 37.4692 62.833 37.9726 62.833 38.5936Z" fill="#071119"/>
<path fill-rule="evenodd" clip-rule="evenodd" d="M38.2901 48.1199C39.8181 48.1199 41.0567 46.8812 41.0567 45.3533C41.0567 43.8253 39.8181 42.5867 38.2901 42.5867C36.7621 42.5867 35.5235 43.8253 35.5235 45.3533C35.5235 46.8812 36.7621 48.1199 38.2901 48.1199ZM38.2901 46.4776C38.911 46.4776 39.4144 45.9742 39.4144 45.3533C39.4144 44.7323 38.911 44.2289 38.2901 44.2289C37.6692 44.2289 37.1658 44.7323 37.1658 45.3533C37.1658 45.9742 37.6692 46.4776 38.2901 46.4776Z" fill="#071119"/>
<path d="M38.2771 50.6185C38.7306 50.6185 39.0983 50.9861 39.0983 51.4396V54.8196C39.0983 55.2731 38.7306 55.6407 38.2771 55.6407C37.8236 55.6407 37.456 55.2731 37.456 54.8196V51.4396C37.456 50.9861 37.8236 50.6185 38.2771 50.6185Z" fill="#071119"/>
<path d="M54.7288 51.4396C54.7288 50.9861 54.3611 50.6185 53.9076 50.6185C53.4541 50.6185 53.0865 50.9861 53.0865 51.4396V54.8196C53.0865 55.2731 53.4541 55.6407 53.9076 55.6407C54.3611 55.6407 54.7288 55.2731 54.7288 54.8196V51.4396Z" fill="#071119"/>
<path d="M61.722 43.8712C62.1755 43.8712 62.5431 44.2388 62.5431 44.6923V54.8196C62.5431 55.2731 62.1755 55.6407 61.722 55.6407C61.2685 55.6407 60.9008 55.2731 60.9008 54.8196V44.6923C60.9008 44.2388 61.2685 43.8712 61.722 43.8712Z" fill="#071119"/>
<path d="M46.9137 48.1199C46.9137 47.6664 46.5461 47.2987 46.0926 47.2987C45.6391 47.2987 45.2714 47.6664 45.2714 48.1199V54.8198C45.2714 55.2733 45.6391 55.6409 46.0926 55.6409C46.5461 55.6409 46.9137 55.2733 46.9137 54.8198V48.1199Z" fill="#071119"/>
<path fill-rule="evenodd" clip-rule="evenodd" d="M31 35.1897C31 33.9804 31.9804 33 33.1897 33H66.8103C68.0196 33 69 33.9804 69 35.1897V58.1001C69 59.3095 68.0196 60.2898 66.8103 60.2898H50.821V66.0825H57.5003C57.9538 66.0825 58.3214 66.4501 58.3214 66.9036C58.3214 67.3571 57.9538 67.7247 57.5003 67.7247H50.0051L49.9998 67.7248L49.9945 67.7247H42.4989C42.0454 67.7247 41.6778 67.3571 41.6778 66.9036C41.6778 66.4501 42.0454 66.0825 42.4989 66.0825H49.1787V60.2898L33.1897 60.2898C31.9804 60.2898 31 59.3095 31 58.1001V35.1897ZM33.1897 34.6423H66.8103C67.1126 34.6423 67.3577 34.8874 67.3577 35.1897V58.1001C67.3577 58.4024 67.1126 58.6475 66.8103 58.6475H33.1897C32.8874 58.6475 32.6423 58.4024 32.6423 58.1001V35.1897C32.6423 34.8874 32.8874 34.6423 33.1897 34.6423Z" fill="#071119"/>
</svg>
