<svg width="123" height="39" viewBox="0 0 123 39" fill="none" xmlns="http://www.w3.org/2000/svg">
<g clip-path="url(#clip0_612_3257)">
<path d="M38.5347 24.6943C38.6177 24.1407 38.692 23.6384 38.7662 23.1385C38.9624 21.8362 39.1621 20.534 39.3512 19.2366C39.3777 19.0611 39.4201 18.9928 39.5544 18.9928C39.8284 18.9928 40.1041 18.9928 40.401 18.9928L40.3215 19.6805C40.7068 19.1927 41.1009 18.8586 41.5922 18.8489C42.0836 18.8391 42.4954 19.0635 42.6615 19.9195C42.7016 19.8198 42.7471 19.7244 42.7976 19.6341C42.9941 19.337 43.2411 19.1121 43.5163 18.9797C43.7915 18.8473 44.0863 18.8115 44.3741 18.8757C44.5772 18.902 44.7657 19.0327 44.9023 19.2419C45.0388 19.451 45.1133 19.7233 45.1111 20.0048C45.0839 20.5857 45.0248 21.1628 44.9344 21.7314C44.8089 22.6459 44.6622 23.5555 44.5173 24.4675C44.5049 24.548 44.436 24.6699 44.3918 24.6748C44.0754 24.6919 43.759 24.6748 43.4073 24.6748C43.4798 24.1871 43.5452 23.7286 43.6124 23.275C43.7414 22.402 43.8757 21.5265 44.0047 20.651C44.0842 20.1097 43.8492 19.7951 43.4568 19.9195C43.2802 19.9763 43.1176 20.0964 42.9854 20.2676C42.8532 20.4389 42.7561 20.6553 42.7039 20.8949C42.5431 21.5655 42.4317 22.2581 42.3133 22.9458C42.2267 23.4335 42.1613 23.9213 42.0924 24.4309C42.0677 24.5919 42.0235 24.6748 41.8839 24.6748C41.5887 24.6577 41.2918 24.6748 40.9666 24.6748C41.0461 24.1334 41.1186 23.6262 41.1946 23.1165C41.3095 22.3361 41.4296 21.5582 41.5481 20.7779C41.5852 20.5096 41.6241 20.2243 41.4314 20.0243C41.3402 19.9387 41.2324 19.8929 41.1221 19.8929C41.0118 19.8929 40.904 19.9387 40.8128 20.0243C40.6374 20.1536 40.4861 20.3375 40.3711 20.5614C40.2561 20.7853 40.1804 21.0431 40.1501 21.3144C39.9822 22.2898 39.8408 23.2872 39.6852 24.2749C39.6039 24.7845 39.6746 24.6943 39.2982 24.7041C39.0596 24.6992 38.8174 24.6943 38.5347 24.6943Z" fill="white"/>
<path d="M32.9849 24.6943L33.7979 22.7141C34.5755 20.8266 35.3585 18.9245 36.1308 17.0248C36.1544 16.9457 36.1959 16.8793 36.2491 16.8354C36.3023 16.7915 36.3643 16.7723 36.426 16.7809C36.7794 16.798 37.1435 16.7809 37.5253 16.7809C37.8363 19.4146 38.1439 22.0289 38.4567 24.6845C38.1032 24.6845 37.778 24.6845 37.4493 24.6845C37.4069 24.6845 37.345 24.5407 37.3344 24.4553C37.2814 24.0334 37.2354 23.6115 37.1983 23.1872C37.1824 23.0043 37.1294 22.9434 36.9951 22.9434C36.3376 22.9531 35.6807 22.9531 35.0244 22.9434C34.9726 22.9376 34.9208 22.9551 34.8769 22.9934C34.8329 23.0316 34.7991 23.0885 34.7805 23.1555C34.6126 23.5945 34.427 24.0237 34.268 24.4651C34.2489 24.5434 34.211 24.6103 34.1605 24.6547C34.11 24.6991 34.05 24.7182 33.9905 24.7089C33.6741 24.6845 33.356 24.6943 32.9849 24.6943ZM37.0216 21.6289C36.9085 20.5608 36.8006 19.5317 36.6928 18.5026H36.6398L35.2825 21.6289H37.0216Z" fill="white"/>
<path d="M16.9443 24.6943C17.015 24.2066 17.0769 23.792 17.1405 23.3677C17.4645 21.2542 17.7874 19.1342 18.109 17.0077C18.1302 16.8638 18.1568 16.7858 18.2858 16.7858C19.5442 16.7858 20.8025 16.7858 22.0609 16.7858C22.0886 16.7924 22.1157 16.8022 22.1422 16.8151C22.0821 17.2028 22.0309 17.593 21.9549 17.9759C21.9443 18.0344 21.8205 18.0807 21.7481 18.0807C20.9422 18.0807 20.1362 18.0953 19.3303 18.0807C19.1536 18.0807 19.0864 18.1612 19.0564 18.3929C18.9874 18.9172 18.9026 19.4366 18.8142 20.017H21.5908L21.3946 21.3144H20.3342C19.8252 21.3144 19.3162 21.3144 18.8072 21.3144C18.6516 21.3144 18.6021 21.3924 18.5739 21.5826C18.4378 22.5264 18.2858 23.4652 18.155 24.409C18.1214 24.6382 18.056 24.7114 17.8899 24.7016C17.5877 24.6821 17.2907 24.6943 16.9443 24.6943Z" fill="white"/>
<path d="M53.5079 19.0074C53.3311 20.1877 53.1544 21.3461 52.9776 22.5044C52.8804 23.1507 52.7797 23.7969 52.6878 24.4553C52.6613 24.6358 52.6136 24.7187 52.4669 24.6992C52.1788 24.6821 51.8907 24.6992 51.5478 24.6992C51.8271 22.8556 52.0993 21.0412 52.3714 19.2415L52.3361 19.2171C52.2866 19.3513 52.2354 19.4854 52.1859 19.6219C52.1444 19.7665 52.0941 19.906 52.0356 20.039C51.9968 20.117 51.9119 20.2121 51.8589 20.2023C51.2704 20.0902 50.8886 20.5169 50.6465 21.1778C50.4897 21.6544 50.3712 22.1532 50.293 22.6654C50.1799 23.2677 50.1039 23.8847 50.0014 24.487C49.9855 24.5699 49.9095 24.6943 49.8565 24.6992C49.5472 24.7187 49.2379 24.6992 48.8809 24.6992C48.9356 24.3285 48.9816 23.992 49.0311 23.6555C49.2538 22.1923 49.4835 20.7291 49.6956 19.2659C49.7292 19.0367 49.7981 18.9855 49.9484 18.9903C50.2082 19.0025 50.468 18.9903 50.7578 18.9903L50.6253 19.9487L50.6659 19.9829C50.7172 19.8902 50.7684 19.7975 50.8232 19.7073C51.0742 19.2854 51.3534 18.9318 51.7758 18.8611C51.8452 18.8417 51.9167 18.8417 51.9862 18.8611C52.4192 19.0489 52.8698 18.9855 53.3081 18.9952C53.3682 18.9928 53.4301 19.0025 53.5079 19.0074Z" fill="white"/>
<path d="M46.3095 22.3069C46.2583 22.9556 46.4527 23.4628 46.8097 23.6676C46.9957 23.7674 47.2007 23.7773 47.3913 23.6959C47.582 23.6144 47.747 23.4463 47.8595 23.2189C47.8963 23.1224 47.9575 23.048 48.0315 23.0097C48.1055 22.9715 48.1871 22.9722 48.2607 23.0116C48.4852 23.0897 48.7167 23.1189 48.9677 23.1775C48.8196 23.6529 48.5738 24.0581 48.2607 24.3431C47.9772 24.6143 47.6483 24.7812 47.305 24.8281C46.9618 24.8751 46.6155 24.8005 46.2989 24.6114C45.6132 24.2212 45.2862 23.4482 45.2261 22.4459C45.136 20.9266 45.7422 19.4903 46.6701 19.0318C47.0837 18.8246 47.5306 18.7782 47.962 18.8977C48.6513 19.0928 49.1144 19.8536 49.1656 20.8973C49.1851 21.2729 49.1462 21.6533 49.1409 22.0313C49.1409 22.2508 49.0667 22.302 48.9164 22.302C48.1246 22.302 47.3258 22.302 46.5428 22.302L46.3095 22.3069ZM48.16 21.3753C48.2307 20.8437 48.1246 20.3608 47.8772 20.1194C47.7538 19.9942 47.6065 19.9217 47.4535 19.9108C47.3005 19.9 47.1486 19.9513 47.0165 20.0585C46.844 20.1901 46.6986 20.3799 46.5938 20.6103C46.489 20.8406 46.4283 21.1038 46.4174 21.3753H48.16Z" fill="white"/>
<path d="M59.441 24.0603C59.1936 24.4225 58.8747 24.6768 58.5237 24.7919C58.3357 24.856 58.1391 24.8544 57.9517 24.7871C57.7643 24.7199 57.5921 24.5891 57.4506 24.4067C57.3091 24.2243 57.2028 23.9961 57.1415 23.7426C57.0801 23.4892 57.0656 23.2187 57.0992 22.9556C57.1964 21.9947 57.5852 21.4924 58.37 21.3534C58.7552 21.2827 59.1423 21.2339 59.5258 21.1583C59.8174 21.0998 59.8581 21.0193 59.8793 20.6071C59.8888 20.4699 59.863 20.3324 59.8065 20.2187C59.7499 20.1051 59.6662 20.0224 59.57 19.9853C59.1723 19.7951 58.8118 20.0024 58.5714 20.5803L57.5517 20.4413C57.6278 20.1074 57.7608 19.8034 57.9394 19.5548C58.118 19.3062 58.3372 19.1202 58.5785 19.0123C59.0657 18.7952 59.5881 18.7774 60.0825 18.9611C60.7559 19.2049 61.0334 19.9365 60.8761 21.0242C60.7648 21.7948 60.634 22.5629 60.5509 23.3409C60.5278 23.7914 60.5278 24.2437 60.5509 24.6943C60.2558 24.6943 59.9535 24.6943 59.6513 24.6943C59.6234 24.6842 59.5975 24.6652 59.5757 24.639C59.5539 24.6128 59.5369 24.58 59.5258 24.5431C59.4896 24.385 59.4612 24.2237 59.441 24.0603ZM59.6531 22.0338C59.5553 22.0435 59.4579 22.0606 59.3615 22.085C59.0256 22.1799 58.694 22.3012 58.3682 22.4483C58.2772 22.516 58.2049 22.6233 58.1625 22.7534C58.1201 22.8836 58.11 23.0294 58.1338 23.1683C58.1575 23.3071 58.2138 23.4313 58.2939 23.5216C58.374 23.6119 58.4734 23.6632 58.5767 23.6676C58.7444 23.6663 58.9102 23.619 59.0645 23.5286C59.5152 23.2458 59.5735 22.6459 59.6531 22.0459V22.0338Z" fill="white"/>
<path d="M60.8213 24.6943C60.968 23.7189 61.1058 22.7922 61.2472 21.8631C61.3745 21.0071 61.5141 20.156 61.6307 19.2952C61.6661 19.0367 61.7492 18.9708 61.9241 18.983C62.1769 19.0001 62.4314 18.983 62.7124 18.983L62.6346 19.6975C62.7866 19.5488 62.9103 19.4195 63.0376 19.3025C63.405 18.9456 63.8552 18.7892 64.3013 18.8635C64.4444 18.8794 64.5834 18.9379 64.7086 19.0352C64.8337 19.1324 64.9421 19.266 65.0261 19.4268C65.1102 19.5875 65.1679 19.7715 65.1953 19.966C65.2228 20.1606 65.2192 20.361 65.185 20.5535C65.0418 21.6314 64.8774 22.7044 64.7201 23.7823C64.6866 24.0261 64.6583 24.27 64.6088 24.4919C64.5911 24.5699 64.5169 24.6772 64.4674 24.6797C64.151 24.6968 63.8329 24.6797 63.4865 24.6797C63.566 24.1481 63.6385 23.6506 63.7145 23.1507C63.8311 22.3727 63.9531 21.5924 64.068 20.812C64.1669 20.1267 63.8311 19.7268 63.361 19.9707C63.1434 20.0754 62.9484 20.2541 62.7939 20.4902C62.6395 20.7263 62.5306 21.0122 62.4773 21.3217C62.3165 22.185 62.1822 23.0604 62.0479 23.9335C61.9347 24.6651 61.9418 24.6797 61.3798 24.6797L60.8213 24.6943Z" fill="white"/>
<path d="M29.6591 20.3145C29.3409 20.3926 29.0511 20.4706 28.7577 20.5291C28.727 20.5285 28.6969 20.5177 28.6699 20.4978C28.6428 20.4779 28.6196 20.4493 28.6022 20.4145C28.3812 19.8341 27.6142 19.7585 27.3084 20.017C27.2545 20.0645 27.2089 20.1278 27.1747 20.2024C27.1405 20.277 27.1185 20.3611 27.1105 20.4486C27.1242 20.5344 27.1519 20.6147 27.1914 20.6835C27.2309 20.7524 27.2812 20.808 27.3385 20.8461C27.6372 21.0193 27.9535 21.129 28.2593 21.2753C28.4411 21.3581 28.6184 21.4592 28.7895 21.5777C28.9188 21.6591 29.0345 21.7765 29.1293 21.9225C29.2241 22.0685 29.296 22.24 29.3405 22.4261C29.385 22.6123 29.4011 22.8092 29.3877 23.0044C29.3744 23.1996 29.332 23.3889 29.2632 23.5603C29.1682 23.8397 29.0287 24.0858 28.8552 24.2805C28.6817 24.4751 28.4786 24.6133 28.2611 24.6846C27.6572 24.9154 27.0165 24.8831 26.4265 24.5919C26.1889 24.4723 25.9756 24.2756 25.8045 24.0184C25.6335 23.7612 25.5098 23.451 25.4438 23.1141C25.7814 23.0434 26.0978 22.9702 26.4159 22.919C26.4636 22.919 26.5396 22.9897 26.5714 23.0555C26.7094 23.3763 26.931 23.6122 27.1908 23.7151C27.4507 23.818 27.7292 23.7801 27.9694 23.6091C28.1267 23.4994 28.2628 23.3653 28.254 23.0799C28.2451 22.7946 28.1055 22.7239 27.9553 22.6434C27.5223 22.4142 27.0822 22.1996 26.6545 21.9508C26.5063 21.871 26.3759 21.7389 26.2764 21.5677C26.1768 21.3965 26.1116 21.1923 26.0872 20.9754C26.0426 20.617 26.0852 20.2483 26.2083 19.9268C26.3313 19.6053 26.528 19.3489 26.7676 19.1976C27.1939 18.9042 27.6732 18.7897 28.1462 18.8684C28.4309 18.8974 28.7111 18.982 28.9786 19.1196C29.1559 19.2234 29.3112 19.3874 29.4302 19.5964C29.5491 19.8053 29.6279 20.0523 29.6591 20.3145Z" fill="white"/>
<path d="M56.0353 22.5776L57.0021 22.797C56.8784 23.6969 56.1873 24.6114 55.4751 24.748C55.1554 24.8147 54.83 24.8081 54.5118 24.7284C53.8349 24.548 53.3843 23.7774 53.3189 22.7775C53.269 22.0968 53.3425 21.4097 53.5327 20.7778C53.7502 20.0671 54.1472 19.4894 54.6501 19.1521C55.153 18.8148 55.7275 18.7409 56.2669 18.944C56.5558 19.049 56.8132 19.2776 57.0021 19.597C57.191 19.9164 57.3018 20.3101 57.3185 20.7218L56.8254 20.7974L56.3093 20.8754C56.2881 20.7998 56.2669 20.7315 56.2527 20.6608C56.2326 20.5288 56.1915 20.4046 56.1325 20.2971C56.0734 20.1896 55.9977 20.1016 55.911 20.0393C55.8243 19.977 55.7286 19.9421 55.6309 19.9369C55.5333 19.9318 55.4359 19.9567 55.3461 20.0097C55.1918 20.0822 55.0508 20.2 54.9327 20.3549C54.8147 20.5098 54.7223 20.6982 54.6621 20.9071C54.4754 21.4547 54.3858 22.0557 54.4005 22.6605C54.3936 22.8372 54.4231 23.013 54.4857 23.1675C54.5483 23.3221 54.6413 23.449 54.754 23.5335C54.8702 23.6216 55.0032 23.6584 55.135 23.6388C55.2668 23.6191 55.3911 23.5441 55.491 23.4238C55.687 23.1602 55.8689 22.8773 56.0353 22.5776Z" fill="white"/>
<path d="M31.6279 23.6384C31.5806 23.8711 31.5458 24.1083 31.5236 24.348C31.5112 24.6992 31.3751 24.8211 31.1471 24.8114C30.9009 24.8148 30.6547 24.796 30.4101 24.7553C30.304 24.7379 30.2017 24.6898 30.1099 24.6141C30.0182 24.5383 29.9391 24.4367 29.8778 24.3157C29.8166 24.1948 29.7746 24.0574 29.7545 23.9125C29.7345 23.7676 29.7369 23.6185 29.7615 23.475C29.8888 22.4995 30.039 21.5241 30.1786 20.5316C30.1963 20.3999 30.2157 20.2682 30.2387 20.1048H29.7085C29.7615 19.7512 29.8057 19.4317 29.8623 19.1171C29.8711 19.0659 29.9347 19.0098 29.9789 18.9976C30.0628 18.9818 30.1478 18.9818 30.2316 18.9976C30.2606 19.0109 30.2916 19.0136 30.3216 19.0054C30.3516 18.9972 30.3795 18.9784 30.4026 18.9509C30.4258 18.9234 30.4433 18.8881 30.4536 18.8484C30.4639 18.8087 30.4666 18.766 30.4614 18.7245C30.4614 18.5021 30.5108 18.2851 30.6031 18.1027C30.6954 17.9204 30.8261 17.7816 30.9775 17.7052C31.255 17.5247 31.5077 17.2735 31.8187 17.0175C31.718 17.7003 31.6261 18.3197 31.5289 18.9855H32.204C32.1475 19.3781 32.098 19.717 32.045 20.0999C31.8682 20.0999 31.7003 20.0999 31.5324 20.0999C31.4069 20.0999 31.3433 20.1389 31.3168 20.3243C31.1843 21.2583 31.0393 22.1898 30.9068 23.1238C30.8573 23.4774 30.9492 23.6408 31.209 23.6676C31.3489 23.669 31.4888 23.6592 31.6279 23.6384Z" fill="white"/>
<path d="M24.7739 18.9879L24.6396 19.9633C25.1009 19.2318 25.5781 18.5514 26.407 19.0123C26.2798 19.3878 26.1613 19.7439 26.0323 20.0999C26.0152 20.1316 25.9931 20.1574 25.9677 20.1756C25.9423 20.1938 25.9142 20.2037 25.8856 20.2048C25.2476 20.1828 24.8252 20.5267 24.5884 21.3534C24.4522 21.8838 24.34 22.4254 24.2526 22.9751C24.166 23.4628 24.1023 23.9505 24.0334 24.4382C24.0069 24.626 23.9609 24.7236 23.8001 24.7114C23.512 24.6919 23.224 24.7114 22.9164 24.7114C22.912 24.64 22.912 24.5682 22.9164 24.4968C23.1815 22.7458 23.4466 20.9965 23.7117 19.2488C23.7365 19.083 23.7789 18.9928 23.9168 19.005C24.1942 18.9976 24.4682 18.9879 24.7739 18.9879Z" fill="white"/>
<path d="M23.3172 18.9903C23.0928 20.4535 22.8754 21.8996 22.658 23.3311C22.5997 23.7213 22.5431 24.1115 22.4812 24.4968C22.4689 24.5699 22.407 24.6821 22.3664 24.6846C22.0447 24.6992 21.7213 24.6846 21.3643 24.6846C21.435 24.1968 21.495 23.7701 21.5622 23.336C21.769 21.9704 21.9828 20.6047 22.1843 19.2342C22.2126 19.0415 22.2639 18.9757 22.4035 18.9903C22.6969 19.0001 22.9991 18.9903 23.3172 18.9903Z" fill="white"/>
<path d="M22.3452 18.1636C22.4106 17.7174 22.4689 17.3101 22.5343 16.9053C22.5435 16.8772 22.5575 16.8526 22.575 16.8335C22.5925 16.8144 22.6131 16.8014 22.6351 16.7956C22.9656 16.7956 23.2943 16.7956 23.646 16.7956C23.5824 17.2272 23.5258 17.6271 23.4693 18.0149C23.4587 18.071 23.4021 18.1539 23.3668 18.1539C23.0274 18.1685 22.6987 18.1636 22.3452 18.1636Z" fill="white"/>
<path d="M52.5396 18.1636C52.6049 17.7174 52.6633 17.3077 52.7287 16.9029C52.7382 16.8744 52.7527 16.8497 52.7709 16.8309C52.7891 16.8122 52.8104 16.8 52.8329 16.7956C53.1617 16.7956 53.4922 16.7956 53.8403 16.7956C53.7785 17.2199 53.7255 17.6101 53.6636 17.9954C53.653 18.0612 53.5911 18.1588 53.5505 18.1612C53.22 18.1685 52.8913 18.1636 52.5396 18.1636Z" fill="white"/>
<path d="M25.0636 35L23.9166 34.7562C21.4665 34.2612 19.0578 33.4346 16.7251 32.2883C14.6043 31.2421 12.5735 29.9447 10.739 28.1158C9.67856 27.0647 8.73478 25.8649 8.03666 24.331C7.49703 23.2144 7.21203 21.9005 7.21837 20.5584C7.24134 19.0318 7.66198 17.7028 8.29824 16.4883C9.12891 14.9032 10.2017 13.6741 11.3646 12.5865C13.2769 10.7941 15.3554 9.44309 17.4922 8.2506C20.6134 6.51916 23.8194 5.1901 27.0661 4.00005C27.0996 3.98729 27.1354 3.99162 27.1668 4.01224C26.5076 4.4073 25.8466 4.7926 25.1909 5.19742C22.2818 6.98738 19.4398 8.95536 16.7958 11.4233C15.3112 12.8157 13.9079 14.335 12.722 16.2054C11.9933 17.2957 11.4244 18.5701 11.0465 19.9585C10.7894 20.896 10.7013 21.9056 10.7897 22.9005C10.878 23.8954 11.1402 24.8457 11.5538 25.6698C12.2183 27.0745 13.1285 28.1426 14.1306 29.0449C15.7478 30.5227 17.5187 31.5567 19.3408 32.437C21.4236 33.4173 23.5486 34.2179 25.7034 34.8342C25.7847 34.8562 25.8642 34.8854 25.9561 34.9147L25.8713 35H25.0636Z" fill="white"/>
<path d="M14.3426 32.4346L13.678 32.2395C12.229 31.8133 10.8275 31.1228 9.51054 30.1862C8.22173 29.3039 7.04906 28.1302 6.04117 26.7136C5.38504 25.803 4.85443 24.7354 4.47527 23.5628C4.15342 22.5767 3.99118 21.5057 3.99984 20.4243C4.01683 19.2443 4.23158 18.0858 4.62726 17.0395C5.08174 15.825 5.68235 14.7258 6.40348 13.7888C7.4724 12.3853 8.66537 11.1734 9.95415 10.182C11.7306 8.79542 13.5867 7.61276 15.5037 6.64599C15.5134 6.64093 15.5238 6.63939 15.5341 6.64153C15.5443 6.64367 15.5539 6.6494 15.5621 6.65818C15.1803 6.98496 14.7968 7.30686 14.4168 7.63364C12.6714 9.13087 11.0411 10.8697 9.55119 12.8231C8.64444 14.0027 7.85091 15.3378 7.18997 16.7956C6.74997 17.7604 6.42255 18.8145 6.21967 19.9195C5.91722 21.5031 6.02087 23.1822 6.51306 24.6724C6.87213 25.7353 7.37963 26.6899 8.0065 27.4817C8.90499 28.6261 9.92322 29.5772 11.027 30.3032C12.2133 31.1047 13.4459 31.7686 14.7119 32.2883L14.8569 32.3541L14.8091 32.4249L14.3426 32.4346Z" fill="white"/>
<path d="M17.0788 29.118L16.7642 29.0009C16.0644 28.7401 15.3987 28.3286 14.7918 27.7816C14.1603 27.2264 13.6046 26.5223 13.1499 25.7014C12.8301 25.1331 12.5799 24.4963 12.4094 23.8164C12.2546 23.2137 12.1786 22.5779 12.1849 21.9386C12.1899 21.2435 12.29 20.5559 12.4801 19.9121C12.6858 19.2058 12.9696 18.5477 13.3214 17.9612C13.8106 17.1431 14.3757 16.4175 15.0021 15.803C15.8271 14.9856 16.7058 14.2769 17.6267 13.6863C17.6309 13.6823 17.6358 13.6801 17.6408 13.6801C17.6459 13.6801 17.6508 13.6823 17.655 13.6863C17.4782 13.8838 17.3015 14.0765 17.1124 14.2764C16.27 15.1967 15.4999 16.2363 14.8148 17.3784C14.3746 18.1061 13.9995 18.9044 13.6978 19.756C13.4853 20.3487 13.3307 20.9777 13.2383 21.6265C13.0934 22.5696 13.138 23.5495 13.3673 24.4602C13.5288 25.0745 13.7682 25.6442 14.0743 26.1428C14.4825 26.8071 14.9652 27.3768 15.5041 27.8304C16.0556 28.3069 16.6399 28.7072 17.2485 29.0253L17.3174 29.0643L17.2944 29.1082L17.0788 29.118Z" fill="white"/>
<path d="M67.4189 24.9089L68.5306 17.5759H69.2376L68.7781 20.6218H71.5316L71.9929 17.5759H72.6999L71.59 24.9089H70.883L71.4132 21.4534H68.6543L68.1241 24.9089H67.4189Z" fill="white"/>
<path d="M72.8308 22.8922C72.8065 21.9487 73.0435 21.0279 73.4936 20.3169C73.6737 20.0407 73.8956 19.8224 74.1436 19.6775C74.3915 19.5325 74.6596 19.4644 74.9287 19.4781C75.1356 19.4658 75.3422 19.5127 75.5353 19.6159C75.7285 19.7192 75.904 19.8765 76.051 20.078C76.1966 20.2951 76.3093 20.5502 76.3825 20.8282C76.4556 21.1063 76.4877 21.4018 76.4769 21.6972C76.4807 22.2867 76.3889 22.87 76.2083 23.4043C76.0481 23.9072 75.7821 24.332 75.4448 24.6236C75.1336 24.8968 74.7726 25.0423 74.4038 25.043C74.1193 25.0486 73.8383 24.9573 73.5855 24.7772C73.3481 24.6107 73.1524 24.35 73.0234 24.0286C72.8892 23.6791 72.8228 23.2876 72.8308 22.8922ZM73.4865 22.8019C73.4648 23.2133 73.5577 23.6207 73.7463 23.9408C73.8305 24.0673 73.9334 24.1673 74.048 24.2342C74.1627 24.3011 74.2864 24.3333 74.4108 24.3285C74.5541 24.3276 74.6958 24.2878 74.8279 24.2115C74.9716 24.1278 75.1019 24.006 75.2115 23.853C75.3309 23.6922 75.4328 23.5081 75.5137 23.3067C75.598 23.0963 75.6655 22.8739 75.7152 22.6434C75.7873 22.336 75.8254 22.0154 75.8283 21.6923C75.8453 21.2898 75.7512 20.8934 75.5649 20.5828C75.4824 20.4541 75.3804 20.3519 75.2663 20.2832C75.1521 20.2146 75.0284 20.1811 74.9039 20.1853C74.7069 20.1825 74.5128 20.2523 74.3419 20.3877C74.1601 20.5381 74.0034 20.7401 73.8824 20.9803C73.7418 21.2539 73.6398 21.5616 73.5819 21.8874C73.5233 22.1858 73.4913 22.4929 73.4865 22.8019Z" fill="white"/>
<path d="M76.8389 24.9089L77.643 19.6073H78.2987L78.1644 20.4828C78.3499 20.174 78.5715 19.9102 78.8201 19.7024C79.0115 19.5589 79.2262 19.485 79.444 19.4878C79.66 19.4776 79.872 19.5697 80.0449 19.7487C80.2094 19.9337 80.3214 20.1928 80.3613 20.4803C80.5306 20.1781 80.7406 19.9239 80.9798 19.7317C81.1881 19.5703 81.4232 19.4863 81.6621 19.4878C81.9239 19.4602 82.1834 19.5729 82.3867 19.8024C82.4692 19.9187 82.5333 20.0575 82.5747 20.21C82.6161 20.3624 82.6339 20.5251 82.627 20.6876C82.6163 20.9603 82.5885 21.2312 82.544 21.4972L82.0244 24.9113H81.3687L81.8989 21.3997C81.936 21.1984 81.9591 20.9926 81.9678 20.7852C81.9705 20.7089 81.9611 20.6328 81.9404 20.5621C81.9196 20.4913 81.888 20.4277 81.8476 20.3755C81.753 20.2679 81.6324 20.2139 81.5101 20.2243C81.2987 20.2307 81.0925 20.3148 80.9127 20.4681C80.7172 20.6217 80.554 20.8427 80.439 21.1095C80.2976 21.4936 80.1982 21.9045 80.1439 22.3288L79.7533 24.904H79.0958L79.6437 21.3143C79.6751 21.1442 79.6946 20.9702 79.702 20.7949C79.7045 20.7175 79.6952 20.6402 79.6748 20.568C79.6544 20.4958 79.6234 20.4302 79.5836 20.3755C79.5433 20.3214 79.4953 20.2792 79.4428 20.2515C79.3902 20.2238 79.3341 20.2112 79.2779 20.2145C79.0706 20.2229 78.8687 20.307 78.6928 20.4584C78.4868 20.6228 78.3151 20.858 78.1944 21.1412C78.0391 21.5328 77.9316 21.9572 77.8763 22.3971L77.4963 24.9089H76.8389Z" fill="white"/>
<path d="M85.8527 23.1043L86.4907 23.1921C86.3728 23.684 86.1528 24.1173 85.858 24.4382C85.5316 24.8298 85.1115 25.0401 84.6791 25.0284C84.4048 25.033 84.1343 24.9389 83.8944 24.7553C83.6592 24.5752 83.4707 24.2981 83.3554 23.9627C83.2254 23.5936 83.1595 23.1879 83.1627 22.7775C83.1636 22.1911 83.2641 21.6132 83.4561 21.09C83.6184 20.5927 83.8802 20.1697 84.2108 19.8707C84.511 19.6087 84.8594 19.4708 85.2146 19.4732C85.4179 19.4598 85.6209 19.5054 85.8106 19.6071C86.0002 19.7087 86.1723 19.8642 86.3157 20.0633C86.4575 20.2812 86.5667 20.5355 86.637 20.8117C86.7074 21.0879 86.7375 21.3805 86.7258 21.6728C86.7256 21.9409 86.709 22.2085 86.6763 22.4727H83.8485C83.839 22.5656 83.8343 22.6593 83.8343 22.7531C83.8152 23.1614 83.903 23.5656 84.0817 23.892C84.1555 24.0158 84.2483 24.1153 84.3535 24.1832C84.4587 24.2512 84.5736 24.2858 84.6897 24.2846C84.9282 24.2783 85.1596 24.171 85.3525 23.9773C85.5766 23.7587 85.7502 23.4556 85.8527 23.1043ZM83.9457 21.7874H86.1072C86.1072 21.6948 86.1072 21.6289 86.1072 21.5875C86.1256 21.2093 86.0369 20.8359 85.8597 20.5462C85.7792 20.4262 85.6808 20.3316 85.5713 20.2689C85.4618 20.2062 85.3437 20.1768 85.2252 20.1828C84.9447 20.1854 84.6743 20.3274 84.4635 20.5828C84.208 20.9044 84.0277 21.3238 83.9457 21.7874Z" fill="white"/>
<path d="M89.2671 24.9089L90.3752 17.5759H91.0822L90.1013 24.0773H92.8584L92.7329 24.9089H89.2671Z" fill="white"/>
<path d="M93.4612 22.8922C93.4369 21.9487 93.6739 21.0279 94.1239 20.3169C94.3041 20.0407 94.526 19.8224 94.7739 19.6775C95.0219 19.5325 95.2899 19.4644 95.5591 19.4781C95.766 19.4658 95.9726 19.5127 96.1657 19.6159C96.3589 19.7192 96.5344 19.8765 96.6813 20.078C96.827 20.2951 96.9397 20.5502 97.0128 20.8282C97.086 21.1063 97.1181 21.4018 97.1073 21.6972C97.1111 22.2867 97.0193 22.87 96.8386 23.4043C96.6785 23.9072 96.4125 24.332 96.0751 24.6236C95.764 24.8968 95.403 25.0423 95.0341 25.043C94.7497 25.0486 94.4686 24.9573 94.2158 24.7772C93.9789 24.61 93.7833 24.3494 93.6538 24.0286C93.5195 23.6791 93.4532 23.2876 93.4612 22.8922ZM94.1169 22.8019C94.0948 23.2138 94.1884 23.6216 94.3784 23.9408C94.4622 24.0675 94.5647 24.1677 94.6791 24.2346C94.7935 24.3015 94.917 24.3336 95.0412 24.3285C95.1845 24.3276 95.3262 24.2878 95.4583 24.2115C95.6019 24.1278 95.7323 24.006 95.8418 23.853C95.9613 23.6922 96.0631 23.5081 96.1441 23.3067C96.2283 23.0963 96.2959 22.8739 96.3455 22.6434C96.4176 22.336 96.4558 22.0154 96.4587 21.6923C96.4757 21.2898 96.3816 20.8934 96.1953 20.5828C96.1128 20.4541 96.0108 20.3519 95.8967 20.2832C95.7825 20.2146 95.6588 20.1811 95.5343 20.1853C95.3373 20.1828 95.1433 20.2527 94.9723 20.3877C94.7904 20.5381 94.6338 20.7401 94.5128 20.9803C94.3721 21.2539 94.2702 21.5616 94.2123 21.8874C94.1537 22.1858 94.1216 22.4929 94.1169 22.8019Z" fill="white"/>
<path d="M100.068 24.2407C99.8725 24.4835 99.6514 24.6833 99.4121 24.8333C99.1993 24.9588 98.9701 25.0227 98.7387 25.0211C98.582 25.0309 98.4254 24.9978 98.278 24.9237C98.1306 24.8496 97.9952 24.736 97.8797 24.5894C97.7721 24.4463 97.6873 24.2736 97.631 24.0825C97.5747 23.8914 97.548 23.6861 97.5528 23.4799C97.5494 23.2039 97.6001 22.9318 97.6995 22.6922C97.7952 22.4679 97.9293 22.2795 98.0901 22.1435C98.2725 21.993 98.474 21.8921 98.6839 21.846C98.9619 21.7883 99.2423 21.7565 99.5234 21.7509C99.8228 21.7518 100.121 21.691 100.407 21.5704C100.452 21.3713 100.478 21.1645 100.483 20.9559C100.485 20.8622 100.471 20.7692 100.443 20.6844C100.414 20.5997 100.371 20.5255 100.317 20.4681C100.121 20.285 99.8852 20.199 99.6489 20.2243C99.411 20.2078 99.1753 20.293 98.9738 20.4681C98.7943 20.6448 98.6605 20.896 98.592 21.1851L97.9275 21.1046C98.0413 20.6133 98.2669 20.1857 98.5708 19.8853C98.9012 19.5908 99.2894 19.4443 99.6825 19.4659C100.088 19.4357 100.487 19.6013 100.814 19.9341C100.915 20.0407 100.997 20.1789 101.052 20.3374C101.107 20.4959 101.135 20.6703 101.132 20.8461C101.127 21.1748 101.097 21.5018 101.042 21.8216L100.828 23.1409C100.768 23.4774 100.735 23.8214 100.727 24.1676C100.735 24.4106 100.762 24.6517 100.807 24.887H100.146C100.105 24.6755 100.078 24.4591 100.068 24.2407ZM100.312 22.2118C100.216 22.2623 100.117 22.3007 100.017 22.3264C99.9105 22.3532 99.7355 22.38 99.4863 22.4117C99.2135 22.4329 98.9429 22.4917 98.6786 22.5873C98.5369 22.6462 98.4129 22.7668 98.3251 22.9312C98.2464 23.0825 98.2043 23.2643 98.205 23.4506C98.2024 23.5675 98.2182 23.6837 98.2511 23.7914C98.284 23.8992 98.3334 23.9958 98.3958 24.0749C98.5467 24.2491 98.7404 24.3364 98.9366 24.3188C99.1613 24.3143 99.3813 24.2289 99.5747 24.0711C99.7682 23.9132 99.9284 23.6884 100.039 23.4189C100.177 23.0419 100.269 22.6367 100.312 22.2191V22.2118Z" fill="white"/>
<path d="M101.602 24.9089L102.406 19.6073H103L102.859 20.5315C103.071 20.219 103.316 19.9512 103.585 19.7365C103.796 19.5775 104.032 19.4937 104.273 19.4927C104.541 19.4713 104.804 19.5966 105.006 19.8414C105.095 19.9609 105.164 20.1046 105.21 20.2634C105.255 20.4222 105.276 20.5925 105.271 20.7632C105.26 21.0761 105.228 21.387 105.177 21.6923L104.688 24.9089H104.034L104.545 21.5436C104.587 21.3037 104.613 21.0587 104.621 20.812C104.623 20.7314 104.612 20.6512 104.589 20.5771C104.566 20.5029 104.532 20.4366 104.488 20.3828C104.38 20.2637 104.244 20.2046 104.106 20.217C103.773 20.214 103.451 20.3887 103.209 20.7047C102.947 21.0396 102.754 21.6086 102.631 22.4117L102.267 24.9089H101.602Z" fill="white"/>
<path d="M105.791 23.0921L106.448 23.0385C106.444 23.2662 106.473 23.4928 106.535 23.7042C106.603 23.9009 106.719 24.0593 106.862 24.1529C107.03 24.274 107.218 24.3344 107.408 24.3285C107.639 24.3499 107.868 24.2641 108.06 24.0846C108.125 24.0207 108.178 23.9367 108.216 23.8393C108.253 23.742 108.274 23.6339 108.276 23.5238C108.273 23.3578 108.227 23.1989 108.145 23.0775C107.952 22.8513 107.73 22.676 107.491 22.5605C107.264 22.4344 107.042 22.2902 106.826 22.1289C106.678 22.0096 106.552 21.8423 106.461 21.6411C106.376 21.4486 106.333 21.227 106.337 21.0022C106.335 20.7974 106.366 20.5946 106.427 20.408C106.488 20.2213 106.578 20.0554 106.69 19.9219C106.976 19.6018 107.338 19.4416 107.705 19.4732C108.189 19.4732 108.557 19.6268 108.809 19.9341C108.934 20.0866 109.034 20.2744 109.102 20.4848C109.169 20.6952 109.204 20.9232 109.202 21.1534L108.56 21.2119C108.56 21.0687 108.539 20.9271 108.496 20.7963C108.454 20.6656 108.392 20.5488 108.315 20.4535C108.128 20.2519 107.895 20.152 107.659 20.1731C107.469 20.1564 107.282 20.2323 107.129 20.3877C107.074 20.4406 107.028 20.51 106.996 20.5907C106.964 20.6714 106.945 20.7613 106.941 20.8534C106.942 20.9389 106.957 21.0229 106.986 21.099C107.014 21.1751 107.054 21.2413 107.104 21.2924C107.279 21.4556 107.468 21.5898 107.666 21.6923C108.005 21.8653 108.325 22.1043 108.615 22.402C108.715 22.5312 108.795 22.688 108.848 22.8624C108.902 23.0367 108.929 23.2247 108.926 23.414C108.923 23.6907 108.861 23.96 108.749 24.1895C108.619 24.4581 108.435 24.669 108.219 24.7967C107.951 24.9555 107.662 25.0329 107.371 25.0235C106.967 25.041 106.57 24.8813 106.236 24.5675C105.922 24.27 105.775 23.7774 105.791 23.0921Z" fill="white"/>
<path d="M109.932 23.9969C109.929 24.239 109.902 24.4794 109.852 24.7114C109.805 24.9331 109.724 25.1385 109.615 25.3137C109.544 25.4283 109.466 25.5344 109.382 25.6307C109.263 25.7669 109.138 25.8916 109.007 26.0039L108.876 25.76C108.967 25.6551 109.037 25.5673 109.089 25.4942C109.136 25.426 109.177 25.3507 109.212 25.2698C109.247 25.185 109.276 25.0961 109.299 25.004C109.332 24.8615 109.36 24.7166 109.382 24.5699C109.414 24.3812 109.437 24.1897 109.451 23.9969H109.932Z" fill="white"/>
<path d="M112.211 20.6047H112.727L112.103 24.9089H111.587L112.211 20.6047Z" fill="white"/>
<path d="M113.514 20.6047H114.019L114.638 23.0994L114.815 24.0237H114.834C114.871 23.5847 114.901 23.0287 114.97 22.5605L115.255 20.6096H115.746L115.122 24.9138H114.62L114.016 22.4215L113.839 21.4826H113.822C113.784 21.9435 113.746 22.4581 113.677 22.9458L113.392 24.9235H112.899L113.514 20.6047Z" fill="white"/>
<path d="M116.022 23.2189C116.022 21.7972 116.708 20.5364 117.657 20.5364C117.821 20.5361 117.982 20.5975 118.123 20.7139C118.264 20.8303 118.38 20.9974 118.457 21.1973L118.104 21.5704C118.06 21.4483 117.993 21.3448 117.91 21.271C117.827 21.1971 117.731 21.1557 117.632 21.151C116.998 21.151 116.55 22.1752 116.55 23.175C116.55 23.9066 116.764 24.3944 117.272 24.3944C117.495 24.3783 117.706 24.2519 117.867 24.0383L118.088 24.4846C117.838 24.8052 117.511 24.9875 117.169 24.9967C116.451 24.9869 116.022 24.2968 116.022 23.2189Z" fill="white"/>
<path d="M118.5 24.6626C118.5 24.5536 118.53 24.4488 118.585 24.3702C118.64 24.2915 118.714 24.2451 118.793 24.2407C118.822 24.2402 118.85 24.248 118.877 24.2636C118.903 24.2792 118.927 24.3022 118.946 24.3311C118.966 24.36 118.98 24.3943 118.99 24.4317C118.999 24.469 119.003 24.5086 119 24.548C119.002 24.603 118.995 24.6579 118.981 24.7093C118.966 24.7607 118.945 24.8076 118.917 24.8472C118.889 24.8868 118.856 24.9183 118.819 24.9398C118.783 24.9613 118.743 24.9724 118.703 24.9723C118.675 24.9722 118.647 24.9638 118.621 24.9478C118.595 24.9318 118.571 24.9085 118.552 24.8793C118.533 24.8502 118.518 24.8159 118.509 24.7785C118.5 24.7412 118.497 24.7018 118.5 24.6626Z" fill="white"/>
</g>
<defs>
<clipPath id="clip0_612_3257">
<rect width="115" height="31" fill="white" transform="translate(4 4)"/>
</clipPath>
</defs>
</svg>
