<svg width="32" height="33" viewBox="0 0 32 33" fill="none" xmlns="http://www.w3.org/2000/svg">
<rect y="0.5" width="32" height="32" rx="4" fill="#F4F5F5"/>
<g clip-path="url(#clip0_591_11872)">
<path d="M14.5854 16.8642C14.9611 17.2384 15.4698 17.4485 16.0001 17.4485C16.5304 17.4485 17.039 17.2384 17.4148 16.8642L23.8541 10.4242C23.7058 10.0535 23.4501 9.73569 23.1196 9.51161C22.7892 9.28753 22.3993 9.16747 22.0001 9.16687H10.0001C9.60086 9.16747 9.21095 9.28753 8.88054 9.51161C8.55012 9.73569 8.29433 10.0535 8.14609 10.4242L14.5854 16.8642Z" fill="#343D46"/>
<path d="M18.3573 17.8069C17.7316 18.431 16.8838 18.7816 16 18.7816C15.1162 18.7816 14.2684 18.431 13.6427 17.8069L8 12.1669V23.8335H24V12.1669L18.3573 17.8069Z" fill="#343D46"/>
</g>
<defs>
<clipPath id="clip0_591_11872">
<rect width="16" height="16" fill="white" transform="translate(8 8.5)"/>
</clipPath>
</defs>
</svg>
