<svg width="32" height="33" viewBox="0 0 32 33" fill="none" xmlns="http://www.w3.org/2000/svg">
<rect y="0.5" width="32" height="32" rx="4" fill="#F4F5F5"/>
<path d="M8 11.2349C8 10.7321 8.18019 10.3173 8.54054 9.99048C8.9009 9.66365 9.36937 9.50024 9.94595 9.50024C10.5122 9.50024 10.9704 9.66113 11.3205 9.98294C11.6808 10.3148 11.861 10.7472 11.861 11.2802C11.861 11.7629 11.686 12.1651 11.3359 12.4869C10.9756 12.8188 10.5019 12.9847 9.91506 12.9847H9.89961C9.33333 12.9847 8.87517 12.8188 8.5251 12.4869C8.17503 12.1551 8 11.7377 8 11.2349ZM8.20077 24.4336V14.3573H11.6293V24.4336H8.20077ZM13.529 24.4336H16.9575V18.8072C16.9575 18.4552 16.9987 18.1837 17.0811 17.9926C17.2252 17.6507 17.444 17.3616 17.7375 17.1253C18.0309 16.889 18.399 16.7708 18.8417 16.7708C19.9949 16.7708 20.5714 17.53 20.5714 19.0485V24.4336H24V18.6563C24 17.168 23.6396 16.0392 22.9189 15.2699C22.1982 14.5006 21.2458 14.116 20.0618 14.116C18.7336 14.116 17.6988 14.6741 16.9575 15.7903V15.8205H16.9421L16.9575 15.7903V14.3573H13.529C13.5495 14.6791 13.5598 15.6797 13.5598 17.3591C13.5598 19.0385 13.5495 21.3966 13.529 24.4336Z" fill="#343D46"/>
</svg>
