<svg width="120" height="41" viewBox="0 0 120 41" fill="none" xmlns="http://www.w3.org/2000/svg">
<g clip-path="url(#clip0_591_11869)">
<path d="M7.31839 22.6733H-0.899414V35.6718H7.31839V22.6733Z" fill="#F4F5F5"/>
<path d="M19.0042 12.0559V28.0118L10.7896 23.7032V19.5205L19.0042 12.0559Z" fill="#F4F5F5"/>
<path d="M10.7896 28.0496L19.0042 32.3582V35.6716H10.7896V28.0496Z" fill="#F4F5F5"/>
<path d="M22.2305 8.81801V35.6716H30.4483V0.581787L22.2305 8.81801Z" fill="#F4F5F5"/>
<path d="M41.6354 15.3982C40.7507 15.3982 39.9556 15.243 39.2504 14.9326C38.558 14.6093 38.013 14.1696 37.6155 13.6135C37.218 13.0445 37.0128 12.3914 37 11.6542H38.8657C38.9298 12.2879 39.1863 12.8246 39.6351 13.2643C40.0967 13.6911 40.7635 13.9045 41.6354 13.9045C42.4689 13.9045 43.1229 13.6975 43.5973 13.2837C44.0846 12.8569 44.3282 12.3138 44.3282 11.6542C44.3282 11.1369 44.1871 10.7166 43.905 10.3933C43.6229 10.07 43.2703 9.82428 42.8472 9.65616C42.424 9.48804 41.8534 9.30698 41.1353 9.113C40.2506 8.88021 39.5389 8.64743 39.0003 8.41465C38.4746 8.18186 38.0194 7.81975 37.6347 7.32832C37.2629 6.82396 37.0769 6.15147 37.0769 5.31086C37.0769 4.57371 37.2629 3.92063 37.6347 3.3516C38.0066 2.78257 38.5259 2.34287 39.1927 2.03249C39.8723 1.72211 40.6481 1.56693 41.52 1.56693C42.7766 1.56693 43.8025 1.88377 44.5975 2.51746C45.4053 3.15115 45.8605 3.99176 45.9631 5.03928H44.0397C43.9756 4.52199 43.7063 4.06935 43.2319 3.68138C42.7574 3.28047 42.1291 3.08002 41.3469 3.08002C40.616 3.08002 40.0198 3.27401 39.5581 3.66198C39.0965 4.03702 38.8657 4.56725 38.8657 5.25267C38.8657 5.7441 39.0003 6.14501 39.2696 6.45538C39.5517 6.76576 39.8915 7.00501 40.289 7.17313C40.6994 7.32832 41.27 7.50938 42.0009 7.71629C42.8856 7.96201 43.5973 8.20773 44.1359 8.45344C44.6744 8.68623 45.136 9.0548 45.5207 9.55917C45.9054 10.0506 46.0977 10.7231 46.0977 11.5766C46.0977 12.2362 45.9246 12.8569 45.5784 13.4389C45.2322 14.0209 44.7193 14.4929 44.0397 14.855C43.3601 15.2171 42.5587 15.3982 41.6354 15.3982Z" fill="#F4F5F5"/>
<path d="M50.8084 6.08681V12.3526C50.8084 12.8699 50.9174 13.2384 51.1354 13.4583C51.3534 13.6652 51.7317 13.7687 52.2702 13.7687H53.5589V15.2624H51.9817C51.0072 15.2624 50.2763 15.036 49.789 14.5834C49.3018 14.1308 49.0581 13.3872 49.0581 12.3526V6.08681H47.6925V4.63191H49.0581V1.9549H50.8084V4.63191H53.5589V6.08681H50.8084Z" fill="#F4F5F5"/>
<path d="M57.4299 6.35839C57.7377 5.75057 58.1737 5.27853 58.7379 4.94229C59.3149 4.60605 60.0137 4.43792 60.8344 4.43792V6.2614H60.3728C58.4109 6.2614 57.4299 7.33479 57.4299 9.48157V15.2624H55.6796V4.63191H57.4299V6.35839Z" fill="#F4F5F5"/>
<path d="M62.2009 9.90834C62.2009 8.82202 62.4189 7.87148 62.8549 7.05674C63.2908 6.22907 63.8871 5.58891 64.6436 5.13628C65.413 4.68364 66.2657 4.45732 67.2018 4.45732C68.125 4.45732 68.9264 4.65778 69.606 5.05868C70.2856 5.45959 70.7921 5.96395 71.1255 6.57178V4.63191H72.8951V15.2624H71.1255V13.2837C70.7793 13.9045 70.26 14.4218 69.5676 14.8356C68.888 15.2365 68.0929 15.437 67.1825 15.437C66.2465 15.437 65.4002 15.2042 64.6436 14.7386C63.8871 14.273 63.2908 13.6199 62.8549 12.7793C62.4189 11.9387 62.2009 10.9817 62.2009 9.90834ZM71.1255 9.92774C71.1255 9.12593 70.9652 8.42758 70.6447 7.83269C70.3241 7.2378 69.8881 6.78516 69.3368 6.47478C68.7982 6.15147 68.2019 5.98982 67.548 5.98982C66.894 5.98982 66.2978 6.14501 65.7592 6.45538C65.2206 6.76576 64.7911 7.2184 64.4705 7.81329C64.15 8.40818 63.9897 9.10653 63.9897 9.90834C63.9897 10.7231 64.15 11.4344 64.4705 12.0422C64.7911 12.6371 65.2206 13.0962 65.7592 13.4195C66.2978 13.7299 66.894 13.8851 67.548 13.8851C68.2019 13.8851 68.7982 13.7299 69.3368 13.4195C69.8881 13.0962 70.3241 12.6371 70.6447 12.0422C70.9652 11.4344 71.1255 10.7296 71.1255 9.92774Z" fill="#F4F5F5"/>
<path d="M77.9879 6.08681V12.3526C77.9879 12.8699 78.0969 13.2384 78.3149 13.4583C78.5329 13.6652 78.9111 13.7687 79.4497 13.7687H80.7384V15.2624H79.1612C78.1866 15.2624 77.4557 15.036 76.9685 14.5834C76.4812 14.1308 76.2376 13.3872 76.2376 12.3526V6.08681H74.872V4.63191H76.2376V1.9549H77.9879V4.63191H80.7384V6.08681H77.9879Z" fill="#F4F5F5"/>
<path d="M92.4761 9.53977C92.4761 9.87601 92.4569 10.2317 92.4184 10.6067H83.9939C84.058 11.6542 84.4106 12.4754 85.0518 13.0703C85.7057 13.6523 86.4943 13.9433 87.4176 13.9433C88.1741 13.9433 88.8024 13.7687 89.3025 13.4195C89.8154 13.0574 90.1745 12.5789 90.3796 11.984H92.2646C91.9825 13.0057 91.4183 13.8398 90.572 14.4864C89.7257 15.1201 88.6742 15.437 87.4176 15.437C86.4174 15.437 85.5198 15.2106 84.7248 14.758C83.9426 14.3054 83.3271 13.6652 82.8783 12.8375C82.4295 11.9969 82.2051 11.027 82.2051 9.92774C82.2051 8.82848 82.4231 7.86502 82.8591 7.03734C83.2951 6.20967 83.9041 5.57598 84.6863 5.13628C85.4813 4.68364 86.3917 4.45732 87.4176 4.45732C88.4177 4.45732 89.3025 4.67717 90.0719 5.11688C90.8412 5.55658 91.4311 6.1644 91.8414 6.94035C92.2646 7.70336 92.4761 8.56984 92.4761 9.53977ZM90.6681 9.17119C90.6681 8.49871 90.5207 7.92321 90.2257 7.44471C89.9308 6.95328 89.5269 6.58471 89.014 6.33899C88.5139 6.08034 87.9561 5.95102 87.3406 5.95102C86.4559 5.95102 85.6993 6.23553 85.071 6.80456C84.4555 7.37359 84.1029 8.16246 84.0131 9.17119H90.6681Z" fill="#F4F5F5"/>
<path d="M99.1334 4.45732C100.044 4.45732 100.839 4.65778 101.518 5.05868C102.211 5.45959 102.724 5.96395 103.057 6.57178V4.63191H104.827V15.4952C104.827 16.4651 104.622 17.3251 104.211 18.0752C103.801 18.8382 103.211 19.4331 102.442 19.8598C101.685 20.2866 100.8 20.5 99.7874 20.5C98.4025 20.5 97.2484 20.1702 96.3252 19.5107C95.402 18.8511 94.857 17.9523 94.6903 16.8143H96.4214C96.6137 17.4609 97.0112 17.9782 97.6139 18.3661C98.2166 18.7671 98.9411 18.9675 99.7874 18.9675C100.749 18.9675 101.531 18.6636 102.134 18.0558C102.749 17.4479 103.057 16.5944 103.057 15.4952V13.2643C102.711 13.8851 102.198 14.4024 101.518 14.8162C100.839 15.23 100.044 15.437 99.1334 15.437C98.1973 15.437 97.3446 15.2042 96.5753 14.7386C95.8187 14.273 95.2225 13.6199 94.7865 12.7793C94.3505 11.9387 94.1325 10.9817 94.1325 9.90834C94.1325 8.82202 94.3505 7.87148 94.7865 7.05674C95.2225 6.22907 95.8187 5.58891 96.5753 5.13628C97.3446 4.68364 98.1973 4.45732 99.1334 4.45732ZM103.057 9.92774C103.057 9.12593 102.897 8.42758 102.576 7.83269C102.256 7.2378 101.82 6.78516 101.268 6.47478C100.73 6.15147 100.134 5.98982 99.4796 5.98982C98.8256 5.98982 98.2294 6.14501 97.6908 6.45538C97.1523 6.76576 96.7227 7.2184 96.4022 7.81329C96.0816 8.40818 95.9213 9.10653 95.9213 9.90834C95.9213 10.7231 96.0816 11.4344 96.4022 12.0422C96.7227 12.6371 97.1523 13.0962 97.6908 13.4195C98.2294 13.7299 98.8256 13.8851 99.4796 13.8851C100.134 13.8851 100.73 13.7299 101.268 13.4195C101.82 13.0962 102.256 12.6371 102.576 12.0422C102.897 11.4344 103.057 10.7296 103.057 9.92774Z" fill="#F4F5F5"/>
<path d="M108.689 2.90543C108.355 2.90543 108.073 2.78904 107.842 2.55626C107.611 2.32347 107.496 2.03896 107.496 1.70272C107.496 1.36647 107.611 1.08196 107.842 0.849176C108.073 0.616392 108.355 0.5 108.689 0.5C109.009 0.5 109.278 0.616392 109.496 0.849176C109.727 1.08196 109.843 1.36647 109.843 1.70272C109.843 2.03896 109.727 2.32347 109.496 2.55626C109.278 2.78904 109.009 2.90543 108.689 2.90543ZM109.535 4.63191V15.2624H107.785V4.63191H109.535Z" fill="#F4F5F5"/>
<path d="M118.019 15.2624L115.518 11.305L113.114 15.2624H111.287L114.691 9.98594L111.287 4.63191H113.268L115.769 8.56983L118.154 4.63191H119.981L116.596 9.88894L120 15.2624H118.019Z" fill="#F4F5F5"/>
<path d="M48.4363 21.5L43.2529 35.1949H41.1834L36 21.5H37.9118L42.228 33.3087L46.5443 21.5H48.4363Z" fill="#F4F5F5"/>
<path d="M49.7328 29.772C49.7328 28.6717 49.9562 27.7089 50.4029 26.8837C50.8496 26.0453 51.4606 25.3969 52.2358 24.9385C53.0242 24.48 53.898 24.2508 54.8571 24.2508C55.8031 24.2508 56.6244 24.4538 57.3207 24.8599C58.0171 25.2659 58.5361 25.7768 58.8777 26.3925V24.4276H60.691V35.1949H58.8777V33.1908C58.523 33.8195 57.9908 34.3435 57.2813 34.7627C56.5849 35.1687 55.7703 35.3718 54.8374 35.3718C53.8782 35.3718 53.0111 35.136 52.2358 34.6644C51.4606 34.1929 50.8496 33.5314 50.4029 32.6799C49.9562 31.8285 49.7328 30.8592 49.7328 29.772ZM58.8777 29.7916C58.8777 28.9795 58.7135 28.2721 58.385 27.6696C58.0565 27.067 57.6098 26.6086 57.0448 26.2942C56.493 25.9667 55.882 25.803 55.2119 25.803C54.5418 25.803 53.9308 25.9602 53.379 26.2746C52.8271 26.5889 52.3869 27.0474 52.0585 27.6499C51.73 28.2525 51.5657 28.9598 51.5657 29.772C51.5657 30.5972 51.73 31.3176 52.0585 31.9333C52.3869 32.5359 52.8271 33.0009 53.379 33.3283C53.9308 33.6427 54.5418 33.7999 55.2119 33.7999C55.882 33.7999 56.493 33.6427 57.0448 33.3283C57.6098 33.0009 58.0565 32.5359 58.385 31.9333C58.7135 31.3176 58.8777 30.6038 58.8777 29.7916Z" fill="#F4F5F5"/>
<path d="M68.9841 24.2311C70.298 24.2311 71.3623 24.6306 72.1769 25.4297C72.9916 26.2156 73.3989 27.3552 73.3989 28.8485V35.1949H71.6251V29.1039C71.6251 28.0298 71.3557 27.2111 70.817 26.6479C70.2783 26.0715 69.5425 25.7834 68.6096 25.7834C67.6636 25.7834 66.9081 26.0781 66.3431 26.6675C65.7913 27.257 65.5153 28.115 65.5153 29.2415V35.1949H63.7218V24.4276H65.5153V25.9602C65.8701 25.41 66.3497 24.9843 66.9541 24.683C67.5716 24.3818 68.2483 24.2311 68.9841 24.2311Z" fill="#F4F5F5"/>
<path d="M78.5163 25.9012V32.2477C78.5163 32.7716 78.628 33.145 78.8513 33.3676C79.0747 33.5772 79.4623 33.682 80.0142 33.682H81.3347V35.1949H79.7185C78.7199 35.1949 77.971 34.9657 77.4717 34.5072C76.9724 34.0488 76.7228 33.2956 76.7228 32.2477V25.9012H75.3234V24.4276H76.7228V21.7161H78.5163V24.4276H81.3347V25.9012H78.5163Z" fill="#F4F5F5"/>
<path d="M82.8376 29.772C82.8376 28.6717 83.061 27.7089 83.5077 26.8837C83.9545 26.0453 84.5654 25.3969 85.3406 24.9385C86.129 24.48 87.0028 24.2508 87.9619 24.2508C88.908 24.2508 89.7292 24.4538 90.4256 24.8599C91.1219 25.2659 91.6409 25.7768 91.9826 26.3925V24.4276H93.7958V35.1949H91.9826V33.1908C91.6278 33.8195 91.0957 34.3435 90.3861 34.7627C89.6898 35.1687 88.8751 35.3718 87.9422 35.3718C86.9831 35.3718 86.1159 35.136 85.3406 34.6644C84.5654 34.1929 83.9545 33.5314 83.5077 32.6799C83.061 31.8285 82.8376 30.8592 82.8376 29.772ZM91.9826 29.7916C91.9826 28.9795 91.8183 28.2721 91.4898 27.6696C91.1614 27.067 90.7146 26.6086 90.1496 26.2942C89.5978 25.9667 88.9868 25.803 88.3167 25.803C87.6466 25.803 87.0356 25.9602 86.4838 26.2746C85.9319 26.5889 85.4917 27.0474 85.1633 27.6499C84.8348 28.2525 84.6705 28.9598 84.6705 29.772C84.6705 30.5972 84.8348 31.3176 85.1633 31.9333C85.4917 32.5359 85.9319 33.0009 86.4838 33.3283C87.0356 33.6427 87.6466 33.7999 88.3167 33.7999C88.9868 33.7999 89.5978 33.6427 90.1496 33.3283C90.7146 33.0009 91.1614 32.5359 91.4898 31.9333C91.8183 31.3176 91.9826 30.6038 91.9826 29.7916Z" fill="#F4F5F5"/>
<path d="M101.281 24.2508C102.214 24.2508 103.028 24.4538 103.725 24.8599C104.434 25.2659 104.96 25.7768 105.301 26.3925V24.4276H107.115V35.4307C107.115 36.4131 106.904 37.2842 106.484 38.044C106.064 38.8168 105.459 39.4193 104.671 39.8516C103.896 40.2839 102.989 40.5 101.951 40.5C100.532 40.5 99.3494 40.166 98.4033 39.4979C97.4573 38.8299 96.8989 37.9195 96.7281 36.7668H98.5019C98.699 37.4218 99.1063 37.9457 99.7238 38.3387C100.341 38.7447 101.084 38.9478 101.951 38.9478C102.936 38.9478 103.738 38.64 104.355 38.0243C104.986 37.4087 105.301 36.5441 105.301 35.4307V33.1711C104.947 33.7999 104.421 34.3239 103.725 34.743C103.028 35.1622 102.214 35.3718 101.281 35.3718C100.322 35.3718 99.4479 35.136 98.6596 34.6644C97.8843 34.1929 97.2734 33.5314 96.8266 32.6799C96.3799 31.8285 96.1565 30.8592 96.1565 29.772C96.1565 28.6717 96.3799 27.7089 96.8266 26.8837C97.2734 26.0453 97.8843 25.3969 98.6596 24.9385C99.4479 24.48 100.322 24.2508 101.281 24.2508ZM105.301 29.7916C105.301 28.9795 105.137 28.2721 104.809 27.6696C104.48 27.067 104.034 26.6086 103.469 26.2942C102.917 25.9667 102.306 25.803 101.636 25.803C100.966 25.803 100.355 25.9602 99.8027 26.2746C99.2508 26.5889 98.8107 27.0474 98.4822 27.6499C98.1537 28.2525 97.9895 28.9598 97.9895 29.772C97.9895 30.5972 98.1537 31.3176 98.4822 31.9333C98.8107 32.5359 99.2508 33.0009 99.8027 33.3283C100.355 33.6427 100.966 33.7999 101.636 33.7999C102.306 33.7999 102.917 33.6427 103.469 33.3283C104.034 33.0009 104.48 32.5359 104.809 31.9333C105.137 31.3176 105.301 30.6038 105.301 29.7916Z" fill="#F4F5F5"/>
<path d="M120 29.3987C120 29.7392 119.98 30.0994 119.941 30.4793H111.308C111.374 31.5403 111.735 32.3721 112.392 32.9747C113.062 33.5641 113.871 33.8588 114.817 33.8588C115.592 33.8588 116.236 33.682 116.748 33.3283C117.274 32.9616 117.642 32.4769 117.852 31.8744H119.783C119.494 32.9092 118.916 33.7541 118.049 34.409C117.182 35.0508 116.104 35.3718 114.817 35.3718C113.792 35.3718 112.872 35.1425 112.057 34.6841C111.256 34.2256 110.625 33.5772 110.165 32.7389C109.705 31.8875 109.475 30.905 109.475 29.7916C109.475 28.6782 109.699 27.7023 110.146 26.864C110.592 26.0257 111.216 25.3838 112.018 24.9385C112.833 24.48 113.765 24.2508 114.817 24.2508C115.841 24.2508 116.748 24.4735 117.536 24.9188C118.325 25.3642 118.929 25.9798 119.35 26.7658C119.783 27.5386 120 28.4162 120 29.3987ZM118.147 29.0253C118.147 28.3442 117.996 27.7613 117.694 27.2766C117.392 26.7789 116.978 26.4056 116.452 26.1567C115.94 25.8947 115.368 25.7637 114.738 25.7637C113.831 25.7637 113.056 26.0519 112.412 26.6282C111.781 27.2046 111.42 28.0036 111.328 29.0253H118.147Z" fill="#F4F5F5"/>
</g>
<defs>
<clipPath id="clip0_591_11869">
<rect width="120" height="40" fill="white" transform="translate(0 0.5)"/>
</clipPath>
</defs>
</svg>
