<svg width="37" height="32" viewBox="0 0 37 32" fill="none" xmlns="http://www.w3.org/2000/svg">
<path d="M26.6227 16.2051C28.4005 16.3419 29.8364 16.9231 30.9304 17.9487C32.0244 18.9744 32.5714 20.3419 32.5714 22.0513C32.5714 23.9658 31.9902 25.4359 30.8278 26.4615C29.6654 27.4872 28.2296 28 26.5201 28C24.1954 27.8633 22.5201 27.0085 21.4945 25.4359C20.4689 23.8632 19.956 22.0855 19.956 20.1026C19.956 18.188 20.2295 16.4103 20.7766 14.7692C21.3919 13.1282 22.1783 11.5897 23.1355 10.1538C24.0928 8.71795 25.1868 7.45299 26.4176 6.35897C27.7167 5.26496 29.0501 4.47863 30.4176 4L32.8791 7.38462C31.5116 8.34189 30.2125 9.64103 28.9817 11.2821C27.8193 12.9231 27.033 14.5641 26.6227 16.2051ZM10.6667 16.2051C12.4444 16.3419 13.8803 16.9231 14.9744 17.9487C16.0684 18.9744 16.6154 20.3419 16.6154 22.0513C16.6154 23.9658 16 25.4359 14.7692 26.4615C13.6068 27.4872 12.2393 28 10.6667 28C8.2735 27.9316 6.5641 27.1111 5.53846 25.5385C4.51282 23.8974 4 22.0855 4 20.1026C4 18.188 4.2735 16.4103 4.82051 14.7692C5.4359 13.1282 6.22222 11.5897 7.17949 10.1538C8.13675 8.71795 9.23077 7.45299 10.4615 6.35897C11.7607 5.26496 13.094 4.47863 14.4615 4L16.9231 7.38462C15.5556 8.34189 14.2564 9.64103 13.0256 11.2821C11.8632 12.9231 11.0769 14.5641 10.6667 16.2051Z" fill="#F4F5F5"/>
</svg>
