<svg width="105" height="24" viewBox="0 0 105 24" fill="none" xmlns="http://www.w3.org/2000/svg">
<g id="Kingswell">
<path id="Vector" fill-rule="evenodd" clip-rule="evenodd" d="M97.6472 17.1831L98.3092 18.8302C98.3415 18.9109 98.3254 18.9755 98.2931 19.0401C98.2446 19.1209 98.18 19.1532 98.0993 19.1532H92.7543C92.6736 19.1532 92.609 19.1209 92.5606 19.0401C92.5121 18.9755 92.5121 18.9109 92.5444 18.8302L93.2065 17.1831V5.45972L92.4152 4.15174C92.3668 4.08715 92.3668 4.02256 92.3991 3.94182C92.4152 3.87723 92.4637 3.82878 92.5444 3.79649L97.3565 2.81146C97.4211 2.79532 97.4857 2.81146 97.5664 2.85991C97.631 2.90835 97.6633 2.97294 97.6633 3.05368L97.6472 17.1831ZM104.171 17.1831L104.833 18.8302C104.865 18.9109 104.849 18.9755 104.817 19.0401C104.768 19.1209 104.704 19.1532 104.623 19.1532H99.2781C99.1973 19.1532 99.1328 19.1209 99.0843 19.0401C99.0359 18.9755 99.0359 18.9109 99.0682 18.8302L99.7302 17.1831V5.45972L98.939 4.15174C98.8905 4.08715 98.8905 4.02256 98.9228 3.94182C98.939 3.87723 98.9874 3.82878 99.0682 3.79649L103.88 2.81146C103.945 2.79532 104.009 2.81146 104.09 2.85991C104.155 2.90835 104.187 2.97294 104.187 3.05368L104.171 17.1831ZM42.5504 6.08949L43.4386 5.2498L44.1491 1.29356C44.1006 1.27741 44.0522 1.26126 44.0037 1.24512C43.6646 1.08364 43.487 0.696086 43.6324 0.373127C43.7777 0.0501687 44.1814 -0.0951626 44.5205 0.0663167C44.8596 0.227796 45.0372 0.615346 44.8919 0.938305C44.8111 1.13208 44.6497 1.24512 44.4559 1.29356L45.8123 5.15291L47.847 2.9245C47.6209 2.73072 47.524 2.42391 47.637 2.1494C47.7824 1.82644 48.1861 1.68111 48.5252 1.84259C48.8643 2.00407 49.0419 2.39162 48.8966 2.71458C48.7835 2.98909 48.4767 3.13442 48.1861 3.08598L47.8954 6.08949L51.674 4.52314C51.5771 4.34552 51.561 4.13559 51.6417 3.95797C51.787 3.63501 52.1907 3.48968 52.5299 3.65116C52.869 3.81264 53.0466 4.20019 52.9013 4.52314C52.7559 4.8461 52.3522 4.99143 52.0131 4.82996C51.9647 4.81381 51.9162 4.78151 51.8839 4.74922L49.4617 7.83347L49.381 9.10916C47.8792 7.10681 45.0695 6.10564 42.5504 6.08949ZM47.7501 23.8361V23.8038C47.7501 23.7392 47.7501 23.6907 47.7662 23.6584C47.8954 23.4485 47.9761 23.2709 47.96 23.0771C47.9438 22.6573 47.637 22.4635 47.2495 22.415C46.103 22.2536 41.7915 23.7876 39.7084 23.7876C37.4961 23.7876 35.4292 22.4635 35.4292 20.0736C35.4292 18.3296 37.0117 17.0701 38.2874 16.5211C36.6887 15.746 35.7037 14.0343 35.7037 12.2741C35.7037 8.81849 39.2724 7.13911 42.4858 7.13911C45.7477 7.13911 49.3326 8.93153 49.3326 12.3064C49.3326 14.5187 47.96 16.2465 45.9254 17.0216C43.81 17.829 42.1629 17.4092 40.0475 17.8775C39.45 18.0067 39.0302 18.475 39.1271 19.1047C39.2078 19.6053 39.6438 19.8637 40.1283 19.8637C41.7592 19.8637 45.1018 18.4104 47.3464 18.4104C49.2841 18.4104 50.9151 19.5569 50.9312 21.3008C50.9474 22.6411 49.9462 23.9814 47.9923 23.9975C47.8631 24.0137 47.7501 23.9491 47.7501 23.8361ZM40.0798 11.1599C40.0798 13.0977 41.3878 15.6491 43.0672 15.6491C44.2621 15.6491 44.7466 14.5995 44.7466 13.5337C44.7466 11.5636 43.4386 8.94768 41.7269 8.94768C40.6288 8.96382 40.0798 10.1103 40.0798 11.1599ZM8.73668 18.1197L8.44602 18.8302C8.41372 18.9109 8.42987 18.9755 8.46217 19.0401C8.51061 19.1209 8.5752 19.1532 8.67209 19.1532H14.5984C14.6953 19.1532 14.7599 19.1047 14.8083 19.0078C14.8567 18.9109 14.8567 18.8302 14.8083 18.7495L8.34913 9.75507L15.0182 3.11827C15.099 3.03754 15.1151 2.9568 15.0667 2.85991C15.0182 2.76302 14.9375 2.71458 14.8244 2.71458H10.2546C10.1577 2.71458 10.0931 2.76302 10.0447 2.82761C9.99622 2.8922 9.99622 2.9568 10.0285 3.03754L10.303 3.74804L5.18414 9.33523V4.70077L5.8462 3.05368C5.8785 2.97294 5.86235 2.90835 5.83005 2.84376C5.78161 2.76302 5.71702 2.73072 5.62013 2.73072H0.259021C0.162134 2.73072 0.0975418 2.77917 0.0490981 2.84376C0.000654287 2.90835 -0.0154936 2.98909 0.0168022 3.05368L0.678867 4.70077L0.695015 17.167L0.0329501 18.8141C0.000654287 18.8948 0.0168022 18.9594 0.0490981 19.024C0.0975418 19.1047 0.162134 19.137 0.259021 19.137H5.60398C5.70087 19.137 5.76546 19.0886 5.81391 19.024C5.86235 18.9594 5.86235 18.8948 5.83005 18.8141L5.16799 17.167V12.8555L8.73668 18.1197ZM18.1186 1.90718C19.4428 1.90718 20.5085 2.97294 20.5085 4.29707C20.5085 5.6212 19.4428 6.68697 18.1186 6.68697C16.7945 6.68697 15.7287 5.6212 15.7287 4.29707C15.7126 2.98909 16.7945 1.90718 18.1186 1.90718ZM21.1221 18.8302C21.1544 18.9109 21.1383 18.9755 21.106 19.0401C21.0575 19.1209 20.993 19.1532 20.9122 19.1532H20.4439H15.5511C15.4704 19.1532 15.4058 19.1209 15.3573 19.0401C15.3089 18.9755 15.3089 18.9109 15.3412 18.8302L16.0032 17.1831V10.1103L15.212 8.80234C15.1636 8.73775 15.1636 8.67316 15.1959 8.59242C15.212 8.52783 15.2604 8.47939 15.3412 8.44709L20.1533 7.46207C20.2179 7.44592 20.2824 7.46207 20.3632 7.51051C20.4278 7.55895 20.4601 7.62355 20.4601 7.68814V17.2154L21.1221 18.8302ZM29.9551 17.167V11.0146C29.9551 10.2234 29.5352 9.49671 28.6148 9.49671C27.5813 9.49671 27.0161 10.5302 27.0161 11.2568V17.1993L27.6782 18.8464C27.7105 18.9271 27.6943 18.9917 27.6621 19.0563C27.6136 19.137 27.549 19.1693 27.4683 19.1693H22.1233C22.0426 19.1693 21.9941 19.1209 21.9295 19.0563C21.8811 18.9917 21.8811 18.9271 21.9134 18.8464L22.527 17.3285V10.0296L21.7681 8.7862C21.7358 8.72161 21.7196 8.65701 21.7519 8.57627C21.7681 8.51168 21.8165 8.44709 21.8972 8.43094L26.7255 7.42977C26.7901 7.41362 26.8547 7.42977 26.9354 7.47821C27 7.52666 27.0323 7.59125 27.0323 7.67199V9.25449C28.308 8.22102 29.6321 7.18755 31.1662 7.18755C33.2331 7.18755 34.4603 8.49553 34.4603 10.5463V17.2316L35.1224 18.8787C35.1547 18.9594 35.1385 19.024 35.1062 19.0886C35.0578 19.1693 34.9932 19.2016 34.9125 19.2016H29.5352C29.4545 19.2016 29.3899 19.1532 29.3414 19.0886C29.293 19.024 29.293 18.9594 29.3253 18.8787L29.9551 17.167ZM80.1105 7.42977C80.2074 7.42977 80.272 7.47821 80.3204 7.54281C80.3689 7.6074 80.3689 7.67199 80.3366 7.75273L75.4115 19.024C75.363 19.1209 75.2823 19.1693 75.1692 19.1693H72.2303C72.1334 19.1693 72.0688 19.1209 72.0204 19.024L69.3721 13.2753L66.8531 19.024C66.8046 19.1209 66.7239 19.1693 66.6108 19.1693H63.6719C63.575 19.1693 63.5104 19.1209 63.462 19.024L59.1344 9.67433L58.3916 10.7239C58.3431 10.7885 58.2785 10.8208 58.1978 10.8208C58.117 10.8208 58.0524 10.8047 58.004 10.7562C57.2935 9.98114 56.0662 8.94768 54.5645 8.94768C54.0801 8.94768 53.7248 9.22219 53.7248 9.5613C53.7248 9.88426 54.0316 10.2072 54.3384 10.401C56.4054 11.6928 60.2001 12.3387 60.2001 15.423C60.2001 18.5395 57.1643 19.5084 54.4999 19.5084C52.7398 19.5084 51.0442 18.9594 49.5425 18.0551C49.4779 17.9905 49.4456 17.9421 49.4295 17.8936C49.3972 17.829 49.4133 17.7644 49.4779 17.6999L51.3349 15.1C51.3834 15.0354 51.4479 15.0031 51.5287 15.0031C51.6094 15.0031 51.674 15.0193 51.7225 15.0677C52.1423 15.4876 52.5944 15.9236 53.0466 16.3434C53.854 17.1024 54.7421 17.716 55.8725 17.716C56.3408 17.716 56.9059 17.5061 56.9059 17.0055C56.9059 16.6502 56.4377 16.295 56.1631 16.1335C54.8875 15.3746 53.4018 14.8901 52.1908 14.0827C51.0604 13.3884 50.14 12.5002 50.14 11.2407C50.14 8.28561 52.7882 7.18755 55.3557 7.18755C56.1631 7.18755 56.9059 7.26829 57.5842 7.42977L63.3974 7.44592C63.5104 7.44592 63.5912 7.49436 63.6396 7.59125C63.7042 7.72043 63.7042 7.88191 63.6719 8.09184L63.6073 8.59242L66.4171 15.0193L68.1449 10.7078L66.7723 7.75273C66.74 7.67199 66.7562 7.6074 66.7885 7.54281C66.8369 7.46207 66.9015 7.42977 66.9984 7.42977H71.536C71.649 7.42977 71.7297 7.47821 71.7782 7.5751L74.927 14.7771L77.1231 9.1253L76.5741 7.75273C76.5418 7.67199 76.558 7.6074 76.5903 7.54281C76.6387 7.46207 76.7033 7.42977 76.784 7.42977H80.1105ZM84.6642 14.8417V14.8901C85.2455 16.6987 87.2802 17.6191 89.0726 17.6191C89.993 17.6191 90.8973 17.393 91.7047 16.957C91.8178 16.8925 91.9146 16.9248 91.9792 17.0216C92.06 17.1347 92.06 17.2316 91.9792 17.3285C90.6228 18.9271 88.5882 19.4923 86.5535 19.4923C82.8072 19.4923 79.7714 17.2639 79.7714 13.3238C79.7714 9.38367 82.7749 7.2037 86.5051 7.2037C89.4763 7.2037 91.9146 8.7862 92.1407 12.3226C92.1407 12.4518 92.0923 12.5325 91.9792 12.5648L84.6642 14.8417ZM87.9907 11.8866C87.9907 10.6594 87.4255 8.72161 86.0368 8.72161C84.2928 8.72161 83.986 11.9189 84.1959 13.13L87.9907 11.8866Z" fill="white"/>
</g>
</svg>
