<svg width="75" height="71" viewBox="0 0 75 71" fill="none" xmlns="http://www.w3.org/2000/svg">
<g id="Group 1000005860">
<g id="Group">
<path id="Vector" d="M0.137778 70.3068C-0.045926 69.8476 -0.045926 63.1424 0.137778 62.4765C0.275556 61.9713 0.413334 61.9483 2.20445 61.9483H4.13334L5.32741 64.3365C5.99334 65.6683 6.61334 66.6787 6.70519 66.6328C6.82001 66.5639 7.41705 65.4846 8.06001 64.2217L9.20816 61.9254L11.2059 61.9942L13.2037 62.0631L13.2726 65.9209C13.3415 70.4676 13.2726 70.7202 11.8719 70.6283L10.9074 70.5594L10.8385 67.758C10.8156 66.0587 10.6778 64.9335 10.54 64.9335C10.4252 64.9335 9.73631 66.1276 9.04742 67.5513C8.33557 68.998 7.62371 70.3068 7.46297 70.4446C7.27927 70.5824 6.86594 70.6743 6.49853 70.6283C5.92445 70.5594 5.69482 70.238 4.45482 67.8498C3.69704 66.3802 2.93926 65.0254 2.80149 64.8876C2.48 64.5661 2.48 64.5202 2.50297 68.2172V70.6743H1.40074C0.597038 70.6743 0.22963 70.5824 0.137778 70.3068Z" fill="white"/>
<path id="Vector_2" d="M14.0078 70.2609C14.0078 69.9394 16.8093 64.5661 18.1412 62.3616C18.3249 62.0172 18.6923 61.9483 20.07 61.9483H21.7463L22.2975 63.0505C22.596 63.6476 23.5375 65.3698 24.3641 66.9083C26.3849 70.5365 26.3849 70.5594 24.8004 70.5594C23.6293 70.5594 23.5145 70.5135 23.0782 69.8246L22.6189 69.0898L20.07 69.0668H17.4982L16.9012 69.8705C16.35 70.6054 16.1663 70.6742 15.133 70.6742C14.1915 70.6742 14.0078 70.6054 14.0078 70.2609ZM21.4249 67.092C21.5856 66.9083 20.3226 64.635 20.0012 64.5202C19.7715 64.4513 18.6004 66.5179 18.6004 67.0002C18.6004 67.2528 21.1723 67.3216 21.4249 67.092Z" fill="white"/>
<path id="Vector_3" d="M27.0734 70.192C26.8208 69.7098 26.5453 63.0276 26.7749 62.3616C26.8668 62.0402 27.1423 61.9483 28.1527 61.9483H29.3927V63.9002C29.3927 64.9794 29.4846 65.852 29.5764 65.852C29.6912 65.852 30.7475 64.9794 31.9416 63.9002L34.1001 61.9483H35.6616C37.246 61.9483 37.5446 62.155 36.7409 62.7061C35.8453 63.3261 32.8372 65.9668 32.8372 66.1046C32.8372 66.1965 33.8475 67.0691 35.0875 68.0565C38.2794 70.6054 38.3253 70.7661 36.0749 70.6283C34.5823 70.5594 34.3986 70.4905 33.3653 69.572C32.7683 69.0439 31.6431 68.0565 30.8853 67.4135L29.5075 66.2424L29.3927 68.4009L29.2779 70.5594L28.2905 70.6054C27.5327 70.6283 27.2571 70.5365 27.0734 70.192Z" fill="white"/>
<path id="Vector_4" d="M38.8074 70.2379C38.5548 69.7557 38.4859 62.9357 38.7156 62.3157C38.8074 62.0402 39.1748 61.9483 39.9556 61.9483H41.0348L41.1726 63.8772C41.3333 66.1965 41.1267 69.9853 40.8052 70.3987C40.4378 70.8579 39.083 70.7431 38.8074 70.2379Z" fill="white"/>
<path id="Vector_5" d="M42.1832 70.5135C42.0914 70.4446 42.0225 68.4698 42.0225 66.1505V61.9483H45.9262C51.1617 61.9483 51.8965 62.3157 51.8965 64.8416C51.8965 66.9083 50.8173 67.9187 48.5899 67.9187C47.5336 67.9187 47.1891 67.8039 46.3625 67.1839C44.8469 66.0128 44.9388 65.875 47.2121 65.8061C48.7965 65.7602 49.2558 65.6683 49.4625 65.3468C49.6462 65.0253 49.6232 64.8646 49.3247 64.5661C49.0262 64.2676 48.498 64.1757 46.8677 64.1757C45.7195 64.1757 44.7091 64.2216 44.6402 64.3135C44.5714 64.3824 44.5254 65.5765 44.5254 67.0002C44.5484 70.5135 44.5025 70.6742 43.3084 70.6742C42.7573 70.6742 42.2521 70.6053 42.1832 70.5135Z" fill="white"/>
<path id="Vector_6" d="M53.7334 70.1691L52.7001 69.6409L52.6312 66.6557C52.6082 65.0024 52.6312 63.4409 52.7001 63.1883C52.9297 62.2009 54.0549 61.9483 58.1652 61.9483C61.7015 61.9483 61.9771 61.9713 62.7119 62.4764L63.4927 63.0046L63.6304 65.3928C63.8371 68.6765 63.7223 69.4113 62.8267 70.0542C62.1838 70.5135 61.8164 70.5594 58.4408 70.6283C54.9964 70.6972 54.6978 70.6513 53.7334 70.1691ZM60.5993 68.4698L61.3341 68.3091L61.2653 66.2194L61.1964 64.1298H58.0964H54.9964L54.9275 66.1735C54.8815 67.6661 54.9504 68.2861 55.1571 68.4239C55.5015 68.6305 59.566 68.6765 60.5993 68.4698Z" fill="white"/>
<path id="Vector_7" d="M64.6637 70.1002C64.3651 68.8831 64.6177 68.7913 68.154 68.8142C71.5526 68.8602 72.3333 68.6994 72.3333 67.9416C72.3333 67.2757 71.1622 67.0002 68.3148 67.0002C66.0644 67.0002 65.6511 66.9313 65.1229 66.5179C64.5948 66.1046 64.5259 65.8979 64.5259 64.5661C64.5259 63.2572 64.5948 63.0046 65.1229 62.5224C65.7429 61.9483 65.7888 61.9483 70.1977 61.9483H74.6526L74.5837 62.8209L74.5148 63.6705L70.9096 63.7853C67.2814 63.9002 66.6155 64.0609 66.8911 64.7727C67.0059 65.0942 69.417 65.3928 71.9429 65.3928C73.6651 65.3928 74.5607 65.875 74.8363 66.9542C75.2496 68.4239 74.8822 69.4802 73.7111 70.2839C73.2289 70.6053 72.54 70.6742 68.9807 70.6742H64.8014L64.6637 70.1002Z" fill="white"/>
</g>
<g id="Group_2">
<path id="Vector_8" d="M39.2905 0C39.8421 0.0610959 40.3833 0.122192 40.9348 0.183288C46.5338 0.804429 51.4355 2.96315 55.6191 6.6289C60.1774 10.6103 63.0185 15.5795 64.2049 21.4345C64.3922 22.3509 64.0384 23.1553 63.2578 23.7052C62.3837 24.3263 61.4574 24.194 60.552 23.7459C59.6258 23.2775 59.1367 22.5037 58.9077 21.5159C57.4716 15.2434 53.7354 10.6612 48.0532 7.56571C44.6918 5.73283 41.0597 4.95895 37.2195 5.07096C28.3424 5.33571 20.4955 10.9973 17.6023 19.235C16.7698 21.5974 16.3535 24.0209 16.3951 26.5258C16.3951 26.6582 16.4159 26.7905 16.4367 26.984C17.1444 26.984 17.8313 26.984 18.5181 26.984C19.2466 26.984 19.9751 26.9535 20.7036 26.9942C21.1095 27.0146 21.3176 26.8822 21.505 26.5258C23.2741 23.2063 25.0641 19.8969 26.8437 16.5774C27.5514 15.2638 28.2591 13.94 29.0292 12.5348C32.016 16.9643 34.9508 21.3326 37.9376 25.7723C40.914 21.3632 43.8488 16.9948 46.8356 12.5654C47.5225 13.8382 48.1781 15.0398 48.8233 16.2515C50.6758 19.7034 52.5282 23.1452 54.3703 26.6073C54.5368 26.9229 54.7345 26.9942 55.0571 26.9942C57.0553 26.984 59.043 26.984 61.0412 26.9942C61.4366 26.9942 61.8425 27.0247 62.238 27.0655C63.5701 27.2182 64.4547 28.1143 64.361 29.438C64.2777 30.5581 64.0384 31.6884 63.7158 32.7678C61.6864 39.6105 57.6381 44.9564 51.3106 48.5712C47.0021 51.0354 42.3294 52.1963 37.3444 52.0231C27.7908 51.6871 20.4538 47.4715 15.2191 39.6818C14.3345 38.3682 14.6259 36.9019 15.8748 36.128C17.1236 35.3643 18.7783 35.7309 19.6109 36.9936C22.119 40.8324 25.47 43.7039 29.7889 45.4553C32.8174 46.6773 35.9603 47.2068 39.2385 46.9725C46.3985 46.4431 51.9558 43.1948 56.0146 37.462C57.1281 35.8938 57.9295 34.173 58.4914 32.2688C58.2729 32.2586 58.096 32.2383 57.9191 32.2383C55.8897 32.2383 53.8603 32.2281 51.831 32.2484C51.4563 32.2484 51.2482 32.167 51.0712 31.8106C49.7496 29.2446 48.3862 26.6887 47.0437 24.1227C47.0021 24.031 46.9397 23.9496 46.8564 23.7867C43.8904 27.7681 40.9452 31.6986 37.9584 35.7004C34.982 31.7393 32.0472 27.819 29.05 23.8274C28.6442 24.5707 28.2799 25.2326 27.9157 25.9047C26.8437 27.8801 25.751 29.8453 24.6999 31.831C24.5438 32.1263 24.3669 32.2484 24.0235 32.2484C20.714 32.2383 17.3942 32.2484 14.0848 32.2484C12.8671 32.2484 11.764 31.2709 11.5871 30.0184C11.483 29.2955 11.431 28.5725 11.3477 27.8495C11.3269 27.6663 11.2749 27.483 11.2437 27.3099C11.2437 26.424 11.2437 25.5483 11.2437 24.6624C11.3269 23.9089 11.3789 23.1452 11.483 22.4018C12.1595 17.7891 13.9078 13.6142 16.9155 9.98918C21.557 4.28689 27.6451 1.06918 35.0445 0.19347C35.6585 0.122192 36.2829 0.0610959 36.8969 0C37.6982 0 38.4892 0 39.2905 0Z" fill="white"/>
</g>
</g>
</svg>
