<svg xmlns="http://www.w3.org/2000/svg" width="121" height="40" fill="none" viewBox="0 0 121 40"><g clip-path="url(#clip0_621_435)"><path fill="#111417" d="M8.31833 22.1732H0.100525V35.1716H8.31833V22.1732Z"/><path fill="#111417" d="M20.0042 11.5559V27.5118L11.7896 23.2032V19.0205L20.0042 11.5559Z"/><path fill="#111417" d="M11.7896 27.5496L20.0042 31.8582V35.1716H11.7896V27.5496Z"/><path fill="#111417" d="M23.2303 8.31813V35.1717H31.4481V0.0819092L23.2303 8.31813Z"/><path fill="#111417" d="M42.6354 14.8982C41.7507 14.8982 40.9556 14.743 40.2504 14.4326C39.558 14.1093 39.013 13.6696 38.6155 13.1135C38.218 12.5445 38.0128 11.8914 38 11.1542H39.8657C39.9298 11.7879 40.1863 12.3246 40.6351 12.7643C41.0967 13.1911 41.7635 13.4045 42.6354 13.4045C43.4689 13.4045 44.1229 13.1975 44.5973 12.7837C45.0846 12.3569 45.3282 11.8138 45.3282 11.1542C45.3282 10.6369 45.1871 10.2166 44.905 9.89331C44.6229 9.57 44.2703 9.32428 43.8472 9.15616C43.424 8.98804 42.8534 8.80698 42.1353 8.613C41.2506 8.38021 40.5389 8.14743 40.0003 7.91465C39.4746 7.68186 39.0194 7.31975 38.6347 6.82832C38.2629 6.32396 38.0769 5.65147 38.0769 4.81086C38.0769 4.07371 38.2629 3.42063 38.6347 2.8516C39.0066 2.28257 39.5259 1.84287 40.1927 1.53249C40.8723 1.22211 41.6481 1.06693 42.52 1.06693C43.7766 1.06693 44.8025 1.38377 45.5975 2.01746C46.4053 2.65115 46.8605 3.49176 46.9631 4.53928H45.0397C44.9756 4.02199 44.7063 3.56935 44.2319 3.18138C43.7574 2.78047 43.1291 2.58002 42.3469 2.58002C41.616 2.58002 41.0198 2.77401 40.5581 3.16198C40.0965 3.53702 39.8657 4.06725 39.8657 4.75267C39.8657 5.2441 40.0003 5.64501 40.2696 5.95538C40.5517 6.26576 40.8915 6.50501 41.289 6.67313C41.6994 6.82832 42.27 7.00938 43.0009 7.21629C43.8856 7.46201 44.5973 7.70773 45.1359 7.95344C45.6744 8.18623 46.136 8.5548 46.5207 9.05917C46.9054 9.5506 47.0977 10.2231 47.0977 11.0766C47.0977 11.7362 46.9246 12.3569 46.5784 12.9389C46.2322 13.5209 45.7193 13.9929 45.0397 14.355C44.3601 14.7171 43.5587 14.8982 42.6354 14.8982Z"/><path fill="#111417" d="M51.8084 5.58681V11.8526C51.8084 12.3699 51.9174 12.7384 52.1354 12.9583C52.3534 13.1652 52.7317 13.2687 53.2702 13.2687H54.5589V14.7624H52.9817C52.0072 14.7624 51.2763 14.536 50.789 14.0834C50.3018 13.6308 50.0581 12.8872 50.0581 11.8526V5.58681H48.6925V4.13191H50.0581V1.4549H51.8084V4.13191H54.5589V5.58681H51.8084Z"/><path fill="#111417" d="M58.4299 5.85839C58.7377 5.25057 59.1737 4.77853 59.7379 4.44229C60.3149 4.10605 61.0137 3.93792 61.8344 3.93792V5.7614H61.3728C59.4109 5.7614 58.4299 6.83479 58.4299 8.98157V14.7624H56.6796V4.13191H58.4299V5.85839Z"/><path fill="#111417" d="M63.2009 9.40834C63.2009 8.32202 63.4189 7.37148 63.8549 6.55674C64.2908 5.72907 64.8871 5.08891 65.6436 4.63628C66.413 4.18364 67.2657 3.95732 68.2018 3.95732C69.125 3.95732 69.9264 4.15778 70.606 4.55868C71.2856 4.95959 71.7921 5.46395 72.1255 6.07178V4.13191H73.8951V14.7624H72.1255V12.7837C71.7793 13.4045 71.26 13.9218 70.5676 14.3356C69.888 14.7365 69.0929 14.937 68.1825 14.937C67.2465 14.937 66.4002 14.7042 65.6436 14.2386C64.8871 13.773 64.2908 13.1199 63.8549 12.2793C63.4189 11.4387 63.2009 10.4817 63.2009 9.40834ZM72.1255 9.42774C72.1255 8.62593 71.9652 7.92758 71.6447 7.33269C71.3241 6.7378 70.8881 6.28516 70.3368 5.97478C69.7982 5.65147 69.2019 5.48982 68.548 5.48982C67.894 5.48982 67.2978 5.64501 66.7592 5.95538C66.2206 6.26576 65.7911 6.7184 65.4705 7.31329C65.15 7.90818 64.9897 8.60653 64.9897 9.40834C64.9897 10.2231 65.15 10.9344 65.4705 11.5422C65.7911 12.1371 66.2206 12.5962 66.7592 12.9195C67.2978 13.2299 67.894 13.3851 68.548 13.3851C69.2019 13.3851 69.7982 13.2299 70.3368 12.9195C70.8881 12.5962 71.3241 12.1371 71.6447 11.5422C71.9652 10.9344 72.1255 10.2296 72.1255 9.42774Z"/><path fill="#111417" d="M78.9879 5.58681V11.8526C78.9879 12.3699 79.0969 12.7384 79.3149 12.9583C79.5329 13.1652 79.9111 13.2687 80.4497 13.2687H81.7384V14.7624H80.1612C79.1866 14.7624 78.4557 14.536 77.9685 14.0834C77.4812 13.6308 77.2376 12.8872 77.2376 11.8526V5.58681H75.872V4.13191H77.2376V1.4549H78.9879V4.13191H81.7384V5.58681H78.9879Z"/><path fill="#111417" d="M93.4761 9.03977C93.4761 9.37601 93.4569 9.73165 93.4184 10.1067H84.9939C85.058 11.1542 85.4106 11.9754 86.0518 12.5703C86.7057 13.1523 87.4943 13.4433 88.4176 13.4433C89.1741 13.4433 89.8024 13.2687 90.3025 12.9195C90.8154 12.5574 91.1745 12.0789 91.3796 11.484H93.2646C92.9825 12.5057 92.4183 13.3398 91.572 13.9864C90.7257 14.6201 89.6742 14.937 88.4176 14.937C87.4174 14.937 86.5198 14.7106 85.7248 14.258C84.9426 13.8054 84.3271 13.1652 83.8783 12.3375C83.4295 11.4969 83.2051 10.527 83.2051 9.42774C83.2051 8.32848 83.4231 7.36502 83.8591 6.53734C84.2951 5.70967 84.9041 5.07598 85.6863 4.63628C86.4813 4.18364 87.3917 3.95732 88.4176 3.95732C89.4177 3.95732 90.3025 4.17717 91.0719 4.61688C91.8412 5.05658 92.4311 5.6644 92.8414 6.44035C93.2646 7.20336 93.4761 8.06984 93.4761 9.03977ZM91.6681 8.67119C91.6681 7.99871 91.5207 7.42321 91.2257 6.94471C90.9308 6.45328 90.5269 6.08471 90.014 5.83899C89.5139 5.58034 88.9561 5.45102 88.3406 5.45102C87.4559 5.45102 86.6993 5.73553 86.071 6.30456C85.4555 6.87359 85.1029 7.66246 85.0131 8.67119H91.6681Z"/><path fill="#111417" d="M100.133 3.95732C101.044 3.95732 101.839 4.15778 102.518 4.55868C103.211 4.95959 103.724 5.46395 104.057 6.07178V4.13191H105.827V14.9952C105.827 15.9651 105.622 16.8251 105.211 17.5752C104.801 18.3382 104.211 18.9331 103.442 19.3598C102.685 19.7866 101.8 20 100.787 20C99.4025 20 98.2484 19.6702 97.3252 19.0107C96.402 18.3511 95.857 17.4523 95.6903 16.3143H97.4214C97.6137 16.9609 98.0112 17.4782 98.6139 17.8661C99.2166 18.2671 99.9411 18.4675 100.787 18.4675C101.749 18.4675 102.531 18.1636 103.134 17.5558C103.749 16.9479 104.057 16.0944 104.057 14.9952V12.7643C103.711 13.3851 103.198 13.9024 102.518 14.3162C101.839 14.73 101.044 14.937 100.133 14.937C99.1973 14.937 98.3446 14.7042 97.5753 14.2386C96.8187 13.773 96.2225 13.1199 95.7865 12.2793C95.3505 11.4387 95.1325 10.4817 95.1325 9.40834C95.1325 8.32202 95.3505 7.37148 95.7865 6.55674C96.2225 5.72907 96.8187 5.08891 97.5753 4.63628C98.3446 4.18364 99.1973 3.95732 100.133 3.95732ZM104.057 9.42774C104.057 8.62593 103.897 7.92758 103.576 7.33269C103.256 6.7378 102.82 6.28516 102.268 5.97478C101.73 5.65147 101.134 5.48982 100.48 5.48982C99.8256 5.48982 99.2294 5.64501 98.6908 5.95538C98.1523 6.26576 97.7227 6.7184 97.4022 7.31329C97.0816 7.90818 96.9213 8.60653 96.9213 9.40834C96.9213 10.2231 97.0816 10.9344 97.4022 11.5422C97.7227 12.1371 98.1523 12.5962 98.6908 12.9195C99.2294 13.2299 99.8256 13.3851 100.48 13.3851C101.134 13.3851 101.73 13.2299 102.268 12.9195C102.82 12.5962 103.256 12.1371 103.576 11.5422C103.897 10.9344 104.057 10.2296 104.057 9.42774Z"/><path fill="#111417" d="M109.689 2.40543C109.355 2.40543 109.073 2.28904 108.842 2.05626C108.611 1.82347 108.496 1.53896 108.496 1.20272C108.496 0.866473 108.611 0.581959 108.842 0.349176C109.073 0.116392 109.355 0 109.689 0C110.009 0 110.278 0.116392 110.496 0.349176C110.727 0.581959 110.843 0.866473 110.843 1.20272C110.843 1.53896 110.727 1.82347 110.496 2.05626C110.278 2.28904 110.009 2.40543 109.689 2.40543ZM110.535 4.13191V14.7624H108.785V4.13191H110.535Z"/><path fill="#111417" d="M119.019 14.7624L116.518 10.805L114.114 14.7624H112.287L115.691 9.48594L112.287 4.13191H114.268L116.769 8.06983L119.154 4.13191H120.981L117.596 9.38894L121 14.7624H119.019Z"/><path fill="#111417" d="M49.4363 21L44.2529 34.6949H42.1834L37 21H38.9118L43.228 32.8087L47.5443 21H49.4363Z"/><path fill="#111417" d="M50.7328 29.272C50.7328 28.1717 50.9562 27.2089 51.4029 26.3837C51.8496 25.5453 52.4606 24.8969 53.2358 24.4385C54.0242 23.98 54.898 23.7508 55.8571 23.7508C56.8031 23.7508 57.6244 23.9538 58.3207 24.3599C59.0171 24.7659 59.5361 25.2768 59.8777 25.8925V23.9276H61.691V34.6949H59.8777V32.6908C59.523 33.3195 58.9908 33.8435 58.2813 34.2627C57.5849 34.6687 56.7703 34.8718 55.8374 34.8718C54.8782 34.8718 54.0111 34.636 53.2358 34.1644C52.4606 33.6929 51.8496 33.0314 51.4029 32.1799C50.9562 31.3285 50.7328 30.3592 50.7328 29.272ZM59.8777 29.2916C59.8777 28.4795 59.7135 27.7721 59.385 27.1696C59.0565 26.567 58.6098 26.1086 58.0448 25.7942C57.493 25.4667 56.882 25.303 56.2119 25.303C55.5418 25.303 54.9308 25.4602 54.379 25.7746C53.8271 26.0889 53.3869 26.5474 53.0585 27.1499C52.73 27.7525 52.5657 28.4598 52.5657 29.272C52.5657 30.0972 52.73 30.8176 53.0585 31.4333C53.3869 32.0359 53.8271 32.5009 54.379 32.8283C54.9308 33.1427 55.5418 33.2999 56.2119 33.2999C56.882 33.2999 57.493 33.1427 58.0448 32.8283C58.6098 32.5009 59.0565 32.0359 59.385 31.4333C59.7135 30.8176 59.8777 30.1038 59.8777 29.2916Z"/><path fill="#111417" d="M69.9841 23.7311C71.298 23.7311 72.3623 24.1306 73.1769 24.9297C73.9916 25.7156 74.3989 26.8552 74.3989 28.3485V34.6949H72.6251V28.6039C72.6251 27.5298 72.3557 26.7111 71.817 26.1479C71.2783 25.5715 70.5425 25.2834 69.6096 25.2834C68.6636 25.2834 67.9081 25.5781 67.3431 26.1675C66.7913 26.757 66.5153 27.615 66.5153 28.7415V34.6949H64.7218V23.9276H66.5153V25.4602C66.8701 24.91 67.3497 24.4843 67.9541 24.183C68.5716 23.8818 69.2483 23.7311 69.9841 23.7311Z"/><path fill="#111417" d="M79.5163 25.4012V31.7477C79.5163 32.2716 79.628 32.645 79.8513 32.8676C80.0747 33.0772 80.4623 33.182 81.0142 33.182H82.3347V34.6949H80.7185C79.7199 34.6949 78.971 34.4657 78.4717 34.0072C77.9724 33.5488 77.7228 32.7956 77.7228 31.7477V25.4012H76.3234V23.9276H77.7228V21.2161H79.5163V23.9276H82.3347V25.4012H79.5163Z"/><path fill="#111417" d="M83.8376 29.272C83.8376 28.1717 84.061 27.2089 84.5077 26.3837C84.9545 25.5453 85.5654 24.8969 86.3406 24.4385C87.129 23.98 88.0028 23.7508 88.9619 23.7508C89.908 23.7508 90.7292 23.9538 91.4256 24.3599C92.1219 24.7659 92.6409 25.2768 92.9826 25.8925V23.9276H94.7958V34.6949H92.9826V32.6908C92.6278 33.3195 92.0957 33.8435 91.3861 34.2627C90.6898 34.6687 89.8751 34.8718 88.9422 34.8718C87.9831 34.8718 87.1159 34.636 86.3406 34.1644C85.5654 33.6929 84.9545 33.0314 84.5077 32.1799C84.061 31.3285 83.8376 30.3592 83.8376 29.272ZM92.9826 29.2916C92.9826 28.4795 92.8183 27.7721 92.4898 27.1696C92.1614 26.567 91.7146 26.1086 91.1496 25.7942C90.5978 25.4667 89.9868 25.303 89.3167 25.303C88.6466 25.303 88.0356 25.4602 87.4838 25.7746C86.9319 26.0889 86.4917 26.5474 86.1633 27.1499C85.8348 27.7525 85.6705 28.4598 85.6705 29.272C85.6705 30.0972 85.8348 30.8176 86.1633 31.4333C86.4917 32.0359 86.9319 32.5009 87.4838 32.8283C88.0356 33.1427 88.6466 33.2999 89.3167 33.2999C89.9868 33.2999 90.5978 33.1427 91.1496 32.8283C91.7146 32.5009 92.1614 32.0359 92.4898 31.4333C92.8183 30.8176 92.9826 30.1038 92.9826 29.2916Z"/><path fill="#111417" d="M102.281 23.7508C103.214 23.7508 104.028 23.9538 104.725 24.3599C105.434 24.7659 105.96 25.2768 106.301 25.8925V23.9276H108.115V34.9307C108.115 35.9131 107.904 36.7842 107.484 37.544C107.064 38.3168 106.459 38.9193 105.671 39.3516C104.896 39.7839 103.989 40 102.951 40C101.532 40 100.349 39.666 99.4033 38.9979C98.4573 38.3299 97.8989 37.4195 97.7281 36.2668H99.5019C99.699 36.9218 100.106 37.4457 100.724 37.8387C101.341 38.2447 102.084 38.4478 102.951 38.4478C103.936 38.4478 104.738 38.14 105.355 37.5243C105.986 36.9087 106.301 36.0441 106.301 34.9307V32.6711C105.947 33.2999 105.421 33.8239 104.725 34.243C104.028 34.6622 103.214 34.8718 102.281 34.8718C101.322 34.8718 100.448 34.636 99.6596 34.1644C98.8843 33.6929 98.2734 33.0314 97.8266 32.1799C97.3799 31.3285 97.1565 30.3592 97.1565 29.272C97.1565 28.1717 97.3799 27.2089 97.8266 26.3837C98.2734 25.5453 98.8843 24.8969 99.6596 24.4385C100.448 23.98 101.322 23.7508 102.281 23.7508ZM106.301 29.2916C106.301 28.4795 106.137 27.7721 105.809 27.1696C105.48 26.567 105.034 26.1086 104.469 25.7942C103.917 25.4667 103.306 25.303 102.636 25.303C101.966 25.303 101.355 25.4602 100.803 25.7746C100.251 26.0889 99.8107 26.5474 99.4822 27.1499C99.1537 27.7525 98.9895 28.4598 98.9895 29.272C98.9895 30.0972 99.1537 30.8176 99.4822 31.4333C99.8107 32.0359 100.251 32.5009 100.803 32.8283C101.355 33.1427 101.966 33.2999 102.636 33.2999C103.306 33.2999 103.917 33.1427 104.469 32.8283C105.034 32.5009 105.48 32.0359 105.809 31.4333C106.137 30.8176 106.301 30.1038 106.301 29.2916Z"/><path fill="#111417" d="M121 28.8987C121 29.2392 120.98 29.5994 120.941 29.9793H112.308C112.374 31.0403 112.735 31.8721 113.392 32.4747C114.062 33.0641 114.871 33.3588 115.817 33.3588C116.592 33.3588 117.236 33.182 117.748 32.8283C118.274 32.4616 118.642 31.9769 118.852 31.3744H120.783C120.494 32.4092 119.916 33.2541 119.049 33.909C118.182 34.5508 117.104 34.8718 115.817 34.8718C114.792 34.8718 113.872 34.6425 113.057 34.1841C112.256 33.7256 111.625 33.0772 111.165 32.2389C110.705 31.3875 110.475 30.405 110.475 29.2916C110.475 28.1782 110.699 27.2023 111.146 26.364C111.592 25.5257 112.216 24.8838 113.018 24.4385C113.833 23.98 114.765 23.7508 115.817 23.7508C116.841 23.7508 117.748 23.9735 118.536 24.4188C119.325 24.8642 119.929 25.4798 120.35 26.2658C120.783 27.0386 121 27.9162 121 28.8987ZM119.147 28.5253C119.147 27.8442 118.996 27.2613 118.694 26.7766C118.392 26.2789 117.978 25.9056 117.452 25.6567C116.94 25.3947 116.368 25.2637 115.738 25.2637C114.831 25.2637 114.056 25.5519 113.412 26.1282C112.781 26.7046 112.42 27.5036 112.328 28.5253H119.147Z"/></g><defs><clipPath id="clip0_621_435"><rect width="121" height="40" fill="#fff"/></clipPath></defs></svg>