<svg xmlns="http://www.w3.org/2000/svg" width="32" height="32" fill="none" viewBox="0 0 32 32"><rect width="32" height="32" fill="#343D46" rx="4"/><path fill="#F4F5F5" d="M8 10.7349C8 10.2321 8.18019 9.81729 8.54054 9.49048C8.9009 9.16365 9.36937 9.00024 9.94595 9.00024C10.5122 9.00024 10.9704 9.16113 11.3205 9.48294C11.6808 9.81479 11.861 10.2472 11.861 10.7802C11.861 11.2629 11.686 11.6651 11.3359 11.9869C10.9756 12.3188 10.5019 12.4847 9.91506 12.4847H9.89961C9.33333 12.4847 8.87517 12.3188 8.5251 11.9869C8.17503 11.6551 8 11.2377 8 10.7349ZM8.20077 23.9336V13.8573H11.6293V23.9336H8.20077ZM13.529 23.9336H16.9575V18.3072C16.9575 17.9552 16.9987 17.6837 17.0811 17.4926C17.2252 17.1507 17.444 16.8616 17.7375 16.6253C18.0309 16.389 18.399 16.2708 18.8417 16.2708C19.9949 16.2708 20.5714 17.03 20.5714 18.5485V23.9336H24V18.1563C24 16.668 23.6396 15.5392 22.9189 14.7699C22.1982 14.0006 21.2458 13.616 20.0618 13.616C18.7336 13.616 17.6988 14.1741 16.9575 15.2903V15.3205H16.9421L16.9575 15.2903V13.8573H13.529C13.5495 14.1791 13.5598 15.1797 13.5598 16.8591C13.5598 18.5385 13.5495 20.8966 13.529 23.9336Z"/></svg>