<svg xmlns="http://www.w3.org/2000/svg" width="32" height="32" fill="none" viewBox="0 0 32 32"><rect width="32" height="32" fill="#343D46" rx="4"/><g clip-path="url(#clip0_621_446)"><path fill="#F4F5F5" d="M14.5854 16.3642C14.9611 16.7384 15.4698 16.9485 16.0001 16.9485C16.5304 16.9485 17.039 16.7384 17.4148 16.3642L23.8541 9.9242C23.7058 9.55352 23.4501 9.23569 23.1196 9.01161C22.7892 8.78753 22.3993 8.66747 22.0001 8.66687H10.0001C9.60086 8.66747 9.21095 8.78753 8.88054 9.01161C8.55012 9.23569 8.29433 9.55352 8.14609 9.9242L14.5854 16.3642Z"/><path fill="#F4F5F5" d="M18.3573 17.3069C17.7316 17.931 16.8838 18.2816 16 18.2816C15.1162 18.2816 14.2684 17.931 13.6427 17.3069L8 11.6669V23.3335H24V11.6669L18.3573 17.3069Z"/></g><defs><clipPath id="clip0_621_446"><rect width="16" height="16" fill="#fff" transform="translate(8 8)"/></clipPath></defs></svg>