<svg width="126" height="30" viewBox="0 0 126 30" fill="none" xmlns="http://www.w3.org/2000/svg">
<g clip-path="url(#clip0_612_3256)">
<path d="M14.5715 4C8.73617 4 4 8.73617 4 14.5715C4 20.4069 8.73617 25.143 14.5715 25.143C20.4069 25.143 25.143 20.4069 25.143 14.5715C25.143 8.73617 20.3907 4 14.5715 4ZM14.5715 23.0416C9.88384 23.0416 6.10137 19.243 6.10137 14.5715C6.10137 9.9 9.88384 6.10137 14.5715 6.10137C19.2592 6.10137 23.0416 9.9 23.0416 14.5715C23.0416 19.243 19.243 23.0416 14.5715 23.0416Z" fill="white"/>
<path d="M17.23 15.4497L15.7441 16.9356L17.7901 18.9815L19.276 17.4956L17.23 15.4497Z" fill="white"/>
<path d="M17.562 10.1425L14.7494 12.9712L11.9207 10.1425L10.4497 11.6296L13.2623 14.4422L10.4497 17.271L11.9207 18.7581L19.0492 11.6296L17.562 10.1425Z" fill="white"/>
</g>
<g clip-path="url(#clip1_612_3256)">
<path d="M36.2805 8.5262C32.9668 8.5262 30.3481 10.9024 30.3481 14.4262C30.3481 17.95 32.886 20.3262 36.2805 20.3262C39.5942 20.3262 42.2128 17.95 42.2128 14.4262C42.229 10.9024 39.6103 8.5262 36.2805 8.5262ZM36.2805 17.8692C34.2923 17.8692 32.8213 16.4791 32.8213 14.4424C32.8213 12.4865 34.2923 11.0155 36.2805 11.0155C38.2687 11.0155 39.7397 12.4057 39.7397 14.4424C39.7558 16.3983 38.2849 17.8692 36.2805 17.8692Z" fill="white"/>
<path d="M56.2275 17.853L51.5884 8.84949H47.5796V20.0191H50.0527V11.1125L54.6273 20.0191H58.7007V8.84949H56.2275V17.853Z" fill="white"/>
<path d="M69.9185 17.8692C67.9302 17.8692 66.5239 16.4791 66.5239 14.4424C66.5239 12.4865 67.9302 11.0155 69.9185 11.0155C71.3732 11.0155 72.4724 11.8237 73.0543 13.1007L75.3497 12.1309C74.396 9.81935 72.4239 8.5262 69.9023 8.5262C66.6694 8.5262 64.0508 10.9024 64.0508 14.4262C64.0508 17.95 66.5886 20.3262 69.9831 20.3262C72.5371 20.3262 74.493 19.0007 75.4467 16.673L73.1675 15.6709C72.6017 16.9802 71.4702 17.8692 69.9185 17.8692Z" fill="white"/>
<path d="M90.6092 12.4865C90.6092 10.5467 89.2352 8.84949 86.5519 8.84949H80.4741V20.0191H82.9473V16.1558H86.2286L88.2169 20.0191H91.0133L88.6695 15.7032C89.9464 15.0728 90.6092 13.8443 90.6092 12.4865ZM86.6812 13.6826H82.9473V11.3226H86.6812C87.6349 11.3226 88.136 11.8237 88.136 12.5188C88.136 13.2139 87.6349 13.6826 86.6812 13.6826Z" fill="white"/>
<path d="M103.282 15.2344C103.282 16.9478 102.167 17.8692 100.776 17.8692C99.3863 17.8692 98.271 16.9478 98.271 15.2344V8.84949H95.7979V15.3152C95.7979 18.4026 98.0124 20.3424 100.776 20.3424C103.541 20.3424 105.755 18.4026 105.755 15.3152V8.84949H103.282V15.2344Z" fill="white"/>
<path d="M122 18.2733L118.024 14.3131L121.693 10.6599L119.769 8.73634L116.1 12.3895L112.447 8.73634L110.523 10.6599L114.177 14.3131L110.523 17.9824L112.447 19.9059L116.1 16.2366L120.077 20.2131L122 18.2733Z" fill="white"/>
</g>
<defs>
<clipPath id="clip0_612_3256">
<rect width="21.143" height="21.143" fill="white" transform="translate(4 4)"/>
</clipPath>
<clipPath id="clip1_612_3256">
<rect width="91.6521" height="11.8162" fill="white" transform="translate(30.3481 8.5262)"/>
</clipPath>
</defs>
</svg>
