<svg width="102" height="54" viewBox="0 0 102 54" fill="none" xmlns="http://www.w3.org/2000/svg">
<g id="Sploofy" clip-path="url(#clip0_650_611)">
<g id="Group">
<path id="XMLID_3_" d="M56.8529 0C57.2233 0.0645682 57.6016 0.121065 57.972 0.193705C59.8638 0.556901 61.5061 1.38015 62.8023 2.83293C63.8408 3.97902 64.3802 5.31881 64.3238 6.88458C64.3158 7.16707 64.2675 7.44956 64.2353 7.73204C64.2272 7.80468 64.2192 7.87732 64.2031 7.98224C64.3077 7.98224 64.3963 7.98224 64.4768 7.98224C65.5716 7.9661 66.6665 7.99031 67.7372 8.2163C68.7677 8.42615 69.7579 8.74092 70.6193 9.36239C71.1104 9.71751 71.5049 10.1614 71.7866 10.6941C72.3743 11.7998 72.2133 13.0266 71.3439 14.0517C70.563 14.9798 69.5486 15.4964 68.4054 15.8273C67.1978 16.1824 65.9742 16.5295 64.7988 16.9814C62.1502 17.9903 60.2261 19.8224 58.9219 22.3406C58.5919 22.9701 58.2859 23.6077 57.9398 24.2292C57.2152 25.5206 56.1686 26.5133 55.0013 27.385C52.6747 29.1283 50.0986 30.3148 47.2487 30.904C46.8945 30.9766 46.5402 31.0331 46.186 31.0734C46.017 31.0977 45.9203 31.1703 45.864 31.3398C44.6403 34.9153 43.4166 38.4988 42.193 42.0742C42.1044 42.3325 42.0078 42.5827 41.9192 42.841C41.879 42.954 41.8629 43.067 41.8307 43.1961C42.048 43.2849 42.2332 43.2284 42.4103 43.1396C42.8531 42.9298 43.1993 42.5989 43.5132 42.2276C43.8272 41.8483 44.0365 41.4447 44.1412 40.9524C44.3505 39.9031 44.9301 39.0476 45.6547 38.2809C46.9267 36.9411 48.5287 36.1663 50.2918 35.7466C52.1917 35.2865 54.0916 35.343 55.9593 35.9483C57.0059 36.2873 57.9398 36.8442 58.6965 37.6594C59.7753 38.8136 60.202 40.1776 59.9846 41.7514C59.9765 41.7918 59.9765 41.824 59.9685 41.8967C60.2583 41.7272 60.5401 41.59 60.6045 41.2429C60.8782 39.8951 61.6027 38.8136 62.601 37.8935C63.9213 36.6909 65.4911 36.021 67.222 35.6659C69.3071 35.2381 71.3358 35.3914 73.284 36.2631C74.8297 36.9572 75.9165 38.0872 76.4237 39.7417C76.6089 40.3551 76.625 40.9847 76.5445 41.6223C76.5364 41.6949 76.5284 41.7676 76.5123 41.8886C76.9068 41.6546 77.1885 41.3721 77.3254 40.9685C77.5347 40.3713 77.7279 39.7659 77.9292 39.1687C78.058 38.7813 78.1948 38.3939 78.3317 38.0065C78.3559 37.9338 78.372 37.8612 78.4042 37.7724C78.1385 37.7724 77.905 37.7724 77.6635 37.7724C77.1 37.7643 76.8504 37.4253 77.0356 36.8927C77.1241 36.6344 77.2288 36.3842 77.3173 36.1259C77.422 35.8515 77.6152 35.7143 77.905 35.7143C78.227 35.7143 78.5491 35.7062 78.8711 35.7224C79.0563 35.7304 79.1529 35.6659 79.2253 35.4883C79.5071 34.7135 79.813 33.9548 80.0948 33.18C80.6583 31.6223 81.7371 30.5892 83.2506 29.9677C84.6031 29.4108 86.0038 29.1364 87.469 29.2575C88.4029 29.3382 89.3368 29.4754 90.1579 29.9758C91.2528 30.6457 91.8485 31.6061 91.7439 32.9298C91.6472 34.1243 90.6731 35.0686 89.4736 35.1412C88.741 35.1816 88.0406 35.0847 87.461 34.5843C86.7364 33.9548 86.3983 33.1638 86.5996 32.1953C86.6076 32.1711 86.6076 32.1469 86.6076 32.0743C85.7704 33.1881 85.392 34.4391 84.9895 35.7224C85.2873 35.7224 85.5611 35.7224 85.8348 35.7224C86.1729 35.7224 86.5191 35.7143 86.8572 35.7304C87.2195 35.7385 87.4771 36.0613 87.3805 36.4084C87.2839 36.7716 87.1551 37.1186 87.0182 37.4657C86.9296 37.6998 86.7203 37.7805 86.4788 37.7805C85.8348 37.7805 85.1907 37.7885 84.5467 37.7724C84.3293 37.7643 84.2327 37.837 84.1603 38.0387C82.5019 42.8894 80.8354 47.7401 79.177 52.5908C79.016 53.067 78.9113 53.1396 78.4042 53.1396C77.1724 53.1396 75.9407 53.1396 74.709 53.1396C74.5158 53.1396 74.3145 53.1558 74.1213 53.1477C73.5497 53.1477 73.284 52.7684 73.4692 52.2195C74.0005 50.6699 74.5319 49.1203 75.0632 47.5706C75.2403 47.0541 75.4174 46.5375 75.5865 46.0291C75.5945 45.9968 75.6026 45.9726 75.6187 45.908C75.0632 45.9483 74.5882 45.7224 74.0891 45.5771C74.0166 45.5529 73.8959 45.5851 73.8315 45.6336C72.3341 46.7151 70.6435 47.2397 68.8241 47.4334C67.1334 47.611 65.4992 47.3931 63.9374 46.707C62.9472 46.2712 62.1099 45.6416 61.4498 44.77C61.4337 44.7458 61.4095 44.7215 61.3773 44.6893C61.2163 44.8345 61.0634 44.9879 60.9023 45.1251C59.9604 45.9403 58.9058 46.1178 57.7626 45.6416C57.5131 45.5367 57.344 45.5609 57.1267 45.7143C55.9674 46.5537 54.6551 47.0137 53.2624 47.2801C51.4591 47.6271 49.6799 47.5383 47.941 46.9169C46.6449 46.4568 45.5581 45.7062 44.7611 44.5682C44.745 44.544 44.7289 44.5278 44.6967 44.4956C44.592 44.6086 44.4954 44.7215 44.3988 44.8345C43.6018 45.8434 42.5633 46.4326 41.3074 46.6667C40.1562 46.8846 39.0211 46.8684 37.902 46.5052C37.1372 46.2631 36.5737 45.795 36.1792 45.109C36.147 45.0525 36.1068 44.996 36.0665 44.9233C36.0343 44.9475 36.0102 44.9637 35.9941 44.9879C35.2212 45.9322 34.1988 46.4407 33.0234 46.6667C31.9769 46.8684 30.9303 46.8765 29.8837 46.6263C28.169 46.2147 27.4203 45.0605 27.4605 43.3737C27.4766 42.5424 27.7584 41.7595 28.0482 40.9927C28.2092 40.5569 28.3944 40.1372 28.5312 39.6933C28.6198 39.4108 28.66 39.1122 28.7083 38.8216C28.7325 38.6521 28.66 38.5876 28.499 38.6441C28.3139 38.7167 28.1207 38.8055 27.9838 38.9346C27.3076 39.6045 26.8326 40.4116 26.5106 41.2994C25.8102 43.1881 25.1339 45.0767 24.4657 46.9734C23.8056 48.8458 23.1615 50.7264 22.5175 52.5989C22.3565 53.0589 22.2357 53.1477 21.7447 53.1558C21.2536 53.1638 20.7625 53.1638 20.2634 53.1719C19.257 53.18 18.2507 53.1881 17.2525 53.1881C17.2203 53.1881 17.1881 53.1881 17.1559 53.1881C16.6567 53.1719 16.4072 52.8249 16.5682 52.3487C16.8338 51.5416 17.1156 50.7425 17.3893 49.9435C19.0155 45.2381 20.6417 40.5408 22.2679 35.8354C22.5417 35.0363 22.8234 34.2373 23.1052 33.4383C23.2582 33.0024 23.395 32.9056 23.8619 32.9056C24.9166 32.9056 25.9712 32.8975 27.0258 32.8975C27.4847 32.8975 27.9516 32.9056 28.4105 32.9136C28.9338 32.9217 29.1833 33.2607 29.0143 33.7692C28.7728 34.4875 28.5151 35.2058 28.2736 35.9241C28.2495 35.9806 28.2334 36.0452 28.2092 36.134C28.4829 36.0452 28.7325 35.9564 28.9821 35.8757C30.1977 35.4964 31.4214 35.3672 32.6531 35.7546C33.8607 36.134 34.6979 36.9088 35.028 38.1679C35.1729 38.7248 35.1327 39.2897 34.9555 39.8386C34.6335 40.8555 34.2793 41.8644 33.9492 42.8814C33.9009 43.0186 33.8687 43.1558 33.8285 43.293C33.8446 43.3091 33.8526 43.3253 33.8687 43.3414C34.0378 43.2768 34.2068 43.2365 34.3598 43.1558C34.8509 42.9056 35.181 42.4778 35.5191 42.05C36.0826 41.3398 36.3885 40.5165 36.6784 39.6772C37.733 36.6102 38.7956 33.5432 39.8583 30.4762C39.9549 30.1937 40.1481 29.9919 40.3494 29.7902C40.9693 29.209 41.7019 28.8216 42.4828 28.5149C43.8111 27.9903 45.1394 27.4818 46.4678 26.9492C47.0957 26.6989 47.6834 26.36 48.2228 25.9483C49.6558 24.8668 49.527 23.2526 48.73 22.1469C48.2308 21.4609 47.5626 20.9766 46.822 20.5973C45.2763 19.8144 43.642 19.3059 41.9514 18.975C39.7295 18.5391 37.4995 18.1437 35.2695 17.7078C34.2632 17.5141 33.2971 17.1994 32.4277 16.6425C31.8641 16.2793 31.3972 15.8273 31.1235 15.1977C30.7773 14.3987 30.9222 13.6239 31.2765 12.8652C31.7353 11.8805 32.5082 11.2026 33.434 10.6699C34.6255 9.99193 35.9136 9.61259 37.2499 9.37853C38.6507 9.12833 40.0757 9.04762 41.4926 8.95884C41.7824 8.9427 42.0722 8.91848 42.362 8.90234C42.5069 8.89427 42.5874 8.8297 42.6599 8.70864C43.0302 8.06295 43.3603 7.38499 43.7789 6.77159C45.9928 3.49475 49.0359 1.37207 52.8438 0.363196C53.4959 0.193705 54.1721 0.137207 54.8403 0.0322841C54.8806 0.0242131 54.9208 0.00807102 54.9611 0C55.589 0 56.225 0 56.8529 0ZM66.6504 42.6312C66.6343 43.1881 66.6826 43.7288 66.9322 44.2373C67.061 44.4875 67.2542 44.6328 67.5279 44.6328C67.9385 44.6247 68.3169 44.5036 68.5906 44.1808C68.8401 43.8902 69.0656 43.5755 69.299 43.2607C69.5164 42.9621 69.5083 42.8894 69.2507 42.6231C68.9126 42.268 68.7355 41.8563 68.7918 41.364C68.8965 40.5246 69.2829 39.8709 70.0719 39.4996C70.1765 39.4512 70.3214 39.3301 70.3295 39.2333C70.3536 38.8297 70.2812 38.4342 69.927 38.1598C69.5969 37.9096 69.2588 37.9661 68.9126 38.1356C68.333 38.4261 67.9224 38.8943 67.5843 39.427C66.9885 40.4116 66.7068 41.4851 66.6504 42.6312ZM50.1388 42.9298C50.1308 43.3979 50.1952 43.866 50.4125 44.3099C50.5333 44.5521 50.7265 44.6893 51.0002 44.6973C51.4188 44.7054 51.8053 44.5843 52.079 44.2454C52.3205 43.9548 52.554 43.6562 52.7794 43.3495C53.0128 43.0347 53.0048 42.9782 52.7311 42.6877C52.4091 42.3406 52.24 41.9451 52.2883 41.4609C52.3849 40.5892 52.7874 39.9274 53.6005 39.5642C53.7857 39.4835 53.8742 39.3382 53.8259 39.1364C53.7776 38.9346 53.7454 38.7248 53.6569 38.5391C53.4878 38.1759 53.1578 38.0065 52.7713 38.1033C52.5379 38.1598 52.3044 38.2647 52.1031 38.3939C51.604 38.7086 51.2739 39.1848 50.9761 39.6772C50.3884 40.6699 50.1549 41.7676 50.1388 42.9298ZM53.3832 4.35835C53.359 4.21307 53.3429 4.03551 53.2866 3.86602C53.1658 3.47861 52.8679 3.32526 52.4735 3.40597C52.0709 3.48668 51.7892 3.73688 51.5557 4.05973C51.2739 4.45521 51.282 4.47942 51.5799 4.86683C51.8294 5.18967 51.8616 5.53672 51.6604 5.89185C51.596 6.00484 51.5154 6.11784 51.4349 6.21469C51.2417 6.45682 51.0324 6.69088 50.8392 6.92494C50.7104 7.08636 50.646 7.26392 50.7426 7.47377C50.9117 7.84504 51.3303 7.99031 51.6765 7.78854C51.8455 7.69169 52.0226 7.56255 52.1434 7.4092C52.3769 7.11864 52.5942 6.81194 52.7713 6.4891C53.1336 5.84342 53.3107 5.13317 53.3832 4.35835ZM59.4533 3.38983C59.0346 3.38983 58.6402 3.63196 58.3262 4.08394C58.0525 4.47135 58.0525 4.48749 58.3503 4.85069C58.6241 5.18967 58.6482 5.54479 58.4308 5.92413C58.3584 6.0452 58.2779 6.15819 58.1893 6.26311C57.9961 6.49717 57.7948 6.72316 57.6097 6.96529C57.497 7.1025 57.4406 7.25585 57.5131 7.44148C57.666 7.84504 58.1169 8.01453 58.4791 7.78854C58.6804 7.6594 58.8656 7.49798 59.0185 7.32042C59.5982 6.63438 59.9282 5.82728 60.0973 4.94754C60.1698 4.5682 60.21 4.19693 60.0731 3.82567C59.9443 3.53511 59.7431 3.38983 59.4533 3.38983Z" fill="white"/>
<path id="XMLID_2_" d="M0 42.3971C0.0483031 42.2115 0.0966062 42.0178 0.15296 41.8321C0.555485 40.4278 1.75501 39.4431 3.2041 39.3059C3.97695 39.2333 4.7176 39.2978 5.418 39.661C5.78832 39.8547 6.12644 40.0969 6.38406 40.4439C6.61752 40.7587 6.58532 41.025 6.2955 41.2833C6.17474 41.3882 6.04594 41.5012 5.90908 41.5819C5.30529 41.929 5.04767 42.4778 4.97522 43.1396C4.82226 44.544 5.52265 45.4318 6.60947 45.8596C8.21152 46.4891 9.78942 46.4326 11.2466 45.4157C12.1885 44.7538 12.6313 43.8257 12.5266 42.6634C12.4863 42.2115 12.269 41.8321 12.0033 41.477C11.4881 40.7748 10.8118 40.2421 10.1597 39.6772C9.4352 39.0557 8.71066 38.4342 7.99416 37.7966C6.10229 36.1178 6.02178 33.3495 7.57553 31.4286C8.34838 30.4762 9.36275 29.8951 10.4898 29.4915C11.8343 29.0153 13.2189 28.7813 14.6519 28.7651C15.9803 28.7409 17.2764 28.8781 18.5242 29.3463C19.281 29.6287 19.9572 30.0242 20.4805 30.6618C21.5432 31.9693 20.9474 34.0517 19.281 34.5682C18.3713 34.8426 17.534 34.7054 16.729 34.2373C16.3264 34.0032 16.262 33.4625 16.576 33.0993C16.6243 33.0428 16.6807 32.9944 16.737 32.9379C17.1878 32.4778 17.1395 31.8079 16.6324 31.4044C15.8032 30.7506 14.2897 30.799 13.5088 31.4931C13.0821 31.8725 12.9935 32.3567 13.2672 32.8652C13.4927 33.2768 13.8227 33.5835 14.1931 33.858C15.0142 34.4714 15.8515 35.0686 16.6565 35.6981C17.365 36.255 17.9929 36.8927 18.5403 37.6191C19.3776 38.7329 19.6594 39.9919 19.5386 41.364C19.3373 43.64 18.0815 45.222 16.254 46.4245C14.9176 47.3043 13.4202 47.7966 11.8665 48.1275C10.2403 48.4746 8.5899 48.5956 6.93149 48.4665C5.4502 48.3535 4.01721 48.0226 2.72107 47.2801C1.63425 46.6828 0.772849 45.8838 0.322021 44.7135C0.193212 44.3826 0.128808 44.0194 0.0402526 43.6723C0.0322021 43.64 0.016101 43.6078 0 43.5755C0 43.1881 0 42.7926 0 42.3971Z" fill="white"/>
<path id="XMLID_1_" d="M89.216 51.0896C89.7151 51.0089 90.1016 50.8071 90.4155 50.4843C90.8825 50.0162 91.2045 49.4512 91.5185 48.8781C91.9773 48.0387 92.2752 47.1267 92.557 46.2147C92.5811 46.1421 92.557 46.0533 92.557 45.9806C92.4684 45.9887 92.3638 45.9806 92.2913 46.021C91.4621 46.4245 90.5927 46.699 89.6668 46.7635C88.7088 46.82 87.8072 46.6747 87.0746 45.9968C86.2937 45.2704 86.0119 44.3422 86.028 43.3011C86.0361 42.5424 86.2615 41.8321 86.511 41.13C87.0585 39.5561 87.5898 37.9661 88.1211 36.3923C88.2177 36.0936 88.3385 35.8192 88.6847 35.7385C88.7974 35.7143 88.9262 35.7062 89.0389 35.7062C90.4558 35.7062 91.8727 35.7062 93.2815 35.7062C94.0302 35.7062 94.3522 36.1582 94.1107 36.8684C93.7565 37.9096 93.3942 38.9508 93.04 39.9919C92.7421 40.8636 92.4443 41.7353 92.1464 42.615C92.0015 43.0428 92.0417 43.0912 92.4845 43.0266C92.7743 42.9863 93.0239 42.8491 93.1849 42.615C93.5552 42.0662 93.9256 41.5093 94.2395 40.9282C94.8514 39.7902 95.2056 38.5553 95.6081 37.3366C95.7208 36.9895 95.8255 36.6344 95.9543 36.2873C96.1073 35.8596 96.3246 35.7062 96.7835 35.7062C97.7496 35.7062 98.7156 35.7062 99.6817 35.7062C100.149 35.7062 100.616 35.6982 101.082 35.6982C101.783 35.6982 102.153 36.1986 101.928 36.8684C101.493 38.1517 101.05 39.427 100.607 40.7103C99.7541 43.1961 98.8847 45.682 98.0555 48.176C97.5563 49.6691 96.6225 50.791 95.3344 51.6384C94.0946 52.4536 92.7582 53.0266 91.2769 53.2365C89.6346 53.4786 88.0326 53.3818 86.5432 52.5585C85.3759 51.9128 84.7238 50.8959 84.5548 49.5884C84.4179 48.5795 85.0458 47.6191 86.0763 47.159C87.4851 46.5214 89.1677 47.1509 89.7151 48.5392C90.0533 49.3866 89.9245 50.1937 89.369 50.9201C89.3287 50.9443 89.2885 51.0008 89.216 51.0896Z" fill="white"/>
</g>
</g>
<defs>
<clipPath id="clip0_650_611">
<rect width="102" height="53.3333" fill="white"/>
</clipPath>
</defs>
</svg>
