<svg xmlns="http://www.w3.org/2000/svg" width="48" height="48" fill="none" viewBox="0 0 48 48"><g id="Icons"><rect width="47" height="47" x=".5" y=".5" stroke="#E4E8EB" rx="2.5"/><g id="Group 1000005852"><g id="Video Search"><path fill="#fff" d="M7 13.0634C7 11.9238 7.92384 11 9.06344 11H37.8419C38.9815 11 39.9054 11.9238 39.9054 13.0634V21.8864C39.9054 22.2762 39.5893 22.5922 39.1995 22.5922C38.8096 22.5922 38.4936 22.2762 38.4936 21.8864V13.0634C38.4936 12.7035 38.2018 12.4118 37.8419 12.4118H9.06344C8.70353 12.4118 8.41176 12.7035 8.41176 13.0634V31.3441C8.41176 31.704 8.70353 31.9957 9.06344 31.9957H20.5459C20.9358 31.9957 21.2518 32.3118 21.2518 32.7016C21.2518 33.0915 20.9358 33.4075 20.5459 33.4075H9.06344C7.92383 33.4075 7 32.4837 7 31.3441V13.0634Z"/><path fill="#fff" fill-rule="evenodd" d="M23.1504 29.8258C23.1504 28.4744 24.2459 27.3788 25.5974 27.3788C26.9489 27.3788 28.0444 28.4744 28.0444 29.8258V36.5644H23.1504V29.8258ZM26.6327 29.8258V35.1527H24.5621V29.8258C24.5621 29.2541 25.0256 28.7906 25.5974 28.7906C26.1692 28.7906 26.6327 29.2541 26.6327 29.8258Z" clip-rule="evenodd"/><path fill="#fff" fill-rule="evenodd" d="M37.553 24.7546C36.2015 24.7546 35.1059 25.8502 35.1059 27.2016V36.5647H40V27.2016C40 25.8502 38.9044 24.7546 37.553 24.7546ZM38.5882 35.1529V27.2016C38.5882 26.6299 38.1247 26.1664 37.553 26.1664C36.9812 26.1664 36.5177 26.6299 36.5177 27.2016V35.1529H38.5882Z" clip-rule="evenodd"/><path fill="#fff" fill-rule="evenodd" d="M29.1281 25.8891C29.1281 24.5377 30.2237 23.4421 31.5752 23.4421C32.9266 23.4421 34.0222 24.5377 34.0222 25.8891V36.5644H29.1281V25.8891ZM32.6104 25.8891V35.1527H30.5399V25.8891C30.5399 25.3174 31.0034 24.8539 31.5752 24.8539C32.1469 24.8539 32.6104 25.3174 32.6104 25.8891Z" clip-rule="evenodd"/></g><path id="Vector 2588" stroke="#fff" stroke-linecap="round" stroke-linejoin="round" stroke-width="2" d="M13.5883 23.5972L18.353 18.3845L23.6471 24.1764L30.5295 16.647"/></g></g></svg>