<svg width="48" height="48" viewBox="0 0 48 48" fill="none" xmlns="http://www.w3.org/2000/svg">
<g id="Icons">
<rect x="0.5" y="0.5" width="47" height="47" rx="2.5" stroke="#E4E8EB"/>
<g id="CNN">
<path id="Rectangle 3143" d="M15.0962 35.0139H14.3336C13.7813 35.0139 13.3336 34.5662 13.3336 34.0139V14.3463C13.3336 13.794 13.7813 13.3463 14.3336 13.3463H34.0012C34.5535 13.3463 35.0012 13.794 35.0012 14.3463V15.572" stroke="white" stroke-width="1.5" stroke-linecap="round"/>
<path id="Rectangle 3147" d="M10.7626 30.6678H9.99997C9.44768 30.6678 8.99997 30.22 8.99997 29.6678V10.0001C8.99997 9.44784 9.44768 9.00012 9.99997 9.00012H29.6676C30.2199 9.00012 30.6676 9.44784 30.6676 10.0001V11.2259" stroke="white" stroke-width="1.5" stroke-linecap="round"/>
<rect id="Rectangle 3144" x="17.3323" y="17.6927" width="21.6676" height="21.6676" rx="1" stroke="white" stroke-width="1.5" stroke-linecap="round"/>
<rect id="Rectangle 3146" x="20.3988" y="20.6694" width="5.20023" height="5.20023" rx="0.445643" fill="white"/>
</g>
</g>
</svg>
