<svg width="48" height="48" viewBox="0 0 48 48" fill="none" xmlns="http://www.w3.org/2000/svg">
<g id="Icons">
<rect x="0.5" y="0.5" width="47" height="47" rx="2.5" stroke="#E4E8EB"/>
<g id="Group 1000005854">
<g id="Recommender system">
<path fill-rule="evenodd" clip-rule="evenodd" d="M32.9388 9.86373C32.5646 8.7121 30.9354 8.71208 30.5612 9.86373L29.409 13.4098H25.6804C24.4695 13.4098 23.966 14.9593 24.9457 15.6711L27.9622 17.8627L26.81 21.4088C26.4358 22.5604 27.7539 23.5181 28.7335 22.8064L31.75 20.6147L34.7665 22.8064C35.7461 23.5181 37.0642 22.5604 36.69 21.4088L35.5378 17.8627L38.5543 15.6711C39.534 14.9594 39.0305 13.4098 37.8196 13.4098H34.091L32.9388 9.86373ZM30.7794 14.0461L31.75 11.059L32.7206 14.0461C32.8879 14.5611 33.3679 14.9098 33.9094 14.9098H37.0502L34.5092 16.756C34.0711 17.0743 33.8878 17.6385 34.0551 18.1535L35.0257 21.1406L32.4847 19.2945C32.0466 18.9762 31.4534 18.9762 31.0153 19.2945L28.4743 21.1406L29.4449 18.1535C29.6122 17.6385 29.4289 17.0743 28.9908 16.7559L26.4498 14.9098H29.5906C30.1322 14.9098 30.6121 14.5611 30.7794 14.0461Z" fill="white"/>
<path fill-rule="evenodd" clip-rule="evenodd" d="M31.7569 32.6548C31.8011 32.4853 31.8321 32.3157 31.8523 32.1497C31.9576 31.2821 31.7876 30.4146 31.6004 29.8675L31.5424 29.698L22.7363 21.1199C22.4405 20.8317 22.0575 20.634 21.6884 20.4928C21.3111 20.3486 20.8972 20.2444 20.4959 20.1687C19.6946 20.0177 18.8758 19.9679 18.3562 19.9679L7 19.9681V31.3416H13.3867C13.3866 31.3418 13.3882 31.3422 13.3923 31.3429C13.4102 31.3461 13.4691 31.3567 13.5802 31.3907C13.7337 31.4378 13.9521 31.5189 14.2399 31.6496C14.815 31.9107 15.6425 32.3583 16.7468 33.0918C17.9478 33.8896 19.3313 35.0427 20.6189 36.1158C20.7991 36.266 20.9775 36.4147 21.1533 36.5606C21.8573 37.1451 22.5232 37.6886 23.0766 38.0868C23.3527 38.2855 23.6186 38.4611 23.8594 38.5899C24.0699 38.7025 24.3738 38.8434 24.6912 38.8434H37.8676C38.3008 38.8434 38.9344 38.7201 39.4813 38.3278C40.0666 37.9079 40.5 37.2138 40.5 36.218V36.1955C40.5 35.7444 40.5 35.3077 40.468 34.9247C40.4356 34.5378 40.3662 34.1327 40.185 33.7717C39.9903 33.3836 39.6851 33.0833 39.2596 32.8949C38.8601 32.7179 38.3893 32.6548 37.8676 32.6548H31.7569ZM18.3562 21.4679H14.6543V30.1931C14.7205 30.2214 14.7891 30.2516 14.8601 30.2838C15.5242 30.5853 16.4222 31.0755 17.5767 31.8423C18.8517 32.6892 20.3061 33.9018 21.5837 34.9671L21.5846 34.9679C21.7641 35.1175 21.94 35.2642 22.1115 35.4065C22.8192 35.9942 23.4474 36.5056 23.9528 36.8693C24.2061 37.0516 24.4108 37.1837 24.5671 37.2673C24.6618 37.318 24.7135 37.3368 24.7307 37.3431L24.732 37.3434H37.8676C38.0619 37.3434 38.3696 37.2792 38.6069 37.1089C38.8059 36.9662 39 36.7226 39 36.218C39 35.7394 38.9995 35.3636 38.9732 35.0497C38.9467 34.7334 38.8985 34.5523 38.8444 34.4445C38.8038 34.3637 38.7561 34.3124 38.6522 34.2664C38.5223 34.2089 38.2872 34.1548 37.8676 34.1548H30.8497C30.6786 34.3006 30.4814 34.4313 30.255 34.5416C29.1405 35.0844 28.1978 35.1257 27.3643 34.8009C26.618 34.5101 26.0412 33.9476 25.5888 33.5065L21.6897 29.7083L22.7363 28.6338L26.5931 32.3908C27.0987 32.8833 27.4735 33.2336 27.9089 33.4033C28.2807 33.5481 28.7843 33.5894 29.5982 33.193C30.0648 32.9658 30.2937 32.5414 30.3632 31.9688C30.4255 31.456 30.3428 30.9074 30.2317 30.5153L21.6897 22.1944C21.5999 22.1069 21.4284 21.9993 21.1527 21.8939C20.8852 21.7916 20.5639 21.708 20.218 21.6427C19.5247 21.512 18.8008 21.4679 18.3562 21.4679ZM8.5 21.4679V29.8416H13.1543V21.4679H8.5Z" fill="white"/>
</g>
</g>
</g>
</svg>
