<svg xmlns="http://www.w3.org/2000/svg" width="48" height="48" fill="none" viewBox="0 0 48 48"><g id="Icons"><rect width="47" height="47" x=".5" y=".5" stroke="#E4E8EB" rx="2.5"/><g id="recommand"><path fill="#fff" d="M10.8386 31.7079C10.474 31.7079 10.1785 32.0035 10.1785 32.368C10.1785 32.7326 10.474 33.0281 10.8386 33.0281H13.8749C14.2394 33.0281 14.535 32.7326 14.535 32.368C14.535 32.0035 14.2394 31.7079 13.8749 31.7079H10.8386Z"/><path fill="#fff" fill-rule="evenodd" d="M23.1329 10.3506C23.3049 9.98905 23.6023 9.59113 23.9234 9.41315C24.0714 9.33114 24.2046 9.30581 24.3374 9.32798C24.4747 9.35091 24.6854 9.43731 24.9599 9.71189C25.0946 9.84655 25.2269 10.1306 25.2768 10.6481C25.3251 11.1498 25.287 11.7771 25.1792 12.4827C24.9643 13.8908 24.491 15.4958 24.0296 16.7965C23.6751 17.7959 24.3955 18.9 25.4968 18.9H31.4053C31.9264 18.9 32.5946 19.2603 32.8147 20.219C32.8963 20.5744 33.2505 20.7963 33.6058 20.7147C33.9611 20.6331 34.183 20.2789 34.1015 19.9236C33.7476 18.3827 32.5594 17.5798 31.4053 17.5798H25.4968C25.3481 17.5798 25.2104 17.4168 25.2739 17.2379C25.7491 15.8982 26.2517 14.2057 26.4843 12.682C26.6004 11.9217 26.6539 11.1746 26.5909 10.5213C26.5294 9.88381 26.3472 9.23215 25.8935 8.77837C25.4786 8.36353 25.0303 8.10522 24.5548 8.02581C24.0746 7.94563 23.641 8.06033 23.2835 8.2584C22.6032 8.6354 22.1437 9.3397 21.9181 9.83184L21.9027 9.86542L21.8912 9.90051C19.9465 15.8094 17.5586 18.4324 16.2744 19.2348L16.2662 19.24C15.9438 18.879 15.4748 18.6516 14.9527 18.6516H9.7602C8.78804 18.6516 7.99994 19.4397 7.99994 20.4119V33.4461C7.99994 34.4182 8.78803 35.2063 9.7602 35.2063H14.9527C15.585 35.2063 16.1395 34.8729 16.4498 34.3723C17.0354 35.0278 17.8784 35.4893 18.9633 35.4893H21.7289C22.0935 35.4893 22.389 35.1938 22.389 34.8292C22.389 34.4646 22.0935 34.1691 21.7289 34.1691H18.9633C18.221 34.1691 17.6845 33.8346 17.3148 33.3475C16.9316 32.8426 16.7361 32.1781 16.7361 31.5975V20.6862C16.7361 20.6058 16.7946 20.4665 16.974 20.3544C18.6235 19.3237 21.1422 16.3798 23.1329 10.3506ZM14.9527 19.9718H9.7602C9.51716 19.9718 9.32014 20.1689 9.32014 20.4119V33.4461C9.32014 33.6891 9.51716 33.8861 9.7602 33.8861H14.9527C15.1957 33.8861 15.3927 33.6891 15.3927 33.4461V20.4119C15.3927 20.1689 15.1957 19.9718 14.9527 19.9718Z" clip-rule="evenodd"/><path fill="#fff" fill-rule="evenodd" d="M31.7744 27.1461C29.7387 27.1461 28.0884 28.7964 28.0884 30.8321C28.0884 32.8679 29.7387 34.5182 31.7744 34.5182C33.8102 34.5182 35.4605 32.8679 35.4605 30.8321C35.4605 28.7964 33.8102 27.1461 31.7744 27.1461ZM29.4086 30.8321C29.4086 29.5255 30.4678 28.4663 31.7744 28.4663C33.081 28.4663 34.1403 29.5255 34.1403 30.8321C34.1403 32.1388 33.081 33.198 31.7744 33.198C30.4678 33.198 29.4086 32.1388 29.4086 30.8321Z" clip-rule="evenodd"/><path fill="#fff" fill-rule="evenodd" d="M29.6029 22.6075V24.4799C29.3334 24.572 29.0716 24.6808 28.8189 24.8049L27.4946 23.4806L24.4214 26.5538L25.7462 27.8786C25.6227 28.1303 25.5144 28.3909 25.4227 28.6592H23.5501V33.0053H25.4225C25.5144 33.2741 25.6229 33.5351 25.7467 33.7872L24.4225 35.1114L27.4956 38.1846L28.8198 36.8605C29.0722 36.9844 29.3337 37.0931 29.6029 37.1851V39.0573H33.949V37.1843C34.2169 37.0926 34.4772 36.9844 34.7287 36.861L36.0532 38.1856L39.1264 35.1124L37.8023 33.7883C37.9263 33.5359 38.035 33.2745 38.127 33.0053H39.9999V28.6592H38.1268C38.0349 28.3905 37.9265 28.1295 37.8027 27.8775L39.1274 26.5528L36.0542 23.4796L34.7295 24.8044C34.4778 24.6808 34.2172 24.5725 33.949 24.4807V22.6075H29.6029ZM30.923 23.9277H32.6288V25.4832L33.1242 25.6108C33.618 25.738 34.0845 25.9335 34.5131 26.1868L34.9538 26.4472L36.0542 25.3467L37.2604 26.5528L36.1599 27.6533L36.4203 28.0939C36.6738 28.5229 36.8694 28.9897 36.9966 29.4839L37.1242 29.9794H38.6797V31.6851H37.1243L36.9967 32.1807C36.8695 32.6753 36.6737 33.1425 36.4199 33.5718L36.1594 34.0125L37.2593 35.1124L36.0532 36.3185L34.953 35.2184L34.5124 35.4786C34.084 35.7317 33.6177 35.927 33.1242 36.0542L32.6288 36.1818V37.7371H30.923V36.1822L30.4274 36.0547C29.9328 35.9275 29.4655 35.7318 29.0362 35.4781L28.5955 35.2177L27.4956 36.3176L26.2895 35.1114L27.3894 34.0115L27.129 33.5709C26.8755 33.1418 26.68 32.6749 26.5528 32.1807L26.4252 31.6851H24.8703V29.9794H26.4253L26.5529 29.4839C26.68 28.9901 26.8754 28.5235 27.1286 28.0948L27.3889 27.6542L26.2885 26.5538L27.4946 25.3476L28.5948 26.4478L29.0355 26.1873C29.465 25.9334 29.9325 25.7376 30.4274 25.6103L30.923 25.4828V23.9277Z" clip-rule="evenodd"/></g></g></svg>