<svg xmlns="http://www.w3.org/2000/svg" width="48" height="48" fill="none" viewBox="0 0 48 48"><g id="Icons"><rect width="47" height="47" x=".5" y=".5" stroke="#E4E8EB" rx="2.5"/><g id="CNN"><path id="Rectangle 3143" stroke="#fff" stroke-linecap="round" stroke-width="1.5" d="M15.0962 35.0139H14.3336C13.7813 35.0139 13.3336 34.5662 13.3336 34.0139V14.3463C13.3336 13.794 13.7813 13.3463 14.3336 13.3463H34.0012C34.5535 13.3463 35.0012 13.794 35.0012 14.3463V15.572"/><path id="Rectangle 3147" stroke="#fff" stroke-linecap="round" stroke-width="1.5" d="M10.7626 30.6678H9.99997C9.44768 30.6678 8.99997 30.22 8.99997 29.6678V10.0001C8.99997 9.44784 9.44768 9.00012 9.99997 9.00012H29.6676C30.2199 9.00012 30.6676 9.44784 30.6676 10.0001V11.2259"/><rect id="Rectangle 3144" width="21.668" height="21.668" x="17.332" y="17.693" stroke="#fff" stroke-linecap="round" stroke-width="1.5" rx="1"/><rect id="Rectangle 3146" width="5.2" height="5.2" x="20.399" y="20.669" fill="#fff" rx=".446"/></g></g></svg>